<ttFont>
    <TTGlyph name="A" xMin="15" yMin="-8" xMax="606" yMax="688">
      <contour>
        <pt x="427" y="157" on="1"/>
        <pt x="375" y="156" on="1"/>
        <pt x="236" y="156" on="1"/>
        <pt x="185" y="157" on="1"/>
        <pt x="136" y="-1" on="1"/>
        <pt x="116" y="-6" on="0"/>
        <pt x="42" y="-6" on="0"/>
        <pt x="20" y="3" on="1"/>
        <pt x="15" y="9" on="1"/>
        <pt x="239" y="683" on="1"/>
        <pt x="272" y="688" on="0"/>
        <pt x="358" y="688" on="0"/>
        <pt x="385" y="682" on="1"/>
        <pt x="606" y="8" on="1"/>
        <pt x="577" y="-8" on="0"/>
        <pt x="502" y="-8" on="0"/>
        <pt x="469" y="21" on="0"/>
        <pt x="457" y="60" on="1"/>
      </contour>
      <contour>
        <pt x="216" y="259" on="1"/>
        <pt x="263" y="260" on="1"/>
        <pt x="352" y="260" on="1"/>
        <pt x="355" y="260" on="0"/>
        <pt x="388" y="259" on="0"/>
        <pt x="396" y="259" on="1"/>
        <pt x="362" y="371" on="1"/>
        <pt x="334" y="460" on="0"/>
        <pt x="308" y="562" on="1"/>
        <pt x="303" y="562" on="1"/>
        <pt x="291" y="501" on="0"/>
        <pt x="260" y="400" on="1"/>
      </contour>
    </TTGlyph>
    <TTGlyph name="AE" xMin="11" yMin="-5" xMax="838" yMax="683">
      <contour>
        <pt x="520" y="164" on="1"/>
        <pt x="519" y="104" on="1"/>
        <pt x="561" y="106" on="0"/>
        <pt x="588" y="106" on="1"/>
        <pt x="838" y="106" on="1"/>
        <pt x="838" y="75" on="0"/>
        <pt x="835" y="59" on="1"/>
        <pt x="824" y="-2" on="0"/>
        <pt x="754" y="-2" on="1"/>
        <pt x="469" y="-2" on="1"/>
        <pt x="435" y="-2" on="0"/>
        <pt x="396" y="39" on="0"/>
        <pt x="396" y="75" on="1"/>
        <pt x="396" y="157" on="1"/>
        <pt x="380" y="156" on="0"/>
        <pt x="350" y="156" on="1"/>
        <pt x="261" y="156" on="1"/>
        <pt x="229" y="156" on="0"/>
        <pt x="212" y="157" on="1"/>
        <pt x="140" y="0" on="1"/>
        <pt x="121" y="-5" on="0"/>
        <pt x="38" y="-5" on="0"/>
        <pt x="15" y="3" on="1"/>
        <pt x="11" y="10" on="1"/>
        <pt x="327" y="672" on="1"/>
        <pt x="352" y="683" on="0"/>
        <pt x="403" y="683" on="1"/>
        <pt x="816" y="683" on="1"/>
        <pt x="820" y="664" on="0"/>
        <pt x="820" y="603" on="0"/>
        <pt x="810" y="576" on="1"/>
        <pt x="519" y="576" on="1"/>
        <pt x="520" y="508" on="1"/>
        <pt x="520" y="396" on="1"/>
        <pt x="544" y="397" on="0"/>
        <pt x="584" y="397" on="1"/>
        <pt x="760" y="397" on="1"/>
        <pt x="767" y="373" on="0"/>
        <pt x="767" y="316" on="0"/>
        <pt x="760" y="292" on="1"/>
        <pt x="584" y="292" on="1"/>
        <pt x="544" y="292" on="0"/>
        <pt x="520" y="293" on="1"/>
      </contour>
      <contour>
        <pt x="350" y="259" on="1"/>
        <pt x="396" y="258" on="1"/>
        <pt x="396" y="562" on="1"/>
        <pt x="392" y="562" on="1"/>
        <pt x="356" y="471" on="0"/>
        <pt x="324" y="399" on="1"/>
        <pt x="259" y="258" on="1"/>
        <pt x="296" y="259" on="1"/>
      </contour>
    </TTGlyph>
    <TTGlyph name="Aacute" xMin="15" yMin="-8" xMax="606" yMax="917">
      <contour>
        <pt x="427" y="157" on="1"/>
        <pt x="375" y="156" on="1"/>
        <pt x="236" y="156" on="1"/>
        <pt x="185" y="157" on="1"/>
        <pt x="136" y="-1" on="1"/>
        <pt x="116" y="-6" on="0"/>
        <pt x="42" y="-6" on="0"/>
        <pt x="20" y="3" on="1"/>
        <pt x="15" y="9" on="1"/>
        <pt x="239" y="683" on="1"/>
        <pt x="272" y="688" on="0"/>
        <pt x="358" y="688" on="0"/>
        <pt x="385" y="682" on="1"/>
        <pt x="606" y="8" on="1"/>
        <pt x="577" y="-8" on="0"/>
        <pt x="502" y="-8" on="0"/>
        <pt x="469" y="21" on="0"/>
        <pt x="457" y="60" on="1"/>
      </contour>
      <contour>
        <pt x="216" y="259" on="1"/>
        <pt x="263" y="260" on="1"/>
        <pt x="352" y="260" on="1"/>
        <pt x="355" y="260" on="0"/>
        <pt x="388" y="259" on="0"/>
        <pt x="396" y="259" on="1"/>
        <pt x="362" y="371" on="1"/>
        <pt x="334" y="460" on="0"/>
        <pt x="308" y="562" on="1"/>
        <pt x="303" y="562" on="1"/>
        <pt x="291" y="501" on="0"/>
        <pt x="260" y="400" on="1"/>
      </contour>
      <contour>
        <pt x="203" y="790" on="1"/>
        <pt x="414" y="917" on="1"/>
        <pt x="431" y="904" on="0"/>
        <pt x="463" y="846" on="0"/>
        <pt x="466" y="819" on="1"/>
        <pt x="239" y="728" on="1"/>
        <pt x="225" y="736" on="0"/>
        <pt x="205" y="772" on="0"/>
      </contour>
    </TTGlyph>
    <TTGlyph name="Acircumflex" xMin="15" yMin="-8" xMax="606" yMax="902">
      <contour>
        <pt x="427" y="157" on="1"/>
        <pt x="375" y="156" on="1"/>
        <pt x="236" y="156" on="1"/>
        <pt x="185" y="157" on="1"/>
        <pt x="136" y="-1" on="1"/>
        <pt x="116" y="-6" on="0"/>
        <pt x="42" y="-6" on="0"/>
        <pt x="20" y="3" on="1"/>
        <pt x="15" y="9" on="1"/>
        <pt x="239" y="683" on="1"/>
        <pt x="272" y="688" on="0"/>
        <pt x="358" y="688" on="0"/>
        <pt x="385" y="682" on="1"/>
        <pt x="606" y="8" on="1"/>
        <pt x="577" y="-8" on="0"/>
        <pt x="502" y="-8" on="0"/>
        <pt x="469" y="21" on="0"/>
        <pt x="457" y="60" on="1"/>
      </contour>
      <contour>
        <pt x="216" y="259" on="1"/>
        <pt x="263" y="260" on="1"/>
        <pt x="352" y="260" on="1"/>
        <pt x="355" y="260" on="0"/>
        <pt x="388" y="259" on="0"/>
        <pt x="396" y="259" on="1"/>
        <pt x="362" y="371" on="1"/>
        <pt x="334" y="460" on="0"/>
        <pt x="308" y="562" on="1"/>
        <pt x="303" y="562" on="1"/>
        <pt x="291" y="501" on="0"/>
        <pt x="260" y="400" on="1"/>
      </contour>
      <contour>
        <pt x="426" y="736" on="1"/>
        <pt x="312" y="811" on="1"/>
        <pt x="195" y="727" on="1"/>
        <pt x="180" y="732" on="0"/>
        <pt x="147" y="764" on="0"/>
        <pt x="143" y="780" on="1"/>
        <pt x="258" y="896" on="1"/>
        <pt x="284" y="902" on="0"/>
        <pt x="337" y="902" on="0"/>
        <pt x="365" y="897" on="1"/>
        <pt x="478" y="789" on="1"/>
        <pt x="472" y="771" on="0"/>
        <pt x="441" y="742" on="0"/>
      </contour>
    </TTGlyph>
    <TTGlyph name="Adieresis" xMin="15" yMin="-8" xMax="606" yMax="853">
      <contour>
        <pt x="427" y="157" on="1"/>
        <pt x="375" y="156" on="1"/>
        <pt x="236" y="156" on="1"/>
        <pt x="185" y="157" on="1"/>
        <pt x="136" y="-1" on="1"/>
        <pt x="116" y="-6" on="0"/>
        <pt x="42" y="-6" on="0"/>
        <pt x="20" y="3" on="1"/>
        <pt x="15" y="9" on="1"/>
        <pt x="239" y="683" on="1"/>
        <pt x="272" y="688" on="0"/>
        <pt x="358" y="688" on="0"/>
        <pt x="385" y="682" on="1"/>
        <pt x="606" y="8" on="1"/>
        <pt x="577" y="-8" on="0"/>
        <pt x="502" y="-8" on="0"/>
        <pt x="469" y="21" on="0"/>
        <pt x="457" y="60" on="1"/>
      </contour>
      <contour>
        <pt x="216" y="259" on="1"/>
        <pt x="263" y="260" on="1"/>
        <pt x="352" y="260" on="1"/>
        <pt x="355" y="260" on="0"/>
        <pt x="388" y="259" on="0"/>
        <pt x="396" y="259" on="1"/>
        <pt x="362" y="371" on="1"/>
        <pt x="334" y="460" on="0"/>
        <pt x="308" y="562" on="1"/>
        <pt x="303" y="562" on="1"/>
        <pt x="291" y="501" on="0"/>
        <pt x="260" y="400" on="1"/>
      </contour>
      <contour>
        <pt x="369" y="839" on="1"/>
        <pt x="392" y="853" on="0"/>
        <pt x="453" y="853" on="0"/>
        <pt x="476" y="839" on="1"/>
        <pt x="486" y="824" on="0"/>
        <pt x="486" y="764" on="0"/>
        <pt x="476" y="750" on="1"/>
        <pt x="456" y="736" on="0"/>
        <pt x="389" y="736" on="0"/>
        <pt x="369" y="750" on="1"/>
        <pt x="357" y="765" on="0"/>
        <pt x="357" y="823" on="0"/>
      </contour>
      <contour>
        <pt x="150" y="839" on="1"/>
        <pt x="171" y="853" on="0"/>
        <pt x="234" y="853" on="0"/>
        <pt x="257" y="839" on="1"/>
        <pt x="268" y="824" on="0"/>
        <pt x="268" y="763" on="0"/>
        <pt x="257" y="750" on="1"/>
        <pt x="237" y="736" on="0"/>
        <pt x="169" y="736" on="0"/>
        <pt x="150" y="750" on="1"/>
        <pt x="140" y="764" on="0"/>
        <pt x="140" y="824" on="0"/>
      </contour>
    </TTGlyph>
    <TTGlyph name="Agrave" xMin="15" yMin="-8" xMax="606" yMax="917">
      <contour>
        <pt x="427" y="157" on="1"/>
        <pt x="375" y="156" on="1"/>
        <pt x="236" y="156" on="1"/>
        <pt x="185" y="157" on="1"/>
        <pt x="136" y="-1" on="1"/>
        <pt x="116" y="-6" on="0"/>
        <pt x="42" y="-6" on="0"/>
        <pt x="20" y="3" on="1"/>
        <pt x="15" y="9" on="1"/>
        <pt x="239" y="683" on="1"/>
        <pt x="272" y="688" on="0"/>
        <pt x="358" y="688" on="0"/>
        <pt x="385" y="682" on="1"/>
        <pt x="606" y="8" on="1"/>
        <pt x="577" y="-8" on="0"/>
        <pt x="502" y="-8" on="0"/>
        <pt x="469" y="21" on="0"/>
        <pt x="457" y="60" on="1"/>
      </contour>
      <contour>
        <pt x="216" y="259" on="1"/>
        <pt x="263" y="260" on="1"/>
        <pt x="352" y="260" on="1"/>
        <pt x="355" y="260" on="0"/>
        <pt x="388" y="259" on="0"/>
        <pt x="396" y="259" on="1"/>
        <pt x="362" y="371" on="1"/>
        <pt x="334" y="460" on="0"/>
        <pt x="308" y="562" on="1"/>
        <pt x="303" y="562" on="1"/>
        <pt x="291" y="501" on="0"/>
        <pt x="260" y="400" on="1"/>
      </contour>
      <contour>
        <pt x="224" y="917" on="1"/>
        <pt x="435" y="790" on="1"/>
        <pt x="427" y="745" on="0"/>
        <pt x="399" y="728" on="1"/>
        <pt x="172" y="819" on="1"/>
        <pt x="175" y="846" on="0"/>
        <pt x="207" y="904" on="0"/>
      </contour>
    </TTGlyph>
    <TTGlyph name="Aogonek" xMin="15" yMin="-218" xMax="647" yMax="688">
      <contour>
        <pt x="236" y="156" on="1"/>
        <pt x="185" y="157" on="1"/>
        <pt x="136" y="-1" on="1"/>
        <pt x="116" y="-6" on="0"/>
        <pt x="42" y="-6" on="0"/>
        <pt x="20" y="3" on="1"/>
        <pt x="15" y="9" on="1"/>
        <pt x="239" y="683" on="1"/>
        <pt x="272" y="688" on="0"/>
        <pt x="358" y="688" on="0"/>
        <pt x="385" y="682" on="1"/>
        <pt x="606" y="8" on="1"/>
        <pt x="519" y="-42" on="0"/>
        <pt x="519" y="-96" on="1"/>
        <pt x="519" y="-116" on="0"/>
        <pt x="545" y="-138" on="0"/>
        <pt x="592" y="-138" on="0"/>
        <pt x="620" y="-122" on="1"/>
        <pt x="645" y="-144" on="0"/>
        <pt x="647" y="-180" on="1"/>
        <pt x="604" y="-218" on="0"/>
        <pt x="487" y="-218" on="0"/>
        <pt x="424" y="-166" on="0"/>
        <pt x="424" y="-122" on="1"/>
        <pt x="424" y="-57" on="0"/>
        <pt x="492" y="1" on="1"/>
        <pt x="470" y="14" on="0"/>
        <pt x="457" y="60" on="1"/>
        <pt x="427" y="157" on="1"/>
        <pt x="375" y="156" on="1"/>
      </contour>
      <contour>
        <pt x="216" y="259" on="1"/>
        <pt x="263" y="260" on="1"/>
        <pt x="352" y="260" on="1"/>
        <pt x="355" y="260" on="0"/>
        <pt x="388" y="259" on="0"/>
        <pt x="396" y="259" on="1"/>
        <pt x="362" y="371" on="1"/>
        <pt x="334" y="460" on="0"/>
        <pt x="308" y="562" on="1"/>
        <pt x="303" y="562" on="1"/>
        <pt x="291" y="501" on="0"/>
        <pt x="260" y="400" on="1"/>
      </contour>
    </TTGlyph>
    <TTGlyph name="Aring" xMin="15" yMin="-8" xMax="606" yMax="903">
      <contour>
        <pt x="427" y="157" on="1"/>
        <pt x="375" y="156" on="1"/>
        <pt x="236" y="156" on="1"/>
        <pt x="185" y="157" on="1"/>
        <pt x="136" y="-1" on="1"/>
        <pt x="116" y="-6" on="0"/>
        <pt x="42" y="-6" on="0"/>
        <pt x="20" y="3" on="1"/>
        <pt x="15" y="9" on="1"/>
        <pt x="239" y="683" on="1"/>
        <pt x="240" y="683" on="1"/>
        <pt x="184" y="717" on="0"/>
        <pt x="184" y="784" on="1"/>
        <pt x="184" y="834" on="0"/>
        <pt x="256" y="903" on="0"/>
        <pt x="370" y="903" on="0"/>
        <pt x="441" y="834" on="0"/>
        <pt x="441" y="784" on="1"/>
        <pt x="441" y="717" on="0"/>
        <pt x="384" y="682" on="1"/>
        <pt x="385" y="682" on="1"/>
        <pt x="606" y="8" on="1"/>
        <pt x="577" y="-8" on="0"/>
        <pt x="502" y="-8" on="0"/>
        <pt x="469" y="21" on="0"/>
        <pt x="457" y="60" on="1"/>
      </contour>
      <contour>
        <pt x="216" y="259" on="1"/>
        <pt x="263" y="260" on="1"/>
        <pt x="352" y="260" on="1"/>
        <pt x="355" y="260" on="0"/>
        <pt x="388" y="259" on="0"/>
        <pt x="396" y="259" on="1"/>
        <pt x="362" y="371" on="1"/>
        <pt x="334" y="460" on="0"/>
        <pt x="308" y="562" on="1"/>
        <pt x="303" y="562" on="1"/>
        <pt x="291" y="501" on="0"/>
        <pt x="260" y="400" on="1"/>
      </contour>
      <contour>
        <pt x="263" y="807" on="0"/>
        <pt x="263" y="761" on="0"/>
        <pt x="291" y="731" on="0"/>
        <pt x="335" y="731" on="0"/>
        <pt x="362" y="761" on="0"/>
        <pt x="362" y="807" on="0"/>
        <pt x="335" y="836" on="0"/>
        <pt x="291" y="836" on="0"/>
      </contour>
    </TTGlyph>
    <TTGlyph name="Atilde" xMin="15" yMin="-8" xMax="606" yMax="889">
      <contour>
        <pt x="427" y="157" on="1"/>
        <pt x="375" y="156" on="1"/>
        <pt x="236" y="156" on="1"/>
        <pt x="185" y="157" on="1"/>
        <pt x="136" y="-1" on="1"/>
        <pt x="116" y="-6" on="0"/>
        <pt x="42" y="-6" on="0"/>
        <pt x="20" y="3" on="1"/>
        <pt x="15" y="9" on="1"/>
        <pt x="239" y="683" on="1"/>
        <pt x="272" y="688" on="0"/>
        <pt x="358" y="688" on="0"/>
        <pt x="385" y="682" on="1"/>
        <pt x="606" y="8" on="1"/>
        <pt x="577" y="-8" on="0"/>
        <pt x="502" y="-8" on="0"/>
        <pt x="469" y="21" on="0"/>
        <pt x="457" y="60" on="1"/>
      </contour>
      <contour>
        <pt x="216" y="259" on="1"/>
        <pt x="263" y="260" on="1"/>
        <pt x="352" y="260" on="1"/>
        <pt x="355" y="260" on="0"/>
        <pt x="388" y="259" on="0"/>
        <pt x="396" y="259" on="1"/>
        <pt x="362" y="371" on="1"/>
        <pt x="334" y="460" on="0"/>
        <pt x="308" y="562" on="1"/>
        <pt x="303" y="562" on="1"/>
        <pt x="291" y="501" on="0"/>
        <pt x="260" y="400" on="1"/>
      </contour>
      <contour>
        <pt x="320" y="757" on="1"/>
        <pt x="268" y="782" on="1"/>
        <pt x="252" y="791" on="0"/>
        <pt x="215" y="791" on="0"/>
        <pt x="197" y="767" on="1"/>
        <pt x="187" y="753" on="1"/>
        <pt x="168" y="754" on="0"/>
        <pt x="131" y="775" on="0"/>
        <pt x="125" y="791" on="1"/>
        <pt x="133" y="810" on="1"/>
        <pt x="150" y="846" on="0"/>
        <pt x="208" y="889" on="0"/>
        <pt x="274" y="889" on="0"/>
        <pt x="306" y="872" on="1"/>
        <pt x="358" y="847" on="1"/>
        <pt x="376" y="838" on="0"/>
        <pt x="410" y="838" on="0"/>
        <pt x="429" y="863" on="1"/>
        <pt x="439" y="877" on="1"/>
        <pt x="458" y="876" on="0"/>
        <pt x="494" y="854" on="0"/>
        <pt x="501" y="839" on="1"/>
        <pt x="493" y="820" on="1"/>
        <pt x="456" y="741" on="0"/>
        <pt x="382" y="741" on="1"/>
        <pt x="352" y="741" on="0"/>
      </contour>
    </TTGlyph>
    <TTGlyph name="B" xMin="85" yMin="-5" xMax="565" yMax="688">
      <contour>
        <pt x="92" y="684" on="1"/>
        <pt x="242" y="688" on="0"/>
        <pt x="308" y="688" on="1"/>
        <pt x="417" y="688" on="0"/>
        <pt x="533" y="595" on="0"/>
        <pt x="533" y="507" on="1"/>
        <pt x="533" y="460" on="0"/>
        <pt x="482" y="384" on="0"/>
        <pt x="441" y="367" on="1"/>
        <pt x="494" y="351" on="0"/>
        <pt x="565" y="254" on="0"/>
        <pt x="565" y="193" on="1"/>
        <pt x="565" y="100" on="0"/>
        <pt x="441" y="-5" on="0"/>
        <pt x="322" y="-5" on="1"/>
        <pt x="250" y="-5" on="0"/>
        <pt x="92" y="-1" on="1"/>
        <pt x="85" y="5" on="1"/>
        <pt x="85" y="678" on="1"/>
      </contour>
      <contour>
        <pt x="211" y="88" on="1"/>
        <pt x="318" y="89" on="1"/>
        <pt x="383" y="89" on="0"/>
        <pt x="436" y="155" on="0"/>
        <pt x="436" y="243" on="0"/>
        <pt x="379" y="311" on="0"/>
        <pt x="313" y="311" on="1"/>
        <pt x="211" y="311" on="1"/>
      </contour>
      <contour>
        <pt x="211" y="595" on="1"/>
        <pt x="211" y="406" on="1"/>
        <pt x="303" y="406" on="1"/>
        <pt x="360" y="406" on="0"/>
        <pt x="407" y="461" on="0"/>
        <pt x="407" y="500" on="1"/>
        <pt x="407" y="594" on="0"/>
        <pt x="304" y="594" on="1"/>
        <pt x="240" y="594" on="0"/>
      </contour>
    </TTGlyph>
    <TTGlyph name="C" xMin="44" yMin="-14" xMax="572" yMax="697">
      <contour>
        <pt x="450" y="433" on="1"/>
        <pt x="450" y="437" on="0"/>
        <pt x="450" y="441" on="1"/>
        <pt x="450" y="504" on="0"/>
        <pt x="391" y="595" on="0"/>
        <pt x="322" y="595" on="1"/>
        <pt x="178" y="595" on="0"/>
        <pt x="178" y="338" on="1"/>
        <pt x="178" y="222" on="0"/>
        <pt x="259" y="97" on="0"/>
        <pt x="413" y="97" on="0"/>
        <pt x="508" y="171" on="1"/>
        <pt x="528" y="157" on="0"/>
        <pt x="564" y="110" on="0"/>
        <pt x="569" y="89" on="1"/>
        <pt x="524" y="44" on="0"/>
        <pt x="386" y="-14" on="0"/>
        <pt x="238" y="-14" on="0"/>
        <pt x="132" y="46" on="0"/>
        <pt x="102" y="98" on="1"/>
        <pt x="44" y="197" on="0"/>
        <pt x="44" y="339" on="1"/>
        <pt x="44" y="516" on="0"/>
        <pt x="203" y="697" on="0"/>
        <pt x="435" y="697" on="0"/>
        <pt x="572" y="580" on="0"/>
        <pt x="572" y="497" on="1"/>
        <pt x="572" y="426" on="0"/>
        <pt x="500" y="426" on="1"/>
        <pt x="474" y="426" on="0"/>
      </contour>
    </TTGlyph>
    <TTGlyph name="Cacute" xMin="44" yMin="-14" xMax="572" yMax="918">
      <contour>
        <pt x="450" y="433" on="1"/>
        <pt x="450" y="437" on="0"/>
        <pt x="450" y="441" on="1"/>
        <pt x="450" y="504" on="0"/>
        <pt x="391" y="595" on="0"/>
        <pt x="322" y="595" on="1"/>
        <pt x="178" y="595" on="0"/>
        <pt x="178" y="338" on="1"/>
        <pt x="178" y="222" on="0"/>
        <pt x="259" y="97" on="0"/>
        <pt x="413" y="97" on="0"/>
        <pt x="508" y="171" on="1"/>
        <pt x="528" y="157" on="0"/>
        <pt x="564" y="110" on="0"/>
        <pt x="569" y="89" on="1"/>
        <pt x="524" y="44" on="0"/>
        <pt x="386" y="-14" on="0"/>
        <pt x="238" y="-14" on="0"/>
        <pt x="132" y="46" on="0"/>
        <pt x="102" y="98" on="1"/>
        <pt x="44" y="197" on="0"/>
        <pt x="44" y="339" on="1"/>
        <pt x="44" y="516" on="0"/>
        <pt x="203" y="697" on="0"/>
        <pt x="435" y="697" on="0"/>
        <pt x="572" y="580" on="0"/>
        <pt x="572" y="497" on="1"/>
        <pt x="572" y="426" on="0"/>
        <pt x="500" y="426" on="1"/>
        <pt x="474" y="426" on="0"/>
      </contour>
      <contour>
        <pt x="213" y="791" on="1"/>
        <pt x="424" y="918" on="1"/>
        <pt x="441" y="905" on="0"/>
        <pt x="473" y="847" on="0"/>
        <pt x="476" y="820" on="1"/>
        <pt x="249" y="729" on="1"/>
        <pt x="235" y="737" on="0"/>
        <pt x="215" y="773" on="0"/>
      </contour>
    </TTGlyph>
    <TTGlyph name="Ccaron" xMin="44" yMin="-14" xMax="572" yMax="913">
      <contour>
        <pt x="450" y="433" on="1"/>
        <pt x="450" y="437" on="0"/>
        <pt x="450" y="441" on="1"/>
        <pt x="450" y="504" on="0"/>
        <pt x="391" y="595" on="0"/>
        <pt x="322" y="595" on="1"/>
        <pt x="178" y="595" on="0"/>
        <pt x="178" y="338" on="1"/>
        <pt x="178" y="222" on="0"/>
        <pt x="259" y="97" on="0"/>
        <pt x="413" y="97" on="0"/>
        <pt x="508" y="171" on="1"/>
        <pt x="528" y="157" on="0"/>
        <pt x="564" y="110" on="0"/>
        <pt x="569" y="89" on="1"/>
        <pt x="524" y="44" on="0"/>
        <pt x="386" y="-14" on="0"/>
        <pt x="238" y="-14" on="0"/>
        <pt x="132" y="46" on="0"/>
        <pt x="102" y="98" on="1"/>
        <pt x="44" y="197" on="0"/>
        <pt x="44" y="339" on="1"/>
        <pt x="44" y="516" on="0"/>
        <pt x="203" y="697" on="0"/>
        <pt x="435" y="697" on="0"/>
        <pt x="572" y="580" on="0"/>
        <pt x="572" y="497" on="1"/>
        <pt x="572" y="426" on="0"/>
        <pt x="500" y="426" on="1"/>
        <pt x="474" y="426" on="0"/>
      </contour>
      <contour>
        <pt x="205" y="904" on="1"/>
        <pt x="320" y="829" on="1"/>
        <pt x="437" y="913" on="1"/>
        <pt x="452" y="908" on="0"/>
        <pt x="486" y="878" on="0"/>
        <pt x="490" y="861" on="1"/>
        <pt x="373" y="744" on="1"/>
        <pt x="348" y="738" on="0"/>
        <pt x="294" y="738" on="0"/>
        <pt x="266" y="743" on="1"/>
        <pt x="154" y="851" on="1"/>
        <pt x="159" y="869" on="0"/>
        <pt x="190" y="898" on="0"/>
      </contour>
    </TTGlyph>
    <TTGlyph name="Ccedilla" xMin="44" yMin="-227" xMax="572" yMax="697">
      <contour>
        <pt x="259" y="-75" on="1"/>
        <pt x="266" y="-43" on="0"/>
        <pt x="279" y="-12" on="1"/>
        <pt x="216" y="-6" on="0"/>
        <pt x="122" y="57" on="0"/>
        <pt x="96" y="108" on="1"/>
        <pt x="44" y="206" on="0"/>
        <pt x="44" y="339" on="1"/>
        <pt x="44" y="516" on="0"/>
        <pt x="203" y="697" on="0"/>
        <pt x="435" y="697" on="0"/>
        <pt x="572" y="580" on="0"/>
        <pt x="572" y="497" on="1"/>
        <pt x="572" y="426" on="0"/>
        <pt x="500" y="426" on="1"/>
        <pt x="474" y="426" on="0"/>
        <pt x="450" y="433" on="1"/>
        <pt x="450" y="437" on="0"/>
        <pt x="450" y="441" on="1"/>
        <pt x="450" y="504" on="0"/>
        <pt x="391" y="595" on="0"/>
        <pt x="322" y="595" on="1"/>
        <pt x="178" y="595" on="0"/>
        <pt x="178" y="338" on="1"/>
        <pt x="178" y="222" on="0"/>
        <pt x="259" y="97" on="0"/>
        <pt x="413" y="97" on="0"/>
        <pt x="508" y="171" on="1"/>
        <pt x="528" y="157" on="0"/>
        <pt x="564" y="110" on="0"/>
        <pt x="569" y="89" on="1"/>
        <pt x="483" y="3" on="0"/>
        <pt x="349" y="-12" on="1"/>
        <pt x="342" y="-29" on="0"/>
        <pt x="340" y="-35" on="1"/>
        <pt x="383" y="-37" on="0"/>
        <pt x="436" y="-86" on="0"/>
        <pt x="436" y="-169" on="0"/>
        <pt x="364" y="-227" on="0"/>
        <pt x="258" y="-227" on="0"/>
        <pt x="227" y="-205" on="1"/>
        <pt x="229" y="-170" on="0"/>
        <pt x="249" y="-147" on="1"/>
        <pt x="270" y="-161" on="0"/>
        <pt x="298" y="-161" on="1"/>
        <pt x="339" y="-161" on="0"/>
        <pt x="339" y="-126" on="1"/>
        <pt x="339" y="-111" on="0"/>
        <pt x="319" y="-91" on="0"/>
        <pt x="291" y="-91" on="0"/>
        <pt x="279" y="-95" on="1"/>
        <pt x="265" y="-90" on="0"/>
      </contour>
    </TTGlyph>
    <TTGlyph name="D" xMin="85" yMin="-5" xMax="610" yMax="688">
      <contour>
        <pt x="565" y="586" on="0"/>
        <pt x="610" y="442" on="0"/>
        <pt x="610" y="241" on="0"/>
        <pt x="565" y="96" on="0"/>
        <pt x="502" y="45" on="1"/>
        <pt x="471" y="20" on="0"/>
        <pt x="370" y="-5" on="0"/>
        <pt x="266" y="-5" on="0"/>
        <pt x="92" y="-1" on="1"/>
        <pt x="85" y="5" on="1"/>
        <pt x="85" y="678" on="1"/>
        <pt x="92" y="684" on="1"/>
        <pt x="207" y="688" on="0"/>
        <pt x="324" y="688" on="1"/>
        <pt x="370" y="688" on="0"/>
        <pt x="471" y="662" on="0"/>
        <pt x="502" y="637" on="1"/>
      </contour>
      <contour>
        <pt x="468" y="216" on="0"/>
        <pt x="479" y="293" on="0"/>
        <pt x="479" y="390" on="0"/>
        <pt x="468" y="467" on="0"/>
        <pt x="437" y="544" on="0"/>
        <pt x="371" y="587" on="0"/>
        <pt x="253" y="587" on="0"/>
        <pt x="212" y="588" on="1"/>
        <pt x="212" y="96" on="1"/>
        <pt x="323" y="96" on="1"/>
        <pt x="371" y="96" on="0"/>
        <pt x="437" y="139" on="0"/>
      </contour>
    </TTGlyph>
    <TTGlyph name="Dcaron" xMin="85" yMin="-5" xMax="610" yMax="912">
      <contour>
        <pt x="565" y="586" on="0"/>
        <pt x="610" y="442" on="0"/>
        <pt x="610" y="241" on="0"/>
        <pt x="565" y="96" on="0"/>
        <pt x="502" y="45" on="1"/>
        <pt x="471" y="20" on="0"/>
        <pt x="370" y="-5" on="0"/>
        <pt x="266" y="-5" on="0"/>
        <pt x="92" y="-1" on="1"/>
        <pt x="85" y="5" on="1"/>
        <pt x="85" y="678" on="1"/>
        <pt x="92" y="684" on="1"/>
        <pt x="207" y="688" on="0"/>
        <pt x="324" y="688" on="1"/>
        <pt x="370" y="688" on="0"/>
        <pt x="471" y="662" on="0"/>
        <pt x="502" y="637" on="1"/>
      </contour>
      <contour>
        <pt x="468" y="216" on="0"/>
        <pt x="479" y="293" on="0"/>
        <pt x="479" y="390" on="0"/>
        <pt x="468" y="467" on="0"/>
        <pt x="437" y="544" on="0"/>
        <pt x="371" y="587" on="0"/>
        <pt x="253" y="587" on="0"/>
        <pt x="212" y="588" on="1"/>
        <pt x="212" y="96" on="1"/>
        <pt x="323" y="96" on="1"/>
        <pt x="371" y="96" on="0"/>
        <pt x="437" y="139" on="0"/>
      </contour>
      <contour>
        <pt x="195" y="903" on="1"/>
        <pt x="310" y="828" on="1"/>
        <pt x="427" y="912" on="1"/>
        <pt x="442" y="907" on="0"/>
        <pt x="476" y="877" on="0"/>
        <pt x="480" y="860" on="1"/>
        <pt x="363" y="743" on="1"/>
        <pt x="338" y="737" on="0"/>
        <pt x="284" y="737" on="0"/>
        <pt x="256" y="742" on="1"/>
        <pt x="144" y="850" on="1"/>
        <pt x="149" y="868" on="0"/>
        <pt x="180" y="897" on="0"/>
      </contour>
    </TTGlyph>
    <TTGlyph name="E" xMin="84" yMin="-2" xMax="526" yMax="683">
      <contour>
        <pt x="210" y="163" on="1"/>
        <pt x="209" y="104" on="1"/>
        <pt x="251" y="106" on="0"/>
        <pt x="278" y="106" on="1"/>
        <pt x="526" y="106" on="1"/>
        <pt x="526" y="75" on="0"/>
        <pt x="524" y="59" on="1"/>
        <pt x="513" y="-2" on="0"/>
        <pt x="442" y="-2" on="1"/>
        <pt x="157" y="-2" on="1"/>
        <pt x="123" y="-2" on="0"/>
        <pt x="84" y="39" on="0"/>
        <pt x="84" y="75" on="1"/>
        <pt x="84" y="676" on="1"/>
        <pt x="91" y="683" on="1"/>
        <pt x="504" y="683" on="1"/>
        <pt x="509" y="659" on="0"/>
        <pt x="509" y="608" on="0"/>
        <pt x="499" y="576" on="1"/>
        <pt x="209" y="576" on="1"/>
        <pt x="210" y="508" on="1"/>
        <pt x="210" y="396" on="1"/>
        <pt x="234" y="397" on="0"/>
        <pt x="274" y="397" on="1"/>
        <pt x="448" y="397" on="1"/>
        <pt x="455" y="373" on="0"/>
        <pt x="455" y="316" on="0"/>
        <pt x="448" y="292" on="1"/>
        <pt x="274" y="292" on="1"/>
        <pt x="234" y="292" on="0"/>
        <pt x="210" y="293" on="1"/>
      </contour>
    </TTGlyph>
    <TTGlyph name="Eacute" xMin="84" yMin="-2" xMax="526" yMax="917">
      <contour>
        <pt x="210" y="163" on="1"/>
        <pt x="209" y="104" on="1"/>
        <pt x="251" y="106" on="0"/>
        <pt x="278" y="106" on="1"/>
        <pt x="526" y="106" on="1"/>
        <pt x="526" y="75" on="0"/>
        <pt x="524" y="59" on="1"/>
        <pt x="513" y="-2" on="0"/>
        <pt x="442" y="-2" on="1"/>
        <pt x="157" y="-2" on="1"/>
        <pt x="123" y="-2" on="0"/>
        <pt x="84" y="39" on="0"/>
        <pt x="84" y="75" on="1"/>
        <pt x="84" y="676" on="1"/>
        <pt x="91" y="683" on="1"/>
        <pt x="504" y="683" on="1"/>
        <pt x="509" y="659" on="0"/>
        <pt x="509" y="608" on="0"/>
        <pt x="499" y="576" on="1"/>
        <pt x="209" y="576" on="1"/>
        <pt x="210" y="508" on="1"/>
        <pt x="210" y="396" on="1"/>
        <pt x="234" y="397" on="0"/>
        <pt x="274" y="397" on="1"/>
        <pt x="448" y="397" on="1"/>
        <pt x="455" y="373" on="0"/>
        <pt x="455" y="316" on="0"/>
        <pt x="448" y="292" on="1"/>
        <pt x="274" y="292" on="1"/>
        <pt x="234" y="292" on="0"/>
        <pt x="210" y="293" on="1"/>
      </contour>
      <contour>
        <pt x="189" y="790" on="1"/>
        <pt x="400" y="917" on="1"/>
        <pt x="417" y="904" on="0"/>
        <pt x="449" y="846" on="0"/>
        <pt x="452" y="819" on="1"/>
        <pt x="225" y="728" on="1"/>
        <pt x="211" y="736" on="0"/>
        <pt x="191" y="772" on="0"/>
      </contour>
    </TTGlyph>
    <TTGlyph name="Ecaron" xMin="84" yMin="-2" xMax="526" yMax="912">
      <contour>
        <pt x="210" y="163" on="1"/>
        <pt x="209" y="104" on="1"/>
        <pt x="251" y="106" on="0"/>
        <pt x="278" y="106" on="1"/>
        <pt x="526" y="106" on="1"/>
        <pt x="526" y="75" on="0"/>
        <pt x="524" y="59" on="1"/>
        <pt x="513" y="-2" on="0"/>
        <pt x="442" y="-2" on="1"/>
        <pt x="157" y="-2" on="1"/>
        <pt x="123" y="-2" on="0"/>
        <pt x="84" y="39" on="0"/>
        <pt x="84" y="75" on="1"/>
        <pt x="84" y="676" on="1"/>
        <pt x="91" y="683" on="1"/>
        <pt x="504" y="683" on="1"/>
        <pt x="509" y="659" on="0"/>
        <pt x="509" y="608" on="0"/>
        <pt x="499" y="576" on="1"/>
        <pt x="209" y="576" on="1"/>
        <pt x="210" y="508" on="1"/>
        <pt x="210" y="396" on="1"/>
        <pt x="234" y="397" on="0"/>
        <pt x="274" y="397" on="1"/>
        <pt x="448" y="397" on="1"/>
        <pt x="455" y="373" on="0"/>
        <pt x="455" y="316" on="0"/>
        <pt x="448" y="292" on="1"/>
        <pt x="274" y="292" on="1"/>
        <pt x="234" y="292" on="0"/>
        <pt x="210" y="293" on="1"/>
      </contour>
      <contour>
        <pt x="181" y="903" on="1"/>
        <pt x="296" y="828" on="1"/>
        <pt x="413" y="912" on="1"/>
        <pt x="428" y="907" on="0"/>
        <pt x="462" y="877" on="0"/>
        <pt x="466" y="860" on="1"/>
        <pt x="349" y="743" on="1"/>
        <pt x="324" y="737" on="0"/>
        <pt x="270" y="737" on="0"/>
        <pt x="242" y="742" on="1"/>
        <pt x="130" y="850" on="1"/>
        <pt x="135" y="868" on="0"/>
        <pt x="166" y="897" on="0"/>
      </contour>
    </TTGlyph>
    <TTGlyph name="Ecircumflex" xMin="84" yMin="-2" xMax="526" yMax="902">
      <contour>
        <pt x="210" y="163" on="1"/>
        <pt x="209" y="104" on="1"/>
        <pt x="251" y="106" on="0"/>
        <pt x="278" y="106" on="1"/>
        <pt x="526" y="106" on="1"/>
        <pt x="526" y="75" on="0"/>
        <pt x="524" y="59" on="1"/>
        <pt x="513" y="-2" on="0"/>
        <pt x="442" y="-2" on="1"/>
        <pt x="157" y="-2" on="1"/>
        <pt x="123" y="-2" on="0"/>
        <pt x="84" y="39" on="0"/>
        <pt x="84" y="75" on="1"/>
        <pt x="84" y="676" on="1"/>
        <pt x="91" y="683" on="1"/>
        <pt x="504" y="683" on="1"/>
        <pt x="509" y="659" on="0"/>
        <pt x="509" y="608" on="0"/>
        <pt x="499" y="576" on="1"/>
        <pt x="209" y="576" on="1"/>
        <pt x="210" y="508" on="1"/>
        <pt x="210" y="396" on="1"/>
        <pt x="234" y="397" on="0"/>
        <pt x="274" y="397" on="1"/>
        <pt x="448" y="397" on="1"/>
        <pt x="455" y="373" on="0"/>
        <pt x="455" y="316" on="0"/>
        <pt x="448" y="292" on="1"/>
        <pt x="274" y="292" on="1"/>
        <pt x="234" y="292" on="0"/>
        <pt x="210" y="293" on="1"/>
      </contour>
      <contour>
        <pt x="412" y="736" on="1"/>
        <pt x="298" y="811" on="1"/>
        <pt x="181" y="727" on="1"/>
        <pt x="166" y="732" on="0"/>
        <pt x="133" y="764" on="0"/>
        <pt x="129" y="780" on="1"/>
        <pt x="244" y="896" on="1"/>
        <pt x="270" y="902" on="0"/>
        <pt x="323" y="902" on="0"/>
        <pt x="351" y="897" on="1"/>
        <pt x="464" y="789" on="1"/>
        <pt x="458" y="771" on="0"/>
        <pt x="427" y="742" on="0"/>
      </contour>
    </TTGlyph>
    <TTGlyph name="Edieresis" xMin="84" yMin="-2" xMax="526" yMax="853">
      <contour>
        <pt x="210" y="163" on="1"/>
        <pt x="209" y="104" on="1"/>
        <pt x="251" y="106" on="0"/>
        <pt x="278" y="106" on="1"/>
        <pt x="526" y="106" on="1"/>
        <pt x="526" y="75" on="0"/>
        <pt x="524" y="59" on="1"/>
        <pt x="513" y="-2" on="0"/>
        <pt x="442" y="-2" on="1"/>
        <pt x="157" y="-2" on="1"/>
        <pt x="123" y="-2" on="0"/>
        <pt x="84" y="39" on="0"/>
        <pt x="84" y="75" on="1"/>
        <pt x="84" y="676" on="1"/>
        <pt x="91" y="683" on="1"/>
        <pt x="504" y="683" on="1"/>
        <pt x="509" y="659" on="0"/>
        <pt x="509" y="608" on="0"/>
        <pt x="499" y="576" on="1"/>
        <pt x="209" y="576" on="1"/>
        <pt x="210" y="508" on="1"/>
        <pt x="210" y="396" on="1"/>
        <pt x="234" y="397" on="0"/>
        <pt x="274" y="397" on="1"/>
        <pt x="448" y="397" on="1"/>
        <pt x="455" y="373" on="0"/>
        <pt x="455" y="316" on="0"/>
        <pt x="448" y="292" on="1"/>
        <pt x="274" y="292" on="1"/>
        <pt x="234" y="292" on="0"/>
        <pt x="210" y="293" on="1"/>
      </contour>
      <contour>
        <pt x="355" y="839" on="1"/>
        <pt x="378" y="853" on="0"/>
        <pt x="439" y="853" on="0"/>
        <pt x="462" y="839" on="1"/>
        <pt x="472" y="824" on="0"/>
        <pt x="472" y="764" on="0"/>
        <pt x="462" y="750" on="1"/>
        <pt x="442" y="736" on="0"/>
        <pt x="375" y="736" on="0"/>
        <pt x="355" y="750" on="1"/>
        <pt x="343" y="765" on="0"/>
        <pt x="343" y="823" on="0"/>
      </contour>
      <contour>
        <pt x="136" y="839" on="1"/>
        <pt x="157" y="853" on="0"/>
        <pt x="220" y="853" on="0"/>
        <pt x="243" y="839" on="1"/>
        <pt x="254" y="824" on="0"/>
        <pt x="254" y="763" on="0"/>
        <pt x="243" y="750" on="1"/>
        <pt x="223" y="736" on="0"/>
        <pt x="155" y="736" on="0"/>
        <pt x="136" y="750" on="1"/>
        <pt x="126" y="764" on="0"/>
        <pt x="126" y="824" on="0"/>
      </contour>
    </TTGlyph>
    <TTGlyph name="Egrave" xMin="84" yMin="-2" xMax="526" yMax="917">
      <contour>
        <pt x="210" y="163" on="1"/>
        <pt x="209" y="104" on="1"/>
        <pt x="251" y="106" on="0"/>
        <pt x="278" y="106" on="1"/>
        <pt x="526" y="106" on="1"/>
        <pt x="526" y="75" on="0"/>
        <pt x="524" y="59" on="1"/>
        <pt x="513" y="-2" on="0"/>
        <pt x="442" y="-2" on="1"/>
        <pt x="157" y="-2" on="1"/>
        <pt x="123" y="-2" on="0"/>
        <pt x="84" y="39" on="0"/>
        <pt x="84" y="75" on="1"/>
        <pt x="84" y="676" on="1"/>
        <pt x="91" y="683" on="1"/>
        <pt x="504" y="683" on="1"/>
        <pt x="509" y="659" on="0"/>
        <pt x="509" y="608" on="0"/>
        <pt x="499" y="576" on="1"/>
        <pt x="209" y="576" on="1"/>
        <pt x="210" y="508" on="1"/>
        <pt x="210" y="396" on="1"/>
        <pt x="234" y="397" on="0"/>
        <pt x="274" y="397" on="1"/>
        <pt x="448" y="397" on="1"/>
        <pt x="455" y="373" on="0"/>
        <pt x="455" y="316" on="0"/>
        <pt x="448" y="292" on="1"/>
        <pt x="274" y="292" on="1"/>
        <pt x="234" y="292" on="0"/>
        <pt x="210" y="293" on="1"/>
      </contour>
      <contour>
        <pt x="210" y="917" on="1"/>
        <pt x="421" y="790" on="1"/>
        <pt x="413" y="745" on="0"/>
        <pt x="385" y="728" on="1"/>
        <pt x="158" y="819" on="1"/>
        <pt x="161" y="846" on="0"/>
        <pt x="193" y="904" on="0"/>
      </contour>
    </TTGlyph>
    <TTGlyph name="Eogonek" xMin="84" yMin="-218" xMax="526" yMax="683">
      <contour>
        <pt x="210" y="163" on="1"/>
        <pt x="209" y="104" on="1"/>
        <pt x="251" y="106" on="0"/>
        <pt x="278" y="106" on="1"/>
        <pt x="526" y="106" on="1"/>
        <pt x="526" y="75" on="0"/>
        <pt x="524" y="59" on="1"/>
        <pt x="516" y="18" on="0"/>
        <pt x="482" y="5" on="1"/>
        <pt x="436" y="-15" on="0"/>
        <pt x="393" y="-69" on="0"/>
        <pt x="393" y="-116" on="0"/>
        <pt x="418" y="-138" on="0"/>
        <pt x="465" y="-138" on="0"/>
        <pt x="493" y="-122" on="1"/>
        <pt x="520" y="-145" on="0"/>
        <pt x="521" y="-180" on="1"/>
        <pt x="476" y="-218" on="0"/>
        <pt x="360" y="-218" on="0"/>
        <pt x="298" y="-166" on="0"/>
        <pt x="298" y="-121" on="1"/>
        <pt x="298" y="-52" on="0"/>
        <pt x="364" y="-2" on="1"/>
        <pt x="157" y="-2" on="1"/>
        <pt x="123" y="-2" on="0"/>
        <pt x="84" y="39" on="0"/>
        <pt x="84" y="75" on="1"/>
        <pt x="84" y="676" on="1"/>
        <pt x="91" y="683" on="1"/>
        <pt x="504" y="683" on="1"/>
        <pt x="509" y="659" on="0"/>
        <pt x="509" y="608" on="0"/>
        <pt x="499" y="576" on="1"/>
        <pt x="209" y="576" on="1"/>
        <pt x="210" y="508" on="1"/>
        <pt x="210" y="396" on="1"/>
        <pt x="234" y="397" on="0"/>
        <pt x="274" y="397" on="1"/>
        <pt x="448" y="397" on="1"/>
        <pt x="455" y="373" on="0"/>
        <pt x="455" y="316" on="0"/>
        <pt x="448" y="292" on="1"/>
        <pt x="274" y="292" on="1"/>
        <pt x="234" y="292" on="0"/>
        <pt x="210" y="293" on="1"/>
      </contour>
    </TTGlyph>
    <TTGlyph name="Eth" xMin="22" yMin="-5" xMax="625" yMax="688">
      <contour>
        <pt x="580" y="586" on="0"/>
        <pt x="625" y="442" on="0"/>
        <pt x="625" y="241" on="0"/>
        <pt x="580" y="96" on="0"/>
        <pt x="517" y="45" on="1"/>
        <pt x="487" y="20" on="0"/>
        <pt x="386" y="-5" on="0"/>
        <pt x="281" y="-5" on="0"/>
        <pt x="107" y="-1" on="1"/>
        <pt x="100" y="5" on="1"/>
        <pt x="100" y="294" on="1"/>
        <pt x="27" y="294" on="1"/>
        <pt x="22" y="314" on="0"/>
        <pt x="22" y="377" on="0"/>
        <pt x="27" y="398" on="1"/>
        <pt x="100" y="398" on="1"/>
        <pt x="100" y="678" on="1"/>
        <pt x="107" y="684" on="1"/>
        <pt x="223" y="688" on="0"/>
        <pt x="340" y="688" on="1"/>
        <pt x="385" y="688" on="0"/>
        <pt x="486" y="662" on="0"/>
        <pt x="517" y="637" on="1"/>
      </contour>
      <contour>
        <pt x="369" y="294" on="1"/>
        <pt x="225" y="294" on="1"/>
        <pt x="225" y="96" on="1"/>
        <pt x="339" y="96" on="1"/>
        <pt x="494" y="96" on="0"/>
        <pt x="494" y="342" on="1"/>
        <pt x="494" y="516" on="0"/>
        <pt x="420" y="566" on="1"/>
        <pt x="387" y="587" on="0"/>
        <pt x="267" y="587" on="0"/>
        <pt x="225" y="588" on="1"/>
        <pt x="225" y="398" on="1"/>
        <pt x="369" y="398" on="1"/>
        <pt x="374" y="370" on="0"/>
        <pt x="374" y="321" on="0"/>
      </contour>
    </TTGlyph>
    <TTGlyph name="Euro" xMin="15" yMin="-14" xMax="548" yMax="662">
      <contour>
        <pt x="494" y="503" on="1"/>
        <pt x="416" y="560" on="0"/>
        <pt x="346" y="560" on="1"/>
        <pt x="250" y="560" on="0"/>
        <pt x="226" y="440" on="1"/>
        <pt x="414" y="440" on="1"/>
        <pt x="418" y="419" on="0"/>
        <pt x="418" y="380" on="0"/>
        <pt x="414" y="360" on="1"/>
        <pt x="216" y="360" on="1"/>
        <pt x="216" y="286" on="1"/>
        <pt x="414" y="286" on="1"/>
        <pt x="418" y="265" on="0"/>
        <pt x="418" y="226" on="0"/>
        <pt x="414" y="206" on="1"/>
        <pt x="226" y="206" on="1"/>
        <pt x="250" y="88" on="0"/>
        <pt x="346" y="88" on="1"/>
        <pt x="416" y="88" on="0"/>
        <pt x="494" y="145" on="1"/>
        <pt x="539" y="119" on="0"/>
        <pt x="548" y="70" on="1"/>
        <pt x="448" y="-14" on="0"/>
        <pt x="329" y="-14" on="1"/>
        <pt x="140" y="-14" on="0"/>
        <pt x="100" y="206" on="1"/>
        <pt x="20" y="206" on="1"/>
        <pt x="15" y="225" on="0"/>
        <pt x="15" y="266" on="0"/>
        <pt x="20" y="286" on="1"/>
        <pt x="92" y="286" on="1"/>
        <pt x="91" y="298" on="0"/>
        <pt x="91" y="347" on="0"/>
        <pt x="92" y="360" on="1"/>
        <pt x="20" y="360" on="1"/>
        <pt x="15" y="379" on="0"/>
        <pt x="15" y="420" on="0"/>
        <pt x="20" y="440" on="1"/>
        <pt x="100" y="440" on="1"/>
        <pt x="138" y="662" on="0"/>
        <pt x="329" y="662" on="1"/>
        <pt x="448" y="662" on="0"/>
        <pt x="548" y="578" on="1"/>
        <pt x="544" y="557" on="0"/>
        <pt x="513" y="514" on="0"/>
      </contour>
    </TTGlyph>
    <TTGlyph name="Euro.smcp" xMin="12" yMin="-14" xMax="486" yMax="562">
      <contour>
        <pt x="435" y="424" on="1"/>
        <pt x="373" y="464" on="0"/>
        <pt x="312" y="464" on="1"/>
        <pt x="232" y="464" on="0"/>
        <pt x="209" y="376" on="1"/>
        <pt x="363" y="376" on="1"/>
        <pt x="368" y="357" on="0"/>
        <pt x="368" y="322" on="0"/>
        <pt x="363" y="303" on="1"/>
        <pt x="198" y="303" on="1"/>
        <pt x="198" y="245" on="1"/>
        <pt x="363" y="245" on="1"/>
        <pt x="368" y="226" on="0"/>
        <pt x="368" y="191" on="0"/>
        <pt x="363" y="172" on="1"/>
        <pt x="209" y="172" on="1"/>
        <pt x="232" y="84" on="0"/>
        <pt x="312" y="84" on="1"/>
        <pt x="373" y="84" on="0"/>
        <pt x="435" y="123" on="1"/>
        <pt x="455" y="113" on="0"/>
        <pt x="483" y="73" on="0"/>
        <pt x="486" y="52" on="1"/>
        <pt x="401" y="-14" on="0"/>
        <pt x="207" y="-14" on="0"/>
        <pt x="106" y="88" on="0"/>
        <pt x="89" y="172" on="1"/>
        <pt x="17" y="172" on="1"/>
        <pt x="12" y="191" on="0"/>
        <pt x="12" y="226" on="0"/>
        <pt x="17" y="245" on="1"/>
        <pt x="81" y="245" on="1"/>
        <pt x="80" y="254" on="0"/>
        <pt x="80" y="293" on="0"/>
        <pt x="81" y="303" on="1"/>
        <pt x="17" y="303" on="1"/>
        <pt x="12" y="322" on="0"/>
        <pt x="12" y="357" on="0"/>
        <pt x="17" y="376" on="1"/>
        <pt x="89" y="376" on="1"/>
        <pt x="125" y="562" on="0"/>
        <pt x="297" y="562" on="1"/>
        <pt x="400" y="562" on="0"/>
        <pt x="486" y="497" on="1"/>
        <pt x="483" y="476" on="0"/>
        <pt x="454" y="434" on="0"/>
      </contour>
    </TTGlyph>
    <TTGlyph name="F" xMin="85" yMin="-5" xMax="506" yMax="683">
      <contour>
        <pt x="211" y="575" on="1"/>
        <pt x="212" y="473" on="1"/>
        <pt x="212" y="395" on="1"/>
        <pt x="444" y="395" on="1"/>
        <pt x="450" y="371" on="0"/>
        <pt x="450" y="314" on="0"/>
        <pt x="444" y="290" on="1"/>
        <pt x="212" y="290" on="1"/>
        <pt x="212" y="0" on="1"/>
        <pt x="186" y="-5" on="0"/>
        <pt x="111" y="-5" on="0"/>
        <pt x="85" y="0" on="1"/>
        <pt x="85" y="677" on="1"/>
        <pt x="92" y="683" on="1"/>
        <pt x="500" y="683" on="1"/>
        <pt x="506" y="662" on="0"/>
        <pt x="506" y="633" on="1"/>
        <pt x="506" y="574" on="0"/>
        <pt x="436" y="574" on="1"/>
        <pt x="298" y="574" on="1"/>
        <pt x="237" y="574" on="0"/>
      </contour>
    </TTGlyph>
    <TTGlyph name="G" xMin="44" yMin="-14" xMax="589" yMax="697">
      <contour>
        <pt x="346" y="370" on="1"/>
        <pt x="501" y="371" on="1"/>
        <pt x="502" y="371" on="0"/>
        <pt x="503" y="371" on="1"/>
        <pt x="589" y="371" on="0"/>
        <pt x="589" y="290" on="1"/>
        <pt x="589" y="29" on="1"/>
        <pt x="472" y="-14" on="0"/>
        <pt x="188" y="-14" on="0"/>
        <pt x="44" y="179" on="0"/>
        <pt x="44" y="512" on="0"/>
        <pt x="223" y="697" on="0"/>
        <pt x="482" y="697" on="0"/>
        <pt x="587" y="624" on="1"/>
        <pt x="584" y="597" on="0"/>
        <pt x="549" y="545" on="0"/>
        <pt x="528" y="531" on="1"/>
        <pt x="444" y="590" on="0"/>
        <pt x="271" y="590" on="0"/>
        <pt x="175" y="467" on="0"/>
        <pt x="175" y="336" on="1"/>
        <pt x="175" y="89" on="0"/>
        <pt x="357" y="89" on="1"/>
        <pt x="410" y="89" on="0"/>
        <pt x="468" y="102" on="1"/>
        <pt x="468" y="197" on="1"/>
        <pt x="468" y="242" on="0"/>
        <pt x="470" y="263" on="1"/>
        <pt x="397" y="263" on="1"/>
        <pt x="366" y="263" on="0"/>
        <pt x="337" y="288" on="0"/>
        <pt x="337" y="343" on="0"/>
      </contour>
    </TTGlyph>
    <TTGlyph name="H" xMin="85" yMin="-5" xMax="594" yMax="688">
      <contour>
        <pt x="468" y="405" on="1"/>
        <pt x="467" y="479" on="1"/>
        <pt x="467" y="683" on="1"/>
        <pt x="492" y="688" on="0"/>
        <pt x="569" y="688" on="0"/>
        <pt x="594" y="683" on="1"/>
        <pt x="594" y="0" on="1"/>
        <pt x="568" y="-5" on="0"/>
        <pt x="492" y="-5" on="0"/>
        <pt x="467" y="0" on="1"/>
        <pt x="467" y="225" on="1"/>
        <pt x="468" y="299" on="1"/>
        <pt x="414" y="298" on="1"/>
        <pt x="265" y="298" on="1"/>
        <pt x="211" y="299" on="1"/>
        <pt x="212" y="225" on="1"/>
        <pt x="212" y="0" on="1"/>
        <pt x="187" y="-5" on="0"/>
        <pt x="109" y="-5" on="0"/>
        <pt x="85" y="0" on="1"/>
        <pt x="85" y="683" on="1"/>
        <pt x="109" y="688" on="0"/>
        <pt x="187" y="688" on="0"/>
        <pt x="212" y="683" on="1"/>
        <pt x="212" y="479" on="1"/>
        <pt x="211" y="405" on="1"/>
        <pt x="265" y="406" on="1"/>
        <pt x="414" y="406" on="1"/>
      </contour>
    </TTGlyph>
    <TTGlyph name="Hbar" xMin="15" yMin="-5" xMax="673" yMax="688">
      <contour>
        <pt x="216" y="298" on="1"/>
        <pt x="217" y="224" on="1"/>
        <pt x="217" y="0" on="1"/>
        <pt x="191" y="-5" on="0"/>
        <pt x="114" y="-5" on="0"/>
        <pt x="89" y="0" on="1"/>
        <pt x="89" y="492" on="1"/>
        <pt x="21" y="492" on="1"/>
        <pt x="15" y="511" on="0"/>
        <pt x="15" y="567" on="0"/>
        <pt x="21" y="587" on="1"/>
        <pt x="89" y="587" on="1"/>
        <pt x="89" y="683" on="1"/>
        <pt x="114" y="688" on="0"/>
        <pt x="191" y="688" on="0"/>
        <pt x="217" y="683" on="1"/>
        <pt x="217" y="587" on="1"/>
        <pt x="471" y="587" on="1"/>
        <pt x="471" y="683" on="1"/>
        <pt x="496" y="688" on="0"/>
        <pt x="574" y="688" on="0"/>
        <pt x="599" y="683" on="1"/>
        <pt x="599" y="587" on="1"/>
        <pt x="668" y="587" on="1"/>
        <pt x="673" y="566" on="0"/>
        <pt x="673" y="512" on="0"/>
        <pt x="668" y="492" on="1"/>
        <pt x="599" y="492" on="1"/>
        <pt x="599" y="0" on="1"/>
        <pt x="573" y="-5" on="0"/>
        <pt x="497" y="-5" on="0"/>
        <pt x="471" y="0" on="1"/>
        <pt x="471" y="224" on="1"/>
        <pt x="472" y="298" on="1"/>
        <pt x="418" y="297" on="1"/>
        <pt x="270" y="297" on="1"/>
      </contour>
      <contour>
        <pt x="216" y="402" on="1"/>
        <pt x="270" y="403" on="1"/>
        <pt x="418" y="403" on="1"/>
        <pt x="472" y="402" on="1"/>
        <pt x="471" y="478" on="1"/>
        <pt x="471" y="492" on="1"/>
        <pt x="217" y="492" on="1"/>
        <pt x="217" y="478" on="1"/>
      </contour>
    </TTGlyph>
    <TTGlyph name="I" xMin="88" yMin="-5" xMax="215" yMax="688">
      <contour>
        <pt x="88" y="0" on="1"/>
        <pt x="88" y="683" on="1"/>
        <pt x="112" y="688" on="0"/>
        <pt x="190" y="688" on="0"/>
        <pt x="215" y="683" on="1"/>
        <pt x="215" y="0" on="1"/>
        <pt x="190" y="-5" on="0"/>
        <pt x="112" y="-5" on="0"/>
      </contour>
    </TTGlyph>
    <TTGlyph name="IJ" xMin="88" yMin="-11" xMax="682" yMax="688">
      <contour>
        <pt x="88" y="0" on="1"/>
        <pt x="88" y="683" on="1"/>
        <pt x="112" y="688" on="0"/>
        <pt x="190" y="688" on="0"/>
        <pt x="215" y="683" on="1"/>
        <pt x="215" y="0" on="1"/>
        <pt x="190" y="-5" on="0"/>
        <pt x="112" y="-5" on="0"/>
      </contour>
      <contour>
        <pt x="354" y="128" on="1"/>
        <pt x="406" y="96" on="0"/>
        <pt x="510" y="96" on="0"/>
        <pt x="554" y="164" on="0"/>
        <pt x="554" y="239" on="1"/>
        <pt x="554" y="683" on="1"/>
        <pt x="579" y="688" on="0"/>
        <pt x="657" y="688" on="0"/>
        <pt x="682" y="683" on="1"/>
        <pt x="682" y="254" on="1"/>
        <pt x="682" y="97" on="0"/>
        <pt x="620" y="39" on="1"/>
        <pt x="568" y="-10" on="0"/>
        <pt x="377" y="-10" on="0"/>
        <pt x="308" y="33" on="1"/>
        <pt x="318" y="89" on="0"/>
      </contour>
    </TTGlyph>
    <TTGlyph name="Iacute" xMin="42" yMin="-5" xMax="305" yMax="918">
      <contour>
        <pt x="88" y="0" on="1"/>
        <pt x="88" y="683" on="1"/>
        <pt x="112" y="688" on="0"/>
        <pt x="190" y="688" on="0"/>
        <pt x="215" y="683" on="1"/>
        <pt x="215" y="0" on="1"/>
        <pt x="190" y="-5" on="0"/>
        <pt x="112" y="-5" on="0"/>
      </contour>
      <contour>
        <pt x="42" y="791" on="1"/>
        <pt x="253" y="918" on="1"/>
        <pt x="270" y="905" on="0"/>
        <pt x="302" y="847" on="0"/>
        <pt x="305" y="820" on="1"/>
        <pt x="78" y="729" on="1"/>
        <pt x="64" y="737" on="0"/>
        <pt x="44" y="773" on="0"/>
      </contour>
    </TTGlyph>
    <TTGlyph name="Icircumflex" xMin="-18" yMin="-5" xMax="317" yMax="903">
      <contour>
        <pt x="88" y="0" on="1"/>
        <pt x="88" y="683" on="1"/>
        <pt x="112" y="688" on="0"/>
        <pt x="190" y="688" on="0"/>
        <pt x="215" y="683" on="1"/>
        <pt x="215" y="0" on="1"/>
        <pt x="190" y="-5" on="0"/>
        <pt x="112" y="-5" on="0"/>
      </contour>
      <contour>
        <pt x="265" y="737" on="1"/>
        <pt x="151" y="812" on="1"/>
        <pt x="34" y="728" on="1"/>
        <pt x="19" y="733" on="0"/>
        <pt x="-14" y="765" on="0"/>
        <pt x="-18" y="781" on="1"/>
        <pt x="97" y="897" on="1"/>
        <pt x="123" y="903" on="0"/>
        <pt x="176" y="903" on="0"/>
        <pt x="204" y="898" on="1"/>
        <pt x="317" y="790" on="1"/>
        <pt x="311" y="772" on="0"/>
        <pt x="280" y="743" on="0"/>
      </contour>
    </TTGlyph>
    <TTGlyph name="Idieresis" xMin="-21" yMin="-5" xMax="325" yMax="854">
      <contour>
        <pt x="88" y="0" on="1"/>
        <pt x="88" y="683" on="1"/>
        <pt x="112" y="688" on="0"/>
        <pt x="190" y="688" on="0"/>
        <pt x="215" y="683" on="1"/>
        <pt x="215" y="0" on="1"/>
        <pt x="190" y="-5" on="0"/>
        <pt x="112" y="-5" on="0"/>
      </contour>
      <contour>
        <pt x="208" y="840" on="1"/>
        <pt x="231" y="854" on="0"/>
        <pt x="292" y="854" on="0"/>
        <pt x="315" y="840" on="1"/>
        <pt x="325" y="825" on="0"/>
        <pt x="325" y="765" on="0"/>
        <pt x="315" y="751" on="1"/>
        <pt x="295" y="737" on="0"/>
        <pt x="228" y="737" on="0"/>
        <pt x="208" y="751" on="1"/>
        <pt x="196" y="766" on="0"/>
        <pt x="196" y="824" on="0"/>
      </contour>
      <contour>
        <pt x="-11" y="840" on="1"/>
        <pt x="10" y="854" on="0"/>
        <pt x="73" y="854" on="0"/>
        <pt x="96" y="840" on="1"/>
        <pt x="107" y="825" on="0"/>
        <pt x="107" y="764" on="0"/>
        <pt x="96" y="751" on="1"/>
        <pt x="76" y="737" on="0"/>
        <pt x="8" y="737" on="0"/>
        <pt x="-11" y="751" on="1"/>
        <pt x="-21" y="765" on="0"/>
        <pt x="-21" y="825" on="0"/>
      </contour>
    </TTGlyph>
    <TTGlyph name="Igrave" xMin="11" yMin="-5" xMax="274" yMax="918">
      <contour>
        <pt x="88" y="0" on="1"/>
        <pt x="88" y="683" on="1"/>
        <pt x="112" y="688" on="0"/>
        <pt x="190" y="688" on="0"/>
        <pt x="215" y="683" on="1"/>
        <pt x="215" y="0" on="1"/>
        <pt x="190" y="-5" on="0"/>
        <pt x="112" y="-5" on="0"/>
      </contour>
      <contour>
        <pt x="63" y="918" on="1"/>
        <pt x="274" y="791" on="1"/>
        <pt x="266" y="746" on="0"/>
        <pt x="238" y="729" on="1"/>
        <pt x="11" y="820" on="1"/>
        <pt x="14" y="847" on="0"/>
        <pt x="46" y="905" on="0"/>
      </contour>
    </TTGlyph>
    <TTGlyph name="Itilde" xMin="-36" yMin="-5" xMax="340" yMax="890">
      <contour>
        <pt x="88" y="0" on="1"/>
        <pt x="88" y="683" on="1"/>
        <pt x="112" y="688" on="0"/>
        <pt x="190" y="688" on="0"/>
        <pt x="215" y="683" on="1"/>
        <pt x="215" y="0" on="1"/>
        <pt x="190" y="-5" on="0"/>
        <pt x="112" y="-5" on="0"/>
      </contour>
      <contour>
        <pt x="159" y="758" on="1"/>
        <pt x="107" y="783" on="1"/>
        <pt x="91" y="792" on="0"/>
        <pt x="54" y="792" on="0"/>
        <pt x="36" y="768" on="1"/>
        <pt x="26" y="754" on="1"/>
        <pt x="7" y="755" on="0"/>
        <pt x="-30" y="776" on="0"/>
        <pt x="-36" y="792" on="1"/>
        <pt x="-28" y="811" on="1"/>
        <pt x="-11" y="847" on="0"/>
        <pt x="47" y="890" on="0"/>
        <pt x="113" y="890" on="0"/>
        <pt x="145" y="873" on="1"/>
        <pt x="197" y="848" on="1"/>
        <pt x="215" y="839" on="0"/>
        <pt x="249" y="839" on="0"/>
        <pt x="268" y="864" on="1"/>
        <pt x="278" y="878" on="1"/>
        <pt x="297" y="877" on="0"/>
        <pt x="333" y="855" on="0"/>
        <pt x="340" y="840" on="1"/>
        <pt x="332" y="821" on="1"/>
        <pt x="295" y="742" on="0"/>
        <pt x="221" y="742" on="1"/>
        <pt x="191" y="742" on="0"/>
      </contour>
    </TTGlyph>
    <TTGlyph name="J" xMin="10" yMin="-11" xMax="384" yMax="688">
      <contour>
        <pt x="56" y="128" on="1"/>
        <pt x="108" y="96" on="0"/>
        <pt x="212" y="96" on="0"/>
        <pt x="256" y="164" on="0"/>
        <pt x="256" y="239" on="1"/>
        <pt x="256" y="683" on="1"/>
        <pt x="281" y="688" on="0"/>
        <pt x="359" y="688" on="0"/>
        <pt x="384" y="683" on="1"/>
        <pt x="384" y="254" on="1"/>
        <pt x="384" y="97" on="0"/>
        <pt x="322" y="39" on="1"/>
        <pt x="270" y="-10" on="0"/>
        <pt x="79" y="-10" on="0"/>
        <pt x="10" y="33" on="1"/>
        <pt x="20" y="89" on="0"/>
      </contour>
    </TTGlyph>
    <TTGlyph name="Jcircumflex" xMin="10" yMin="-11" xMax="486" yMax="902">
      <contour>
        <pt x="56" y="128" on="1"/>
        <pt x="108" y="96" on="0"/>
        <pt x="212" y="96" on="0"/>
        <pt x="256" y="164" on="0"/>
        <pt x="256" y="239" on="1"/>
        <pt x="256" y="683" on="1"/>
        <pt x="281" y="688" on="0"/>
        <pt x="359" y="688" on="0"/>
        <pt x="384" y="683" on="1"/>
        <pt x="384" y="254" on="1"/>
        <pt x="384" y="97" on="0"/>
        <pt x="322" y="39" on="1"/>
        <pt x="270" y="-10" on="0"/>
        <pt x="79" y="-10" on="0"/>
        <pt x="10" y="33" on="1"/>
        <pt x="20" y="89" on="0"/>
      </contour>
      <contour>
        <pt x="434" y="736" on="1"/>
        <pt x="320" y="811" on="1"/>
        <pt x="203" y="727" on="1"/>
        <pt x="188" y="732" on="0"/>
        <pt x="155" y="764" on="0"/>
        <pt x="151" y="780" on="1"/>
        <pt x="266" y="896" on="1"/>
        <pt x="292" y="902" on="0"/>
        <pt x="345" y="902" on="0"/>
        <pt x="373" y="897" on="1"/>
        <pt x="486" y="789" on="1"/>
        <pt x="480" y="771" on="0"/>
        <pt x="449" y="742" on="0"/>
      </contour>
    </TTGlyph>
    <TTGlyph name="K" xMin="85" yMin="-7" xMax="593" yMax="688">
      <contour>
        <pt x="593" y="32" on="1"/>
        <pt x="566" y="-7" on="0"/>
        <pt x="508" y="-7" on="1"/>
        <pt x="474" y="-7" on="0"/>
        <pt x="441" y="27" on="0"/>
        <pt x="427" y="68" on="1"/>
        <pt x="380" y="203" on="1"/>
        <pt x="361" y="256" on="0"/>
        <pt x="312" y="299" on="0"/>
        <pt x="271" y="299" on="1"/>
        <pt x="262" y="299" on="0"/>
        <pt x="212" y="297" on="1"/>
        <pt x="212" y="0" on="1"/>
        <pt x="187" y="-5" on="0"/>
        <pt x="109" y="-5" on="0"/>
        <pt x="85" y="0" on="1"/>
        <pt x="85" y="683" on="1"/>
        <pt x="109" y="688" on="0"/>
        <pt x="187" y="688" on="0"/>
        <pt x="212" y="683" on="1"/>
        <pt x="212" y="406" on="1"/>
        <pt x="256" y="407" on="1"/>
        <pt x="272" y="407" on="0"/>
        <pt x="288" y="419" on="0"/>
        <pt x="297" y="437" on="1"/>
        <pt x="413" y="639" on="1"/>
        <pt x="427" y="665" on="0"/>
        <pt x="456" y="687" on="0"/>
        <pt x="520" y="687" on="0"/>
        <pt x="558" y="684" on="1"/>
        <pt x="566" y="674" on="1"/>
        <pt x="426" y="428" on="1"/>
        <pt x="407" y="393" on="0"/>
        <pt x="380" y="369" on="1"/>
        <pt x="427" y="360" on="0"/>
        <pt x="478" y="302" on="0"/>
        <pt x="497" y="250" on="1"/>
        <pt x="546" y="113" on="1"/>
        <pt x="566" y="56" on="0"/>
      </contour>
    </TTGlyph>
    <TTGlyph name="Kcommaaccent" xMin="85" yMin="-274" xMax="593" yMax="688">
      <contour>
        <pt x="593" y="32" on="1"/>
        <pt x="566" y="-7" on="0"/>
        <pt x="508" y="-7" on="1"/>
        <pt x="474" y="-7" on="0"/>
        <pt x="441" y="27" on="0"/>
        <pt x="427" y="68" on="1"/>
        <pt x="380" y="203" on="1"/>
        <pt x="361" y="256" on="0"/>
        <pt x="312" y="299" on="0"/>
        <pt x="271" y="299" on="1"/>
        <pt x="262" y="299" on="0"/>
        <pt x="212" y="297" on="1"/>
        <pt x="212" y="0" on="1"/>
        <pt x="187" y="-5" on="0"/>
        <pt x="109" y="-5" on="0"/>
        <pt x="85" y="0" on="1"/>
        <pt x="85" y="683" on="1"/>
        <pt x="109" y="688" on="0"/>
        <pt x="187" y="688" on="0"/>
        <pt x="212" y="683" on="1"/>
        <pt x="212" y="406" on="1"/>
        <pt x="256" y="407" on="1"/>
        <pt x="272" y="407" on="0"/>
        <pt x="288" y="419" on="0"/>
        <pt x="297" y="437" on="1"/>
        <pt x="413" y="639" on="1"/>
        <pt x="427" y="665" on="0"/>
        <pt x="456" y="687" on="0"/>
        <pt x="520" y="687" on="0"/>
        <pt x="558" y="684" on="1"/>
        <pt x="566" y="674" on="1"/>
        <pt x="426" y="428" on="1"/>
        <pt x="407" y="393" on="0"/>
        <pt x="380" y="369" on="1"/>
        <pt x="427" y="360" on="0"/>
        <pt x="478" y="302" on="0"/>
        <pt x="497" y="250" on="1"/>
        <pt x="546" y="113" on="1"/>
        <pt x="566" y="56" on="0"/>
      </contour>
      <contour>
        <pt x="267" y="-73" on="1"/>
        <pt x="296" y="-52" on="0"/>
        <pt x="362" y="-52" on="0"/>
        <pt x="381" y="-59" on="1"/>
        <pt x="391" y="-79" on="0"/>
        <pt x="391" y="-114" on="1"/>
        <pt x="391" y="-168" on="0"/>
        <pt x="319" y="-253" on="0"/>
        <pt x="256" y="-274" on="1"/>
        <pt x="224" y="-264" on="0"/>
        <pt x="217" y="-223" on="1"/>
        <pt x="280" y="-184" on="0"/>
        <pt x="280" y="-125" on="1"/>
        <pt x="280" y="-97" on="0"/>
      </contour>
    </TTGlyph>
    <TTGlyph name="L" xMin="84" yMin="-2" xMax="491" yMax="688">
      <contour>
        <pt x="302" y="108" on="1"/>
        <pt x="491" y="108" on="1"/>
        <pt x="491" y="75" on="0"/>
        <pt x="488" y="60" on="1"/>
        <pt x="477" y="-2" on="0"/>
        <pt x="405" y="-2" on="1"/>
        <pt x="158" y="-2" on="1"/>
        <pt x="124" y="-2" on="0"/>
        <pt x="84" y="39" on="0"/>
        <pt x="84" y="75" on="1"/>
        <pt x="84" y="682" on="1"/>
        <pt x="91" y="688" on="1"/>
        <pt x="138" y="688" on="1"/>
        <pt x="176" y="688" on="0"/>
        <pt x="212" y="650" on="0"/>
        <pt x="212" y="607" on="1"/>
        <pt x="212" y="105" on="1"/>
        <pt x="260" y="108" on="0"/>
      </contour>
    </TTGlyph>
    <TTGlyph name="Ldot" xMin="84" yMin="-2" xMax="491" yMax="688">
      <contour>
        <pt x="302" y="108" on="1"/>
        <pt x="491" y="108" on="1"/>
        <pt x="491" y="75" on="0"/>
        <pt x="488" y="60" on="1"/>
        <pt x="477" y="-2" on="0"/>
        <pt x="405" y="-2" on="1"/>
        <pt x="158" y="-2" on="1"/>
        <pt x="124" y="-2" on="0"/>
        <pt x="84" y="39" on="0"/>
        <pt x="84" y="75" on="1"/>
        <pt x="84" y="682" on="1"/>
        <pt x="91" y="688" on="1"/>
        <pt x="138" y="688" on="1"/>
        <pt x="176" y="688" on="0"/>
        <pt x="212" y="650" on="0"/>
        <pt x="212" y="607" on="1"/>
        <pt x="212" y="105" on="1"/>
        <pt x="260" y="108" on="0"/>
      </contour>
      <contour>
        <pt x="345" y="306" on="1"/>
        <pt x="336" y="326" on="0"/>
        <pt x="336" y="387" on="0"/>
        <pt x="345" y="409" on="1"/>
        <pt x="370" y="423" on="0"/>
        <pt x="438" y="423" on="0"/>
        <pt x="461" y="409" on="1"/>
        <pt x="469" y="389" on="0"/>
        <pt x="469" y="323" on="0"/>
        <pt x="461" y="306" on="1"/>
        <pt x="442" y="291" on="0"/>
        <pt x="366" y="291" on="0"/>
      </contour>
    </TTGlyph>
    <TTGlyph name="Lslash" xMin="6" yMin="-2" xMax="500" yMax="688">
      <contour>
        <pt x="220" y="607" on="1"/>
        <pt x="220" y="417" on="1"/>
        <pt x="387" y="475" on="1"/>
        <pt x="396" y="470" on="1"/>
        <pt x="404" y="448" on="0"/>
        <pt x="404" y="400" on="0"/>
        <pt x="399" y="375" on="1"/>
        <pt x="220" y="316" on="1"/>
        <pt x="220" y="105" on="1"/>
        <pt x="268" y="108" on="0"/>
        <pt x="310" y="108" on="1"/>
        <pt x="500" y="108" on="1"/>
        <pt x="500" y="80" on="0"/>
        <pt x="496" y="60" on="1"/>
        <pt x="485" y="-2" on="0"/>
        <pt x="413" y="-2" on="1"/>
        <pt x="166" y="-2" on="1"/>
        <pt x="132" y="-2" on="0"/>
        <pt x="92" y="39" on="0"/>
        <pt x="92" y="75" on="1"/>
        <pt x="92" y="276" on="1"/>
        <pt x="23" y="252" on="1"/>
        <pt x="14" y="257" on="1"/>
        <pt x="7" y="278" on="0"/>
        <pt x="7" y="326" on="0"/>
        <pt x="12" y="352" on="1"/>
        <pt x="92" y="379" on="1"/>
        <pt x="92" y="682" on="1"/>
        <pt x="99" y="688" on="1"/>
        <pt x="147" y="688" on="1"/>
        <pt x="185" y="688" on="0"/>
        <pt x="220" y="649" on="0"/>
      </contour>
    </TTGlyph>
    <TTGlyph name="M" xMin="66" yMin="-5" xMax="751" yMax="688">
      <contour>
        <pt x="66" y="2" on="1"/>
        <pt x="119" y="682" on="1"/>
        <pt x="153" y="688" on="0"/>
        <pt x="254" y="688" on="0"/>
        <pt x="286" y="682" on="1"/>
        <pt x="367" y="396" on="1"/>
        <pt x="394" y="301" on="0"/>
        <pt x="406" y="228" on="1"/>
        <pt x="412" y="228" on="1"/>
        <pt x="424" y="301" on="0"/>
        <pt x="451" y="396" on="1"/>
        <pt x="532" y="682" on="1"/>
        <pt x="566" y="688" on="0"/>
        <pt x="664" y="688" on="0"/>
        <pt x="698" y="682" on="1"/>
        <pt x="751" y="2" on="1"/>
        <pt x="726" y="-5" on="0"/>
        <pt x="655" y="-5" on="0"/>
        <pt x="630" y="-1" on="1"/>
        <pt x="610" y="331" on="1"/>
        <pt x="604" y="423" on="0"/>
        <pt x="602" y="545" on="1"/>
        <pt x="596" y="545" on="1"/>
        <pt x="474" y="103" on="1"/>
        <pt x="442" y="98" on="0"/>
        <pt x="374" y="98" on="0"/>
        <pt x="344" y="103" on="1"/>
        <pt x="222" y="545" on="1"/>
        <pt x="216" y="545" on="1"/>
        <pt x="211" y="396" on="0"/>
        <pt x="208" y="331" on="1"/>
        <pt x="187" y="-1" on="1"/>
        <pt x="163" y="-5" on="0"/>
        <pt x="91" y="-5" on="0"/>
      </contour>
    </TTGlyph>
    <TTGlyph name="N" xMin="85" yMin="-5" xMax="601" yMax="688">
      <contour>
        <pt x="595" y="688" on="1"/>
        <pt x="601" y="682" on="1"/>
        <pt x="601" y="2" on="1"/>
        <pt x="573" y="-5" on="0"/>
        <pt x="483" y="-5" on="0"/>
        <pt x="449" y="0" on="1"/>
        <pt x="258" y="396" on="1"/>
        <pt x="233" y="447" on="0"/>
        <pt x="197" y="535" on="1"/>
        <pt x="193" y="534" on="1"/>
        <pt x="203" y="409" on="0"/>
        <pt x="203" y="268" on="1"/>
        <pt x="203" y="0" on="1"/>
        <pt x="177" y="-5" on="0"/>
        <pt x="110" y="-5" on="0"/>
        <pt x="85" y="0" on="1"/>
        <pt x="85" y="681" on="1"/>
        <pt x="113" y="688" on="0"/>
        <pt x="202" y="688" on="0"/>
        <pt x="235" y="683" on="1"/>
        <pt x="424" y="288" on="1"/>
        <pt x="450" y="234" on="0"/>
        <pt x="490" y="141" on="1"/>
        <pt x="493" y="142" on="1"/>
        <pt x="483" y="284" on="0"/>
        <pt x="483" y="410" on="1"/>
        <pt x="483" y="610" on="1"/>
        <pt x="483" y="652" on="0"/>
        <pt x="515" y="688" on="0"/>
        <pt x="553" y="688" on="1"/>
      </contour>
    </TTGlyph>
    <TTGlyph name="Nacute" xMin="85" yMin="-5" xMax="601" yMax="917">
      <contour>
        <pt x="595" y="688" on="1"/>
        <pt x="601" y="682" on="1"/>
        <pt x="601" y="2" on="1"/>
        <pt x="573" y="-5" on="0"/>
        <pt x="483" y="-5" on="0"/>
        <pt x="449" y="0" on="1"/>
        <pt x="258" y="396" on="1"/>
        <pt x="233" y="447" on="0"/>
        <pt x="197" y="535" on="1"/>
        <pt x="193" y="534" on="1"/>
        <pt x="203" y="409" on="0"/>
        <pt x="203" y="268" on="1"/>
        <pt x="203" y="0" on="1"/>
        <pt x="177" y="-5" on="0"/>
        <pt x="110" y="-5" on="0"/>
        <pt x="85" y="0" on="1"/>
        <pt x="85" y="681" on="1"/>
        <pt x="113" y="688" on="0"/>
        <pt x="202" y="688" on="0"/>
        <pt x="235" y="683" on="1"/>
        <pt x="424" y="288" on="1"/>
        <pt x="450" y="234" on="0"/>
        <pt x="490" y="141" on="1"/>
        <pt x="493" y="142" on="1"/>
        <pt x="483" y="284" on="0"/>
        <pt x="483" y="410" on="1"/>
        <pt x="483" y="610" on="1"/>
        <pt x="483" y="652" on="0"/>
        <pt x="515" y="688" on="0"/>
        <pt x="553" y="688" on="1"/>
      </contour>
      <contour>
        <pt x="236" y="790" on="1"/>
        <pt x="447" y="917" on="1"/>
        <pt x="464" y="904" on="0"/>
        <pt x="496" y="846" on="0"/>
        <pt x="499" y="819" on="1"/>
        <pt x="272" y="728" on="1"/>
        <pt x="258" y="736" on="0"/>
        <pt x="238" y="772" on="0"/>
      </contour>
    </TTGlyph>
    <TTGlyph name="Ncaron" xMin="85" yMin="-5" xMax="601" yMax="912">
      <contour>
        <pt x="595" y="688" on="1"/>
        <pt x="601" y="682" on="1"/>
        <pt x="601" y="2" on="1"/>
        <pt x="573" y="-5" on="0"/>
        <pt x="483" y="-5" on="0"/>
        <pt x="449" y="0" on="1"/>
        <pt x="258" y="396" on="1"/>
        <pt x="233" y="447" on="0"/>
        <pt x="197" y="535" on="1"/>
        <pt x="193" y="534" on="1"/>
        <pt x="203" y="409" on="0"/>
        <pt x="203" y="268" on="1"/>
        <pt x="203" y="0" on="1"/>
        <pt x="177" y="-5" on="0"/>
        <pt x="110" y="-5" on="0"/>
        <pt x="85" y="0" on="1"/>
        <pt x="85" y="681" on="1"/>
        <pt x="113" y="688" on="0"/>
        <pt x="202" y="688" on="0"/>
        <pt x="235" y="683" on="1"/>
        <pt x="424" y="288" on="1"/>
        <pt x="450" y="234" on="0"/>
        <pt x="490" y="141" on="1"/>
        <pt x="493" y="142" on="1"/>
        <pt x="483" y="284" on="0"/>
        <pt x="483" y="410" on="1"/>
        <pt x="483" y="610" on="1"/>
        <pt x="483" y="652" on="0"/>
        <pt x="515" y="688" on="0"/>
        <pt x="553" y="688" on="1"/>
      </contour>
      <contour>
        <pt x="228" y="903" on="1"/>
        <pt x="343" y="828" on="1"/>
        <pt x="460" y="912" on="1"/>
        <pt x="475" y="907" on="0"/>
        <pt x="509" y="877" on="0"/>
        <pt x="513" y="860" on="1"/>
        <pt x="396" y="743" on="1"/>
        <pt x="371" y="737" on="0"/>
        <pt x="317" y="737" on="0"/>
        <pt x="289" y="742" on="1"/>
        <pt x="177" y="850" on="1"/>
        <pt x="182" y="868" on="0"/>
        <pt x="213" y="897" on="0"/>
      </contour>
    </TTGlyph>
    <TTGlyph name="Ntilde" xMin="85" yMin="-5" xMax="601" yMax="889">
      <contour>
        <pt x="595" y="688" on="1"/>
        <pt x="601" y="682" on="1"/>
        <pt x="601" y="2" on="1"/>
        <pt x="573" y="-5" on="0"/>
        <pt x="483" y="-5" on="0"/>
        <pt x="449" y="0" on="1"/>
        <pt x="258" y="396" on="1"/>
        <pt x="233" y="447" on="0"/>
        <pt x="197" y="535" on="1"/>
        <pt x="193" y="534" on="1"/>
        <pt x="203" y="409" on="0"/>
        <pt x="203" y="268" on="1"/>
        <pt x="203" y="0" on="1"/>
        <pt x="177" y="-5" on="0"/>
        <pt x="110" y="-5" on="0"/>
        <pt x="85" y="0" on="1"/>
        <pt x="85" y="681" on="1"/>
        <pt x="113" y="688" on="0"/>
        <pt x="202" y="688" on="0"/>
        <pt x="235" y="683" on="1"/>
        <pt x="424" y="288" on="1"/>
        <pt x="450" y="234" on="0"/>
        <pt x="490" y="141" on="1"/>
        <pt x="493" y="142" on="1"/>
        <pt x="483" y="284" on="0"/>
        <pt x="483" y="410" on="1"/>
        <pt x="483" y="610" on="1"/>
        <pt x="483" y="652" on="0"/>
        <pt x="515" y="688" on="0"/>
        <pt x="553" y="688" on="1"/>
      </contour>
      <contour>
        <pt x="353" y="757" on="1"/>
        <pt x="301" y="782" on="1"/>
        <pt x="285" y="791" on="0"/>
        <pt x="248" y="791" on="0"/>
        <pt x="230" y="767" on="1"/>
        <pt x="220" y="753" on="1"/>
        <pt x="201" y="754" on="0"/>
        <pt x="164" y="775" on="0"/>
        <pt x="158" y="791" on="1"/>
        <pt x="166" y="810" on="1"/>
        <pt x="183" y="846" on="0"/>
        <pt x="241" y="889" on="0"/>
        <pt x="307" y="889" on="0"/>
        <pt x="339" y="872" on="1"/>
        <pt x="391" y="847" on="1"/>
        <pt x="409" y="838" on="0"/>
        <pt x="443" y="838" on="0"/>
        <pt x="462" y="863" on="1"/>
        <pt x="472" y="877" on="1"/>
        <pt x="491" y="876" on="0"/>
        <pt x="527" y="854" on="0"/>
        <pt x="534" y="839" on="1"/>
        <pt x="526" y="820" on="1"/>
        <pt x="489" y="741" on="0"/>
        <pt x="415" y="741" on="1"/>
        <pt x="385" y="741" on="0"/>
      </contour>
    </TTGlyph>
    <TTGlyph name="O" xMin="44" yMin="-14" xMax="617" yMax="697">
      <contour>
        <pt x="177" y="597" on="0"/>
        <pt x="177" y="86" on="0"/>
        <pt x="484" y="86" on="0"/>
        <pt x="484" y="597" on="0"/>
      </contour>
      <contour>
        <pt x="151" y="47" on="1"/>
        <pt x="44" y="138" on="0"/>
        <pt x="44" y="545" on="0"/>
        <pt x="151" y="636" on="1"/>
        <pt x="224" y="697" on="0"/>
        <pt x="436" y="697" on="0"/>
        <pt x="511" y="636" on="1"/>
        <pt x="617" y="545" on="0"/>
        <pt x="617" y="138" on="0"/>
        <pt x="511" y="47" on="1"/>
        <pt x="436" y="-14" on="0"/>
        <pt x="224" y="-14" on="0"/>
      </contour>
    </TTGlyph>
    <TTGlyph name="OE" xMin="44" yMin="-14" xMax="868" yMax="697">
      <contour>
        <pt x="551" y="163" on="1"/>
        <pt x="550" y="104" on="1"/>
        <pt x="592" y="106" on="0"/>
        <pt x="620" y="106" on="1"/>
        <pt x="868" y="106" on="1"/>
        <pt x="868" y="75" on="0"/>
        <pt x="865" y="60" on="1"/>
        <pt x="856" y="-1" on="0"/>
        <pt x="784" y="-1" on="1"/>
        <pt x="468" y="-1" on="1"/>
        <pt x="381" y="-14" on="0"/>
        <pt x="332" y="-14" on="1"/>
        <pt x="225" y="-14" on="0"/>
        <pt x="152" y="47" on="1"/>
        <pt x="44" y="139" on="0"/>
        <pt x="44" y="544" on="0"/>
        <pt x="152" y="636" on="1"/>
        <pt x="225" y="697" on="0"/>
        <pt x="332" y="697" on="1"/>
        <pt x="371" y="697" on="0"/>
        <pt x="467" y="683" on="1"/>
        <pt x="846" y="683" on="1"/>
        <pt x="851" y="659" on="0"/>
        <pt x="851" y="606" on="0"/>
        <pt x="840" y="576" on="1"/>
        <pt x="550" y="576" on="1"/>
        <pt x="551" y="508" on="1"/>
        <pt x="551" y="396" on="1"/>
        <pt x="575" y="397" on="0"/>
        <pt x="616" y="397" on="1"/>
        <pt x="790" y="397" on="1"/>
        <pt x="797" y="373" on="0"/>
        <pt x="797" y="316" on="0"/>
        <pt x="790" y="292" on="1"/>
        <pt x="616" y="292" on="1"/>
        <pt x="575" y="292" on="0"/>
        <pt x="551" y="293" on="1"/>
      </contour>
      <contour>
        <pt x="332" y="86" on="1"/>
        <pt x="374" y="86" on="0"/>
        <pt x="428" y="100" on="1"/>
        <pt x="428" y="583" on="1"/>
        <pt x="374" y="597" on="0"/>
        <pt x="332" y="597" on="1"/>
        <pt x="176" y="597" on="0"/>
        <pt x="176" y="86" on="0"/>
      </contour>
    </TTGlyph>
    <TTGlyph name="Oacute" xMin="44" yMin="-14" xMax="617" yMax="917">
      <contour>
        <pt x="177" y="597" on="0"/>
        <pt x="177" y="86" on="0"/>
        <pt x="484" y="86" on="0"/>
        <pt x="484" y="597" on="0"/>
      </contour>
      <contour>
        <pt x="151" y="47" on="1"/>
        <pt x="44" y="138" on="0"/>
        <pt x="44" y="545" on="0"/>
        <pt x="151" y="636" on="1"/>
        <pt x="224" y="697" on="0"/>
        <pt x="436" y="697" on="0"/>
        <pt x="511" y="636" on="1"/>
        <pt x="617" y="545" on="0"/>
        <pt x="617" y="138" on="0"/>
        <pt x="511" y="47" on="1"/>
        <pt x="436" y="-14" on="0"/>
        <pt x="224" y="-14" on="0"/>
      </contour>
      <contour>
        <pt x="221" y="790" on="1"/>
        <pt x="432" y="917" on="1"/>
        <pt x="449" y="904" on="0"/>
        <pt x="481" y="846" on="0"/>
        <pt x="484" y="819" on="1"/>
        <pt x="257" y="728" on="1"/>
        <pt x="243" y="736" on="0"/>
        <pt x="223" y="772" on="0"/>
      </contour>
    </TTGlyph>
    <TTGlyph name="Ocircumflex" xMin="44" yMin="-14" xMax="617" yMax="902">
      <contour>
        <pt x="177" y="597" on="0"/>
        <pt x="177" y="86" on="0"/>
        <pt x="484" y="86" on="0"/>
        <pt x="484" y="597" on="0"/>
      </contour>
      <contour>
        <pt x="151" y="47" on="1"/>
        <pt x="44" y="138" on="0"/>
        <pt x="44" y="545" on="0"/>
        <pt x="151" y="636" on="1"/>
        <pt x="224" y="697" on="0"/>
        <pt x="436" y="697" on="0"/>
        <pt x="511" y="636" on="1"/>
        <pt x="617" y="545" on="0"/>
        <pt x="617" y="138" on="0"/>
        <pt x="511" y="47" on="1"/>
        <pt x="436" y="-14" on="0"/>
        <pt x="224" y="-14" on="0"/>
      </contour>
      <contour>
        <pt x="444" y="736" on="1"/>
        <pt x="330" y="811" on="1"/>
        <pt x="213" y="727" on="1"/>
        <pt x="198" y="732" on="0"/>
        <pt x="165" y="764" on="0"/>
        <pt x="161" y="780" on="1"/>
        <pt x="276" y="896" on="1"/>
        <pt x="302" y="902" on="0"/>
        <pt x="355" y="902" on="0"/>
        <pt x="383" y="897" on="1"/>
        <pt x="496" y="789" on="1"/>
        <pt x="490" y="771" on="0"/>
        <pt x="459" y="742" on="0"/>
      </contour>
    </TTGlyph>
    <TTGlyph name="Odieresis" xMin="44" yMin="-14" xMax="617" yMax="853">
      <contour>
        <pt x="177" y="597" on="0"/>
        <pt x="177" y="86" on="0"/>
        <pt x="484" y="86" on="0"/>
        <pt x="484" y="597" on="0"/>
      </contour>
      <contour>
        <pt x="151" y="47" on="1"/>
        <pt x="44" y="138" on="0"/>
        <pt x="44" y="545" on="0"/>
        <pt x="151" y="636" on="1"/>
        <pt x="224" y="697" on="0"/>
        <pt x="436" y="697" on="0"/>
        <pt x="511" y="636" on="1"/>
        <pt x="617" y="545" on="0"/>
        <pt x="617" y="138" on="0"/>
        <pt x="511" y="47" on="1"/>
        <pt x="436" y="-14" on="0"/>
        <pt x="224" y="-14" on="0"/>
      </contour>
      <contour>
        <pt x="387" y="839" on="1"/>
        <pt x="410" y="853" on="0"/>
        <pt x="471" y="853" on="0"/>
        <pt x="494" y="839" on="1"/>
        <pt x="504" y="824" on="0"/>
        <pt x="504" y="764" on="0"/>
        <pt x="494" y="750" on="1"/>
        <pt x="474" y="736" on="0"/>
        <pt x="407" y="736" on="0"/>
        <pt x="387" y="750" on="1"/>
        <pt x="375" y="765" on="0"/>
        <pt x="375" y="823" on="0"/>
      </contour>
      <contour>
        <pt x="168" y="839" on="1"/>
        <pt x="189" y="853" on="0"/>
        <pt x="252" y="853" on="0"/>
        <pt x="275" y="839" on="1"/>
        <pt x="286" y="824" on="0"/>
        <pt x="286" y="763" on="0"/>
        <pt x="275" y="750" on="1"/>
        <pt x="255" y="736" on="0"/>
        <pt x="187" y="736" on="0"/>
        <pt x="168" y="750" on="1"/>
        <pt x="158" y="764" on="0"/>
        <pt x="158" y="824" on="0"/>
      </contour>
    </TTGlyph>
    <TTGlyph name="Ograve" xMin="44" yMin="-14" xMax="617" yMax="917">
      <contour>
        <pt x="177" y="597" on="0"/>
        <pt x="177" y="86" on="0"/>
        <pt x="484" y="86" on="0"/>
        <pt x="484" y="597" on="0"/>
      </contour>
      <contour>
        <pt x="151" y="47" on="1"/>
        <pt x="44" y="138" on="0"/>
        <pt x="44" y="545" on="0"/>
        <pt x="151" y="636" on="1"/>
        <pt x="224" y="697" on="0"/>
        <pt x="436" y="697" on="0"/>
        <pt x="511" y="636" on="1"/>
        <pt x="617" y="545" on="0"/>
        <pt x="617" y="138" on="0"/>
        <pt x="511" y="47" on="1"/>
        <pt x="436" y="-14" on="0"/>
        <pt x="224" y="-14" on="0"/>
      </contour>
      <contour>
        <pt x="242" y="917" on="1"/>
        <pt x="453" y="790" on="1"/>
        <pt x="445" y="745" on="0"/>
        <pt x="417" y="728" on="1"/>
        <pt x="190" y="819" on="1"/>
        <pt x="193" y="846" on="0"/>
        <pt x="225" y="904" on="0"/>
      </contour>
    </TTGlyph>
    <TTGlyph name="Oslash" xMin="44" yMin="-61" xMax="619" yMax="746">
      <contour>
        <pt x="44" y="342" on="1"/>
        <pt x="44" y="544" on="0"/>
        <pt x="152" y="636" on="1"/>
        <pt x="223" y="697" on="0"/>
        <pt x="332" y="697" on="1"/>
        <pt x="403" y="697" on="0"/>
        <pt x="454" y="673" on="1"/>
        <pt x="495" y="746" on="1"/>
        <pt x="548" y="737" on="0"/>
        <pt x="576" y="701" on="1"/>
        <pt x="530" y="619" on="1"/>
        <pt x="619" y="523" on="0"/>
        <pt x="619" y="342" on="1"/>
        <pt x="619" y="139" on="0"/>
        <pt x="512" y="47" on="1"/>
        <pt x="439" y="-14" on="0"/>
        <pt x="332" y="-14" on="1"/>
        <pt x="262" y="-14" on="0"/>
        <pt x="209" y="10" on="1"/>
        <pt x="169" y="-61" on="1"/>
        <pt x="116" y="-52" on="0"/>
        <pt x="88" y="-17" on="1"/>
        <pt x="133" y="64" on="1"/>
        <pt x="44" y="160" on="0"/>
      </contour>
      <contour>
        <pt x="197" y="183" on="1"/>
        <pt x="405" y="581" on="1"/>
        <pt x="373" y="600" on="0"/>
        <pt x="285" y="600" on="0"/>
        <pt x="219" y="554" on="0"/>
        <pt x="202" y="514" on="1"/>
        <pt x="173" y="442" on="0"/>
        <pt x="173" y="244" on="0"/>
      </contour>
      <contour>
        <pt x="490" y="342" on="1"/>
        <pt x="490" y="436" on="0"/>
        <pt x="466" y="500" on="1"/>
        <pt x="259" y="102" on="1"/>
        <pt x="291" y="83" on="0"/>
        <pt x="332" y="83" on="1"/>
        <pt x="490" y="83" on="0"/>
      </contour>
    </TTGlyph>
    <TTGlyph name="Otilde" xMin="44" yMin="-14" xMax="617" yMax="895">
      <contour>
        <pt x="177" y="597" on="0"/>
        <pt x="177" y="86" on="0"/>
        <pt x="484" y="86" on="0"/>
        <pt x="484" y="597" on="0"/>
      </contour>
      <contour>
        <pt x="151" y="47" on="1"/>
        <pt x="44" y="138" on="0"/>
        <pt x="44" y="545" on="0"/>
        <pt x="151" y="636" on="1"/>
        <pt x="224" y="697" on="0"/>
        <pt x="436" y="697" on="0"/>
        <pt x="511" y="636" on="1"/>
        <pt x="617" y="545" on="0"/>
        <pt x="617" y="138" on="0"/>
        <pt x="511" y="47" on="1"/>
        <pt x="436" y="-14" on="0"/>
        <pt x="224" y="-14" on="0"/>
      </contour>
      <contour>
        <pt x="334" y="764" on="1"/>
        <pt x="282" y="789" on="1"/>
        <pt x="266" y="798" on="0"/>
        <pt x="230" y="798" on="0"/>
        <pt x="211" y="773" on="1"/>
        <pt x="200" y="759" on="1"/>
        <pt x="181" y="760" on="0"/>
        <pt x="145" y="781" on="0"/>
        <pt x="139" y="797" on="1"/>
        <pt x="147" y="817" on="1"/>
        <pt x="184" y="895" on="0"/>
        <pt x="258" y="895" on="1"/>
        <pt x="286" y="895" on="0"/>
        <pt x="320" y="879" on="1"/>
        <pt x="372" y="853" on="1"/>
        <pt x="390" y="844" on="0"/>
        <pt x="424" y="844" on="0"/>
        <pt x="444" y="869" on="1"/>
        <pt x="454" y="883" on="1"/>
        <pt x="473" y="882" on="0"/>
        <pt x="508" y="861" on="0"/>
        <pt x="515" y="845" on="1"/>
        <pt x="507" y="826" on="1"/>
        <pt x="490" y="789" on="0"/>
        <pt x="432" y="747" on="0"/>
        <pt x="366" y="747" on="0"/>
      </contour>
    </TTGlyph>
    <TTGlyph name="P" xMin="85" yMin="-5" xMax="543" yMax="688">
      <contour>
        <pt x="414" y="688" on="0"/>
        <pt x="543" y="571" on="0"/>
        <pt x="543" y="350" on="0"/>
        <pt x="414" y="231" on="0"/>
        <pt x="308" y="231" on="1"/>
        <pt x="212" y="231" on="1"/>
        <pt x="212" y="0" on="1"/>
        <pt x="187" y="-5" on="0"/>
        <pt x="109" y="-5" on="0"/>
        <pt x="85" y="0" on="1"/>
        <pt x="85" y="678" on="1"/>
        <pt x="92" y="684" on="1"/>
        <pt x="250" y="688" on="0"/>
        <pt x="308" y="688" on="1"/>
      </contour>
      <contour>
        <pt x="212" y="589" on="1"/>
        <pt x="212" y="328" on="1"/>
        <pt x="280" y="330" on="0"/>
        <pt x="300" y="330" on="1"/>
        <pt x="362" y="330" on="0"/>
        <pt x="412" y="407" on="0"/>
        <pt x="412" y="512" on="0"/>
        <pt x="362" y="588" on="0"/>
        <pt x="243" y="588" on="0"/>
      </contour>
    </TTGlyph>
    <TTGlyph name="Q" xMin="44" yMin="-134" xMax="618" yMax="697">
      <contour>
        <pt x="446" y="-102" on="1"/>
        <pt x="338" y="-14" on="1"/>
        <pt x="331" y="-14" on="1"/>
        <pt x="222" y="-14" on="0"/>
        <pt x="150" y="46" on="1"/>
        <pt x="44" y="138" on="0"/>
        <pt x="44" y="547" on="0"/>
        <pt x="150" y="637" on="1"/>
        <pt x="220" y="697" on="0"/>
        <pt x="437" y="697" on="0"/>
        <pt x="509" y="637" on="1"/>
        <pt x="614" y="546" on="0"/>
        <pt x="614" y="341" on="1"/>
        <pt x="614" y="157" on="0"/>
        <pt x="529" y="69" on="1"/>
        <pt x="501" y="38" on="0"/>
        <pt x="468" y="26" on="1"/>
        <pt x="491" y="10" on="1"/>
        <pt x="563" y="-42" on="0"/>
        <pt x="618" y="-43" on="1"/>
        <pt x="617" y="-85" on="0"/>
        <pt x="568" y="-134" on="0"/>
        <pt x="484" y="-134" on="0"/>
      </contour>
      <contour>
        <pt x="176" y="597" on="0"/>
        <pt x="176" y="87" on="0"/>
        <pt x="482" y="87" on="0"/>
        <pt x="482" y="597" on="0"/>
      </contour>
    </TTGlyph>
    <TTGlyph name="R" xMin="85" yMin="-8" xMax="583" yMax="688">
      <contour>
        <pt x="550" y="478" on="1"/>
        <pt x="550" y="411" on="0"/>
        <pt x="477" y="314" on="0"/>
        <pt x="424" y="295" on="1"/>
        <pt x="473" y="278" on="0"/>
        <pt x="497" y="208" on="1"/>
        <pt x="536" y="103" on="1"/>
        <pt x="555" y="52" on="0"/>
        <pt x="583" y="31" on="1"/>
        <pt x="555" y="-8" on="0"/>
        <pt x="497" y="-8" on="1"/>
        <pt x="464" y="-8" on="0"/>
        <pt x="431" y="27" on="0"/>
        <pt x="417" y="68" on="1"/>
        <pt x="372" y="191" on="1"/>
        <pt x="359" y="227" on="0"/>
        <pt x="318" y="265" on="0"/>
        <pt x="277" y="265" on="1"/>
        <pt x="211" y="265" on="1"/>
        <pt x="211" y="0" on="1"/>
        <pt x="186" y="-5" on="0"/>
        <pt x="109" y="-5" on="0"/>
        <pt x="85" y="0" on="1"/>
        <pt x="85" y="678" on="1"/>
        <pt x="92" y="684" on="1"/>
        <pt x="250" y="688" on="0"/>
        <pt x="316" y="688" on="1"/>
        <pt x="423" y="688" on="0"/>
        <pt x="550" y="580" on="0"/>
      </contour>
      <contour>
        <pt x="211" y="590" on="1"/>
        <pt x="211" y="365" on="1"/>
        <pt x="283" y="367" on="0"/>
        <pt x="308" y="367" on="1"/>
        <pt x="419" y="367" on="0"/>
        <pt x="419" y="589" on="0"/>
        <pt x="308" y="589" on="1"/>
        <pt x="243" y="589" on="0"/>
      </contour>
    </TTGlyph>
    <TTGlyph name="Racute" xMin="85" yMin="-8" xMax="583" yMax="917">
      <contour>
        <pt x="550" y="478" on="1"/>
        <pt x="550" y="411" on="0"/>
        <pt x="477" y="314" on="0"/>
        <pt x="424" y="295" on="1"/>
        <pt x="473" y="278" on="0"/>
        <pt x="497" y="208" on="1"/>
        <pt x="536" y="103" on="1"/>
        <pt x="555" y="52" on="0"/>
        <pt x="583" y="31" on="1"/>
        <pt x="555" y="-8" on="0"/>
        <pt x="497" y="-8" on="1"/>
        <pt x="464" y="-8" on="0"/>
        <pt x="431" y="27" on="0"/>
        <pt x="417" y="68" on="1"/>
        <pt x="372" y="191" on="1"/>
        <pt x="359" y="227" on="0"/>
        <pt x="318" y="265" on="0"/>
        <pt x="277" y="265" on="1"/>
        <pt x="211" y="265" on="1"/>
        <pt x="211" y="0" on="1"/>
        <pt x="186" y="-5" on="0"/>
        <pt x="109" y="-5" on="0"/>
        <pt x="85" y="0" on="1"/>
        <pt x="85" y="678" on="1"/>
        <pt x="92" y="684" on="1"/>
        <pt x="250" y="688" on="0"/>
        <pt x="316" y="688" on="1"/>
        <pt x="423" y="688" on="0"/>
        <pt x="550" y="580" on="0"/>
      </contour>
      <contour>
        <pt x="211" y="590" on="1"/>
        <pt x="211" y="365" on="1"/>
        <pt x="283" y="367" on="0"/>
        <pt x="308" y="367" on="1"/>
        <pt x="419" y="367" on="0"/>
        <pt x="419" y="589" on="0"/>
        <pt x="308" y="589" on="1"/>
        <pt x="243" y="589" on="0"/>
      </contour>
      <contour>
        <pt x="191" y="790" on="1"/>
        <pt x="402" y="917" on="1"/>
        <pt x="419" y="904" on="0"/>
        <pt x="451" y="846" on="0"/>
        <pt x="454" y="819" on="1"/>
        <pt x="227" y="728" on="1"/>
        <pt x="213" y="736" on="0"/>
        <pt x="193" y="772" on="0"/>
      </contour>
    </TTGlyph>
    <TTGlyph name="Rcaron" xMin="85" yMin="-8" xMax="583" yMax="912">
      <contour>
        <pt x="550" y="478" on="1"/>
        <pt x="550" y="411" on="0"/>
        <pt x="477" y="314" on="0"/>
        <pt x="424" y="295" on="1"/>
        <pt x="473" y="278" on="0"/>
        <pt x="497" y="208" on="1"/>
        <pt x="536" y="103" on="1"/>
        <pt x="555" y="52" on="0"/>
        <pt x="583" y="31" on="1"/>
        <pt x="555" y="-8" on="0"/>
        <pt x="497" y="-8" on="1"/>
        <pt x="464" y="-8" on="0"/>
        <pt x="431" y="27" on="0"/>
        <pt x="417" y="68" on="1"/>
        <pt x="372" y="191" on="1"/>
        <pt x="359" y="227" on="0"/>
        <pt x="318" y="265" on="0"/>
        <pt x="277" y="265" on="1"/>
        <pt x="211" y="265" on="1"/>
        <pt x="211" y="0" on="1"/>
        <pt x="186" y="-5" on="0"/>
        <pt x="109" y="-5" on="0"/>
        <pt x="85" y="0" on="1"/>
        <pt x="85" y="678" on="1"/>
        <pt x="92" y="684" on="1"/>
        <pt x="250" y="688" on="0"/>
        <pt x="316" y="688" on="1"/>
        <pt x="423" y="688" on="0"/>
        <pt x="550" y="580" on="0"/>
      </contour>
      <contour>
        <pt x="211" y="590" on="1"/>
        <pt x="211" y="365" on="1"/>
        <pt x="283" y="367" on="0"/>
        <pt x="308" y="367" on="1"/>
        <pt x="419" y="367" on="0"/>
        <pt x="419" y="589" on="0"/>
        <pt x="308" y="589" on="1"/>
        <pt x="243" y="589" on="0"/>
      </contour>
      <contour>
        <pt x="183" y="903" on="1"/>
        <pt x="298" y="828" on="1"/>
        <pt x="415" y="912" on="1"/>
        <pt x="430" y="907" on="0"/>
        <pt x="464" y="877" on="0"/>
        <pt x="468" y="860" on="1"/>
        <pt x="351" y="743" on="1"/>
        <pt x="326" y="737" on="0"/>
        <pt x="272" y="737" on="0"/>
        <pt x="244" y="742" on="1"/>
        <pt x="132" y="850" on="1"/>
        <pt x="137" y="868" on="0"/>
        <pt x="168" y="897" on="0"/>
      </contour>
    </TTGlyph>
    <TTGlyph name="Rcommaaccent" xMin="85" yMin="-274" xMax="583" yMax="688">
      <contour>
        <pt x="550" y="478" on="1"/>
        <pt x="550" y="411" on="0"/>
        <pt x="477" y="314" on="0"/>
        <pt x="424" y="295" on="1"/>
        <pt x="473" y="278" on="0"/>
        <pt x="497" y="208" on="1"/>
        <pt x="536" y="103" on="1"/>
        <pt x="555" y="52" on="0"/>
        <pt x="583" y="31" on="1"/>
        <pt x="555" y="-8" on="0"/>
        <pt x="497" y="-8" on="1"/>
        <pt x="464" y="-8" on="0"/>
        <pt x="431" y="27" on="0"/>
        <pt x="417" y="68" on="1"/>
        <pt x="372" y="191" on="1"/>
        <pt x="359" y="227" on="0"/>
        <pt x="318" y="265" on="0"/>
        <pt x="277" y="265" on="1"/>
        <pt x="211" y="265" on="1"/>
        <pt x="211" y="0" on="1"/>
        <pt x="186" y="-5" on="0"/>
        <pt x="109" y="-5" on="0"/>
        <pt x="85" y="0" on="1"/>
        <pt x="85" y="678" on="1"/>
        <pt x="92" y="684" on="1"/>
        <pt x="250" y="688" on="0"/>
        <pt x="316" y="688" on="1"/>
        <pt x="423" y="688" on="0"/>
        <pt x="550" y="580" on="0"/>
      </contour>
      <contour>
        <pt x="211" y="590" on="1"/>
        <pt x="211" y="365" on="1"/>
        <pt x="283" y="367" on="0"/>
        <pt x="308" y="367" on="1"/>
        <pt x="419" y="367" on="0"/>
        <pt x="419" y="589" on="0"/>
        <pt x="308" y="589" on="1"/>
        <pt x="243" y="589" on="0"/>
      </contour>
      <contour>
        <pt x="265" y="-73" on="1"/>
        <pt x="294" y="-52" on="0"/>
        <pt x="360" y="-52" on="0"/>
        <pt x="379" y="-59" on="1"/>
        <pt x="389" y="-79" on="0"/>
        <pt x="389" y="-114" on="1"/>
        <pt x="389" y="-168" on="0"/>
        <pt x="317" y="-253" on="0"/>
        <pt x="254" y="-274" on="1"/>
        <pt x="222" y="-264" on="0"/>
        <pt x="215" y="-223" on="1"/>
        <pt x="278" y="-184" on="0"/>
        <pt x="278" y="-125" on="1"/>
        <pt x="278" y="-97" on="0"/>
      </contour>
    </TTGlyph>
    <TTGlyph name="S" xMin="24" yMin="-14" xMax="521" yMax="697">
      <contour>
        <pt x="24" y="61" on="1"/>
        <pt x="31" y="120" on="0"/>
        <pt x="76" y="157" on="1"/>
        <pt x="180" y="91" on="0"/>
        <pt x="277" y="91" on="1"/>
        <pt x="329" y="91" on="0"/>
        <pt x="387" y="137" on="0"/>
        <pt x="387" y="174" on="1"/>
        <pt x="389" y="233" on="0"/>
        <pt x="307" y="269" on="1"/>
        <pt x="189" y="319" on="1"/>
        <pt x="50" y="381" on="0"/>
        <pt x="50" y="497" on="1"/>
        <pt x="50" y="583" on="0"/>
        <pt x="182" y="697" on="0"/>
        <pt x="395" y="697" on="0"/>
        <pt x="503" y="643" on="1"/>
        <pt x="500" y="584" on="0"/>
        <pt x="459" y="545" on="1"/>
        <pt x="363" y="593" on="0"/>
        <pt x="284" y="593" on="1"/>
        <pt x="235" y="593" on="0"/>
        <pt x="180" y="546" on="0"/>
        <pt x="180" y="513" on="1"/>
        <pt x="180" y="464" on="0"/>
        <pt x="253" y="433" on="1"/>
        <pt x="371" y="383" on="1"/>
        <pt x="521" y="318" on="0"/>
        <pt x="521" y="192" on="1"/>
        <pt x="521" y="100" on="0"/>
        <pt x="391" y="-14" on="0"/>
        <pt x="136" y="-14" on="0"/>
      </contour>
    </TTGlyph>
    <TTGlyph name="Sacute" xMin="24" yMin="-14" xMax="521" yMax="917">
      <contour>
        <pt x="24" y="61" on="1"/>
        <pt x="31" y="120" on="0"/>
        <pt x="76" y="157" on="1"/>
        <pt x="180" y="91" on="0"/>
        <pt x="277" y="91" on="1"/>
        <pt x="329" y="91" on="0"/>
        <pt x="387" y="137" on="0"/>
        <pt x="387" y="174" on="1"/>
        <pt x="389" y="233" on="0"/>
        <pt x="307" y="269" on="1"/>
        <pt x="189" y="319" on="1"/>
        <pt x="50" y="381" on="0"/>
        <pt x="50" y="497" on="1"/>
        <pt x="50" y="583" on="0"/>
        <pt x="182" y="697" on="0"/>
        <pt x="395" y="697" on="0"/>
        <pt x="503" y="643" on="1"/>
        <pt x="500" y="584" on="0"/>
        <pt x="459" y="545" on="1"/>
        <pt x="363" y="593" on="0"/>
        <pt x="284" y="593" on="1"/>
        <pt x="235" y="593" on="0"/>
        <pt x="180" y="546" on="0"/>
        <pt x="180" y="513" on="1"/>
        <pt x="180" y="464" on="0"/>
        <pt x="253" y="433" on="1"/>
        <pt x="371" y="383" on="1"/>
        <pt x="521" y="318" on="0"/>
        <pt x="521" y="192" on="1"/>
        <pt x="521" y="100" on="0"/>
        <pt x="391" y="-14" on="0"/>
        <pt x="136" y="-14" on="0"/>
      </contour>
      <contour>
        <pt x="176" y="790" on="1"/>
        <pt x="387" y="917" on="1"/>
        <pt x="404" y="904" on="0"/>
        <pt x="436" y="846" on="0"/>
        <pt x="439" y="819" on="1"/>
        <pt x="212" y="728" on="1"/>
        <pt x="198" y="736" on="0"/>
        <pt x="178" y="772" on="0"/>
      </contour>
    </TTGlyph>
    <TTGlyph name="Scaron" xMin="24" yMin="-14" xMax="521" yMax="912">
      <contour>
        <pt x="24" y="61" on="1"/>
        <pt x="31" y="120" on="0"/>
        <pt x="76" y="157" on="1"/>
        <pt x="180" y="91" on="0"/>
        <pt x="277" y="91" on="1"/>
        <pt x="329" y="91" on="0"/>
        <pt x="387" y="137" on="0"/>
        <pt x="387" y="174" on="1"/>
        <pt x="389" y="233" on="0"/>
        <pt x="307" y="269" on="1"/>
        <pt x="189" y="319" on="1"/>
        <pt x="50" y="381" on="0"/>
        <pt x="50" y="497" on="1"/>
        <pt x="50" y="583" on="0"/>
        <pt x="182" y="697" on="0"/>
        <pt x="395" y="697" on="0"/>
        <pt x="503" y="643" on="1"/>
        <pt x="500" y="584" on="0"/>
        <pt x="459" y="545" on="1"/>
        <pt x="363" y="593" on="0"/>
        <pt x="284" y="593" on="1"/>
        <pt x="235" y="593" on="0"/>
        <pt x="180" y="546" on="0"/>
        <pt x="180" y="513" on="1"/>
        <pt x="180" y="464" on="0"/>
        <pt x="253" y="433" on="1"/>
        <pt x="371" y="383" on="1"/>
        <pt x="521" y="318" on="0"/>
        <pt x="521" y="192" on="1"/>
        <pt x="521" y="100" on="0"/>
        <pt x="391" y="-14" on="0"/>
        <pt x="136" y="-14" on="0"/>
      </contour>
      <contour>
        <pt x="168" y="903" on="1"/>
        <pt x="283" y="828" on="1"/>
        <pt x="400" y="912" on="1"/>
        <pt x="415" y="907" on="0"/>
        <pt x="449" y="877" on="0"/>
        <pt x="453" y="860" on="1"/>
        <pt x="336" y="743" on="1"/>
        <pt x="311" y="737" on="0"/>
        <pt x="257" y="737" on="0"/>
        <pt x="229" y="742" on="1"/>
        <pt x="117" y="850" on="1"/>
        <pt x="122" y="868" on="0"/>
        <pt x="153" y="897" on="0"/>
      </contour>
    </TTGlyph>
    <TTGlyph name="T" xMin="9" yMin="-5" xMax="494" yMax="683">
      <contour>
        <pt x="313" y="578" on="1"/>
        <pt x="314" y="504" on="1"/>
        <pt x="314" y="0" on="1"/>
        <pt x="288" y="-5" on="0"/>
        <pt x="212" y="-5" on="0"/>
        <pt x="187" y="0" on="1"/>
        <pt x="187" y="578" on="1"/>
        <pt x="127" y="577" on="1"/>
        <pt x="14" y="577" on="1"/>
        <pt x="9" y="600" on="0"/>
        <pt x="9" y="659" on="0"/>
        <pt x="14" y="683" on="1"/>
        <pt x="487" y="683" on="1"/>
        <pt x="494" y="658" on="0"/>
        <pt x="494" y="603" on="0"/>
        <pt x="461" y="577" on="0"/>
        <pt x="425" y="577" on="1"/>
        <pt x="374" y="577" on="1"/>
        <pt x="314" y="578" on="1"/>
      </contour>
    </TTGlyph>
    <TTGlyph name="Tcaron" xMin="9" yMin="-5" xMax="494" yMax="912">
      <contour>
        <pt x="313" y="578" on="1"/>
        <pt x="314" y="504" on="1"/>
        <pt x="314" y="0" on="1"/>
        <pt x="288" y="-5" on="0"/>
        <pt x="212" y="-5" on="0"/>
        <pt x="187" y="0" on="1"/>
        <pt x="187" y="578" on="1"/>
        <pt x="127" y="577" on="1"/>
        <pt x="14" y="577" on="1"/>
        <pt x="9" y="600" on="0"/>
        <pt x="9" y="659" on="0"/>
        <pt x="14" y="683" on="1"/>
        <pt x="487" y="683" on="1"/>
        <pt x="494" y="658" on="0"/>
        <pt x="494" y="603" on="0"/>
        <pt x="461" y="577" on="0"/>
        <pt x="425" y="577" on="1"/>
        <pt x="374" y="577" on="1"/>
        <pt x="314" y="578" on="1"/>
      </contour>
      <contour>
        <pt x="132" y="903" on="1"/>
        <pt x="247" y="828" on="1"/>
        <pt x="364" y="912" on="1"/>
        <pt x="379" y="907" on="0"/>
        <pt x="413" y="877" on="0"/>
        <pt x="417" y="860" on="1"/>
        <pt x="300" y="743" on="1"/>
        <pt x="275" y="737" on="0"/>
        <pt x="221" y="737" on="0"/>
        <pt x="193" y="742" on="1"/>
        <pt x="81" y="850" on="1"/>
        <pt x="86" y="868" on="0"/>
        <pt x="117" y="897" on="0"/>
      </contour>
    </TTGlyph>
    <TTGlyph name="Thorn" xMin="85" yMin="-5" xMax="542" yMax="688">
      <contour>
        <pt x="85" y="0" on="1"/>
        <pt x="85" y="683" on="1"/>
        <pt x="109" y="688" on="0"/>
        <pt x="187" y="688" on="0"/>
        <pt x="212" y="683" on="1"/>
        <pt x="212" y="584" on="1"/>
        <pt x="274" y="586" on="0"/>
        <pt x="306" y="586" on="1"/>
        <pt x="413" y="586" on="0"/>
        <pt x="542" y="475" on="0"/>
        <pt x="542" y="255" on="0"/>
        <pt x="413" y="141" on="0"/>
        <pt x="306" y="141" on="1"/>
        <pt x="212" y="141" on="1"/>
        <pt x="212" y="0" on="1"/>
        <pt x="187" y="-5" on="0"/>
        <pt x="109" y="-5" on="0"/>
      </contour>
      <contour>
        <pt x="212" y="240" on="1"/>
        <pt x="298" y="241" on="1"/>
        <pt x="360" y="241" on="0"/>
        <pt x="411" y="313" on="0"/>
        <pt x="411" y="415" on="0"/>
        <pt x="360" y="486" on="0"/>
        <pt x="298" y="486" on="1"/>
        <pt x="212" y="486" on="1"/>
      </contour>
    </TTGlyph>
    <TTGlyph name="U" xMin="76" yMin="-14" xMax="595" yMax="688">
      <contour>
        <pt x="595" y="683" on="1"/>
        <pt x="595" y="245" on="1"/>
        <pt x="595" y="121" on="0"/>
        <pt x="457" y="-14" on="0"/>
        <pt x="214" y="-14" on="0"/>
        <pt x="76" y="121" on="0"/>
        <pt x="76" y="245" on="1"/>
        <pt x="76" y="682" on="1"/>
        <pt x="82" y="688" on="1"/>
        <pt x="130" y="688" on="1"/>
        <pt x="168" y="688" on="0"/>
        <pt x="203" y="649" on="0"/>
        <pt x="203" y="607" on="1"/>
        <pt x="203" y="244" on="1"/>
        <pt x="203" y="88" on="0"/>
        <pt x="467" y="88" on="0"/>
        <pt x="467" y="244" on="1"/>
        <pt x="467" y="683" on="1"/>
        <pt x="492" y="688" on="0"/>
        <pt x="570" y="688" on="0"/>
      </contour>
    </TTGlyph>
    <TTGlyph name="Uacute" xMin="76" yMin="-14" xMax="595" yMax="917">
      <contour>
        <pt x="595" y="683" on="1"/>
        <pt x="595" y="245" on="1"/>
        <pt x="595" y="121" on="0"/>
        <pt x="457" y="-14" on="0"/>
        <pt x="214" y="-14" on="0"/>
        <pt x="76" y="121" on="0"/>
        <pt x="76" y="245" on="1"/>
        <pt x="76" y="682" on="1"/>
        <pt x="82" y="688" on="1"/>
        <pt x="130" y="688" on="1"/>
        <pt x="168" y="688" on="0"/>
        <pt x="203" y="649" on="0"/>
        <pt x="203" y="607" on="1"/>
        <pt x="203" y="244" on="1"/>
        <pt x="203" y="88" on="0"/>
        <pt x="467" y="88" on="0"/>
        <pt x="467" y="244" on="1"/>
        <pt x="467" y="683" on="1"/>
        <pt x="492" y="688" on="0"/>
        <pt x="570" y="688" on="0"/>
      </contour>
      <contour>
        <pt x="224" y="790" on="1"/>
        <pt x="435" y="917" on="1"/>
        <pt x="452" y="904" on="0"/>
        <pt x="484" y="846" on="0"/>
        <pt x="487" y="819" on="1"/>
        <pt x="260" y="728" on="1"/>
        <pt x="246" y="736" on="0"/>
        <pt x="226" y="772" on="0"/>
      </contour>
    </TTGlyph>
    <TTGlyph name="Ucircumflex" xMin="76" yMin="-14" xMax="595" yMax="902">
      <contour>
        <pt x="595" y="683" on="1"/>
        <pt x="595" y="245" on="1"/>
        <pt x="595" y="121" on="0"/>
        <pt x="457" y="-14" on="0"/>
        <pt x="214" y="-14" on="0"/>
        <pt x="76" y="121" on="0"/>
        <pt x="76" y="245" on="1"/>
        <pt x="76" y="682" on="1"/>
        <pt x="82" y="688" on="1"/>
        <pt x="130" y="688" on="1"/>
        <pt x="168" y="688" on="0"/>
        <pt x="203" y="649" on="0"/>
        <pt x="203" y="607" on="1"/>
        <pt x="203" y="244" on="1"/>
        <pt x="203" y="88" on="0"/>
        <pt x="467" y="88" on="0"/>
        <pt x="467" y="244" on="1"/>
        <pt x="467" y="683" on="1"/>
        <pt x="492" y="688" on="0"/>
        <pt x="570" y="688" on="0"/>
      </contour>
      <contour>
        <pt x="447" y="736" on="1"/>
        <pt x="333" y="811" on="1"/>
        <pt x="216" y="727" on="1"/>
        <pt x="201" y="732" on="0"/>
        <pt x="168" y="764" on="0"/>
        <pt x="164" y="780" on="1"/>
        <pt x="279" y="896" on="1"/>
        <pt x="305" y="902" on="0"/>
        <pt x="358" y="902" on="0"/>
        <pt x="386" y="897" on="1"/>
        <pt x="499" y="789" on="1"/>
        <pt x="493" y="771" on="0"/>
        <pt x="462" y="742" on="0"/>
      </contour>
    </TTGlyph>
    <TTGlyph name="Udieresis" xMin="76" yMin="-14" xMax="595" yMax="853">
      <contour>
        <pt x="595" y="683" on="1"/>
        <pt x="595" y="245" on="1"/>
        <pt x="595" y="121" on="0"/>
        <pt x="457" y="-14" on="0"/>
        <pt x="214" y="-14" on="0"/>
        <pt x="76" y="121" on="0"/>
        <pt x="76" y="245" on="1"/>
        <pt x="76" y="682" on="1"/>
        <pt x="82" y="688" on="1"/>
        <pt x="130" y="688" on="1"/>
        <pt x="168" y="688" on="0"/>
        <pt x="203" y="649" on="0"/>
        <pt x="203" y="607" on="1"/>
        <pt x="203" y="244" on="1"/>
        <pt x="203" y="88" on="0"/>
        <pt x="467" y="88" on="0"/>
        <pt x="467" y="244" on="1"/>
        <pt x="467" y="683" on="1"/>
        <pt x="492" y="688" on="0"/>
        <pt x="570" y="688" on="0"/>
      </contour>
      <contour>
        <pt x="390" y="839" on="1"/>
        <pt x="413" y="853" on="0"/>
        <pt x="474" y="853" on="0"/>
        <pt x="497" y="839" on="1"/>
        <pt x="507" y="824" on="0"/>
        <pt x="507" y="764" on="0"/>
        <pt x="497" y="750" on="1"/>
        <pt x="477" y="736" on="0"/>
        <pt x="410" y="736" on="0"/>
        <pt x="390" y="750" on="1"/>
        <pt x="378" y="765" on="0"/>
        <pt x="378" y="823" on="0"/>
      </contour>
      <contour>
        <pt x="171" y="839" on="1"/>
        <pt x="192" y="853" on="0"/>
        <pt x="255" y="853" on="0"/>
        <pt x="278" y="839" on="1"/>
        <pt x="289" y="824" on="0"/>
        <pt x="289" y="763" on="0"/>
        <pt x="278" y="750" on="1"/>
        <pt x="258" y="736" on="0"/>
        <pt x="190" y="736" on="0"/>
        <pt x="171" y="750" on="1"/>
        <pt x="161" y="764" on="0"/>
        <pt x="161" y="824" on="0"/>
      </contour>
    </TTGlyph>
    <TTGlyph name="Ugrave" xMin="76" yMin="-14" xMax="595" yMax="917">
      <contour>
        <pt x="595" y="683" on="1"/>
        <pt x="595" y="245" on="1"/>
        <pt x="595" y="121" on="0"/>
        <pt x="457" y="-14" on="0"/>
        <pt x="214" y="-14" on="0"/>
        <pt x="76" y="121" on="0"/>
        <pt x="76" y="245" on="1"/>
        <pt x="76" y="682" on="1"/>
        <pt x="82" y="688" on="1"/>
        <pt x="130" y="688" on="1"/>
        <pt x="168" y="688" on="0"/>
        <pt x="203" y="649" on="0"/>
        <pt x="203" y="607" on="1"/>
        <pt x="203" y="244" on="1"/>
        <pt x="203" y="88" on="0"/>
        <pt x="467" y="88" on="0"/>
        <pt x="467" y="244" on="1"/>
        <pt x="467" y="683" on="1"/>
        <pt x="492" y="688" on="0"/>
        <pt x="570" y="688" on="0"/>
      </contour>
      <contour>
        <pt x="245" y="917" on="1"/>
        <pt x="456" y="790" on="1"/>
        <pt x="448" y="745" on="0"/>
        <pt x="420" y="728" on="1"/>
        <pt x="193" y="819" on="1"/>
        <pt x="196" y="846" on="0"/>
        <pt x="228" y="904" on="0"/>
      </contour>
    </TTGlyph>
    <TTGlyph name="Uring" xMin="76" yMin="-14" xMax="595" yMax="903">
      <contour>
        <pt x="595" y="683" on="1"/>
        <pt x="595" y="245" on="1"/>
        <pt x="595" y="121" on="0"/>
        <pt x="457" y="-14" on="0"/>
        <pt x="214" y="-14" on="0"/>
        <pt x="76" y="121" on="0"/>
        <pt x="76" y="245" on="1"/>
        <pt x="76" y="682" on="1"/>
        <pt x="82" y="688" on="1"/>
        <pt x="130" y="688" on="1"/>
        <pt x="168" y="688" on="0"/>
        <pt x="203" y="649" on="0"/>
        <pt x="203" y="607" on="1"/>
        <pt x="203" y="244" on="1"/>
        <pt x="203" y="88" on="0"/>
        <pt x="467" y="88" on="0"/>
        <pt x="467" y="244" on="1"/>
        <pt x="467" y="683" on="1"/>
        <pt x="492" y="688" on="0"/>
        <pt x="570" y="688" on="0"/>
      </contour>
      <contour>
        <pt x="277" y="664" on="0"/>
        <pt x="205" y="733" on="0"/>
        <pt x="205" y="834" on="0"/>
        <pt x="277" y="903" on="0"/>
        <pt x="391" y="903" on="0"/>
        <pt x="463" y="834" on="0"/>
        <pt x="463" y="733" on="0"/>
        <pt x="391" y="664" on="0"/>
      </contour>
      <contour>
        <pt x="284" y="807" on="0"/>
        <pt x="284" y="761" on="0"/>
        <pt x="312" y="731" on="0"/>
        <pt x="356" y="731" on="0"/>
        <pt x="384" y="761" on="0"/>
        <pt x="384" y="807" on="0"/>
        <pt x="356" y="836" on="0"/>
        <pt x="312" y="836" on="0"/>
      </contour>
    </TTGlyph>
    <TTGlyph name="V" xMin="16" yMin="-5" xMax="574" yMax="691">
      <contour>
        <pt x="306" y="110" on="1"/>
        <pt x="455" y="683" on="1"/>
        <pt x="476" y="688" on="0"/>
        <pt x="542" y="688" on="0"/>
        <pt x="568" y="680" on="1"/>
        <pt x="574" y="672" on="1"/>
        <pt x="380" y="0" on="1"/>
        <pt x="341" y="-5" on="0"/>
        <pt x="244" y="-5" on="0"/>
        <pt x="203" y="19" on="0"/>
        <pt x="193" y="54" on="1"/>
        <pt x="16" y="672" on="1"/>
        <pt x="60" y="691" on="0"/>
        <pt x="121" y="691" on="0"/>
        <pt x="153" y="662" on="0"/>
        <pt x="162" y="628" on="1"/>
        <pt x="255" y="297" on="1"/>
        <pt x="271" y="241" on="0"/>
        <pt x="297" y="121" on="1"/>
        <pt x="299" y="110" on="0"/>
      </contour>
    </TTGlyph>
    <TTGlyph name="W" xMin="24" yMin="-5" xMax="846" yMax="691">
      <contour>
        <pt x="147" y="55" on="1"/>
        <pt x="24" y="676" on="1"/>
        <pt x="59" y="691" on="0"/>
        <pt x="126" y="691" on="0"/>
        <pt x="156" y="661" on="0"/>
        <pt x="162" y="622" on="1"/>
        <pt x="217" y="314" on="1"/>
        <pt x="236" y="205" on="0"/>
        <pt x="248" y="109" on="0"/>
        <pt x="251" y="106" on="0"/>
        <pt x="256" y="106" on="1"/>
        <pt x="355" y="669" on="1"/>
        <pt x="392" y="675" on="0"/>
        <pt x="484" y="675" on="0"/>
        <pt x="519" y="669" on="1"/>
        <pt x="610" y="118" on="1"/>
        <pt x="611" y="110" on="0"/>
        <pt x="615" y="106" on="0"/>
        <pt x="620" y="106" on="1"/>
        <pt x="631" y="197" on="0"/>
        <pt x="653" y="315" on="1"/>
        <pt x="722" y="683" on="1"/>
        <pt x="745" y="688" on="0"/>
        <pt x="811" y="688" on="0"/>
        <pt x="840" y="680" on="1"/>
        <pt x="846" y="672" on="1"/>
        <pt x="707" y="1" on="1"/>
        <pt x="662" y="-5" on="0"/>
        <pt x="562" y="-5" on="0"/>
        <pt x="523" y="19" on="0"/>
        <pt x="518" y="55" on="1"/>
        <pt x="475" y="303" on="1"/>
        <pt x="448" y="475" on="0"/>
        <pt x="439" y="544" on="1"/>
        <pt x="432" y="544" on="1"/>
        <pt x="414" y="417" on="0"/>
        <pt x="393" y="303" on="1"/>
        <pt x="338" y="1" on="1"/>
        <pt x="292" y="-5" on="0"/>
        <pt x="194" y="-5" on="0"/>
        <pt x="154" y="19" on="0"/>
      </contour>
    </TTGlyph>
    <TTGlyph name="X" xMin="14" yMin="-8" xMax="584" yMax="691">
      <contour>
        <pt x="440" y="683" on="1"/>
        <pt x="462" y="688" on="0"/>
        <pt x="531" y="688" on="0"/>
        <pt x="560" y="677" on="1"/>
        <pt x="563" y="670" on="1"/>
        <pt x="373" y="360" on="1"/>
        <pt x="584" y="20" on="1"/>
        <pt x="544" y="-8" on="0"/>
        <pt x="452" y="-8" on="0"/>
        <pt x="419" y="42" on="1"/>
        <pt x="290" y="251" on="1"/>
        <pt x="139" y="0" on="1"/>
        <pt x="119" y="-5" on="0"/>
        <pt x="49" y="-5" on="0"/>
        <pt x="18" y="6" on="1"/>
        <pt x="14" y="14" on="1"/>
        <pt x="225" y="355" on="1"/>
        <pt x="35" y="663" on="1"/>
        <pt x="75" y="691" on="0"/>
        <pt x="145" y="691" on="0"/>
        <pt x="181" y="669" on="0"/>
        <pt x="199" y="641" on="1"/>
        <pt x="309" y="464" on="1"/>
      </contour>
    </TTGlyph>
    <TTGlyph name="Y" xMin="4" yMin="-5" xMax="515" yMax="691">
      <contour>
        <pt x="313" y="477" on="1"/>
        <pt x="395" y="683" on="1"/>
        <pt x="416" y="688" on="0"/>
        <pt x="484" y="688" on="0"/>
        <pt x="509" y="679" on="1"/>
        <pt x="515" y="671" on="1"/>
        <pt x="323" y="214" on="1"/>
        <pt x="323" y="0" on="1"/>
        <pt x="298" y="-5" on="0"/>
        <pt x="220" y="-5" on="0"/>
        <pt x="196" y="0" on="1"/>
        <pt x="196" y="218" on="1"/>
        <pt x="4" y="668" on="1"/>
        <pt x="45" y="691" on="0"/>
        <pt x="109" y="691" on="0"/>
        <pt x="139" y="667" on="0"/>
        <pt x="151" y="638" on="1"/>
        <pt x="218" y="474" on="1"/>
        <pt x="243" y="410" on="0"/>
        <pt x="261" y="342" on="1"/>
        <pt x="267" y="342" on="1"/>
        <pt x="280" y="395" on="0"/>
      </contour>
    </TTGlyph>
    <TTGlyph name="Yacute" xMin="0" yMin="-5" xMax="511" yMax="917">
      <contour>
        <pt x="309" y="477" on="1"/>
        <pt x="391" y="683" on="1"/>
        <pt x="412" y="688" on="0"/>
        <pt x="480" y="688" on="0"/>
        <pt x="505" y="679" on="1"/>
        <pt x="511" y="671" on="1"/>
        <pt x="319" y="214" on="1"/>
        <pt x="319" y="0" on="1"/>
        <pt x="294" y="-5" on="0"/>
        <pt x="216" y="-5" on="0"/>
        <pt x="192" y="0" on="1"/>
        <pt x="192" y="218" on="1"/>
        <pt x="0" y="668" on="1"/>
        <pt x="41" y="691" on="0"/>
        <pt x="105" y="691" on="0"/>
        <pt x="135" y="667" on="0"/>
        <pt x="147" y="638" on="1"/>
        <pt x="214" y="474" on="1"/>
        <pt x="239" y="410" on="0"/>
        <pt x="257" y="342" on="1"/>
        <pt x="263" y="342" on="1"/>
        <pt x="276" y="395" on="0"/>
      </contour>
      <contour>
        <pt x="149" y="790" on="1"/>
        <pt x="360" y="917" on="1"/>
        <pt x="377" y="904" on="0"/>
        <pt x="409" y="846" on="0"/>
        <pt x="412" y="819" on="1"/>
        <pt x="185" y="728" on="1"/>
        <pt x="171" y="736" on="0"/>
        <pt x="151" y="772" on="0"/>
      </contour>
    </TTGlyph>
    <TTGlyph name="Ydieresis" xMin="0" yMin="-5" xMax="511" yMax="853">
      <contour>
        <pt x="309" y="477" on="1"/>
        <pt x="391" y="683" on="1"/>
        <pt x="412" y="688" on="0"/>
        <pt x="480" y="688" on="0"/>
        <pt x="505" y="679" on="1"/>
        <pt x="511" y="671" on="1"/>
        <pt x="319" y="214" on="1"/>
        <pt x="319" y="0" on="1"/>
        <pt x="294" y="-5" on="0"/>
        <pt x="216" y="-5" on="0"/>
        <pt x="192" y="0" on="1"/>
        <pt x="192" y="218" on="1"/>
        <pt x="0" y="668" on="1"/>
        <pt x="41" y="691" on="0"/>
        <pt x="105" y="691" on="0"/>
        <pt x="135" y="667" on="0"/>
        <pt x="147" y="638" on="1"/>
        <pt x="214" y="474" on="1"/>
        <pt x="239" y="410" on="0"/>
        <pt x="257" y="342" on="1"/>
        <pt x="263" y="342" on="1"/>
        <pt x="276" y="395" on="0"/>
      </contour>
      <contour>
        <pt x="315" y="839" on="1"/>
        <pt x="338" y="853" on="0"/>
        <pt x="399" y="853" on="0"/>
        <pt x="422" y="839" on="1"/>
        <pt x="432" y="824" on="0"/>
        <pt x="432" y="764" on="0"/>
        <pt x="422" y="750" on="1"/>
        <pt x="402" y="736" on="0"/>
        <pt x="335" y="736" on="0"/>
        <pt x="315" y="750" on="1"/>
        <pt x="303" y="765" on="0"/>
        <pt x="303" y="823" on="0"/>
      </contour>
      <contour>
        <pt x="96" y="839" on="1"/>
        <pt x="117" y="853" on="0"/>
        <pt x="180" y="853" on="0"/>
        <pt x="203" y="839" on="1"/>
        <pt x="214" y="824" on="0"/>
        <pt x="214" y="763" on="0"/>
        <pt x="203" y="750" on="1"/>
        <pt x="183" y="736" on="0"/>
        <pt x="115" y="736" on="0"/>
        <pt x="96" y="750" on="1"/>
        <pt x="86" y="764" on="0"/>
        <pt x="86" y="824" on="0"/>
      </contour>
    </TTGlyph>
    <TTGlyph name="Z" xMin="44" yMin="0" xMax="525" yMax="683">
      <contour>
        <pt x="60" y="129" on="1"/>
        <pt x="301" y="480" on="1"/>
        <pt x="319" y="507" on="0"/>
        <pt x="380" y="583" on="1"/>
        <pt x="377" y="586" on="1"/>
        <pt x="320" y="577" on="0"/>
        <pt x="222" y="577" on="1"/>
        <pt x="68" y="577" on="1"/>
        <pt x="63" y="596" on="0"/>
        <pt x="63" y="650" on="0"/>
        <pt x="72" y="683" on="1"/>
        <pt x="496" y="683" on="1"/>
        <pt x="514" y="618" on="0"/>
        <pt x="514" y="578" on="0"/>
        <pt x="498" y="555" on="1"/>
        <pt x="258" y="207" on="1"/>
        <pt x="233" y="168" on="0"/>
        <pt x="180" y="105" on="1"/>
        <pt x="183" y="102" on="1"/>
        <pt x="267" y="108" on="0"/>
        <pt x="315" y="108" on="1"/>
        <pt x="400" y="108" on="1"/>
        <pt x="471" y="108" on="0"/>
        <pt x="516" y="128" on="1"/>
        <pt x="525" y="99" on="0"/>
        <pt x="525" y="69" on="1"/>
        <pt x="525" y="0" on="0"/>
        <pt x="440" y="0" on="1"/>
        <pt x="59" y="0" on="1"/>
        <pt x="44" y="60" on="0"/>
        <pt x="44" y="106" on="0"/>
      </contour>
    </TTGlyph>
    <TTGlyph name="Zacute" xMin="44" yMin="0" xMax="525" yMax="917">
      <contour>
        <pt x="60" y="129" on="1"/>
        <pt x="301" y="480" on="1"/>
        <pt x="319" y="507" on="0"/>
        <pt x="380" y="583" on="1"/>
        <pt x="377" y="586" on="1"/>
        <pt x="320" y="577" on="0"/>
        <pt x="222" y="577" on="1"/>
        <pt x="68" y="577" on="1"/>
        <pt x="63" y="596" on="0"/>
        <pt x="63" y="650" on="0"/>
        <pt x="72" y="683" on="1"/>
        <pt x="496" y="683" on="1"/>
        <pt x="514" y="618" on="0"/>
        <pt x="514" y="578" on="0"/>
        <pt x="498" y="555" on="1"/>
        <pt x="258" y="207" on="1"/>
        <pt x="233" y="168" on="0"/>
        <pt x="180" y="105" on="1"/>
        <pt x="183" y="102" on="1"/>
        <pt x="267" y="108" on="0"/>
        <pt x="315" y="108" on="1"/>
        <pt x="400" y="108" on="1"/>
        <pt x="471" y="108" on="0"/>
        <pt x="516" y="128" on="1"/>
        <pt x="525" y="99" on="0"/>
        <pt x="525" y="69" on="1"/>
        <pt x="525" y="0" on="0"/>
        <pt x="440" y="0" on="1"/>
        <pt x="59" y="0" on="1"/>
        <pt x="44" y="60" on="0"/>
        <pt x="44" y="106" on="0"/>
      </contour>
      <contour>
        <pt x="176" y="790" on="1"/>
        <pt x="387" y="917" on="1"/>
        <pt x="404" y="904" on="0"/>
        <pt x="436" y="846" on="0"/>
        <pt x="439" y="819" on="1"/>
        <pt x="212" y="728" on="1"/>
        <pt x="198" y="736" on="0"/>
        <pt x="178" y="772" on="0"/>
      </contour>
    </TTGlyph>
    <TTGlyph name="Zcaron" xMin="44" yMin="0" xMax="525" yMax="912">
      <contour>
        <pt x="60" y="129" on="1"/>
        <pt x="301" y="480" on="1"/>
        <pt x="319" y="507" on="0"/>
        <pt x="380" y="583" on="1"/>
        <pt x="377" y="586" on="1"/>
        <pt x="320" y="577" on="0"/>
        <pt x="222" y="577" on="1"/>
        <pt x="68" y="577" on="1"/>
        <pt x="63" y="596" on="0"/>
        <pt x="63" y="650" on="0"/>
        <pt x="72" y="683" on="1"/>
        <pt x="496" y="683" on="1"/>
        <pt x="514" y="618" on="0"/>
        <pt x="514" y="578" on="0"/>
        <pt x="498" y="555" on="1"/>
        <pt x="258" y="207" on="1"/>
        <pt x="233" y="168" on="0"/>
        <pt x="180" y="105" on="1"/>
        <pt x="183" y="102" on="1"/>
        <pt x="267" y="108" on="0"/>
        <pt x="315" y="108" on="1"/>
        <pt x="400" y="108" on="1"/>
        <pt x="471" y="108" on="0"/>
        <pt x="516" y="128" on="1"/>
        <pt x="525" y="99" on="0"/>
        <pt x="525" y="69" on="1"/>
        <pt x="525" y="0" on="0"/>
        <pt x="440" y="0" on="1"/>
        <pt x="59" y="0" on="1"/>
        <pt x="44" y="60" on="0"/>
        <pt x="44" y="106" on="0"/>
      </contour>
      <contour>
        <pt x="168" y="903" on="1"/>
        <pt x="283" y="828" on="1"/>
        <pt x="400" y="912" on="1"/>
        <pt x="415" y="907" on="0"/>
        <pt x="449" y="877" on="0"/>
        <pt x="453" y="860" on="1"/>
        <pt x="336" y="743" on="1"/>
        <pt x="311" y="737" on="0"/>
        <pt x="257" y="737" on="0"/>
        <pt x="229" y="742" on="1"/>
        <pt x="117" y="850" on="1"/>
        <pt x="122" y="868" on="0"/>
        <pt x="153" y="897" on="0"/>
      </contour>
    </TTGlyph>
    <TTGlyph name="Zdotaccent" xMin="44" yMin="0" xMax="525" yMax="869">
      <contour>
        <pt x="60" y="129" on="1"/>
        <pt x="301" y="480" on="1"/>
        <pt x="319" y="507" on="0"/>
        <pt x="380" y="583" on="1"/>
        <pt x="377" y="586" on="1"/>
        <pt x="320" y="577" on="0"/>
        <pt x="222" y="577" on="1"/>
        <pt x="68" y="577" on="1"/>
        <pt x="63" y="596" on="0"/>
        <pt x="63" y="650" on="0"/>
        <pt x="72" y="683" on="1"/>
        <pt x="496" y="683" on="1"/>
        <pt x="514" y="618" on="0"/>
        <pt x="514" y="578" on="0"/>
        <pt x="498" y="555" on="1"/>
        <pt x="258" y="207" on="1"/>
        <pt x="233" y="168" on="0"/>
        <pt x="180" y="105" on="1"/>
        <pt x="183" y="102" on="1"/>
        <pt x="267" y="108" on="0"/>
        <pt x="315" y="108" on="1"/>
        <pt x="400" y="108" on="1"/>
        <pt x="471" y="108" on="0"/>
        <pt x="516" y="128" on="1"/>
        <pt x="525" y="99" on="0"/>
        <pt x="525" y="69" on="1"/>
        <pt x="525" y="0" on="0"/>
        <pt x="440" y="0" on="1"/>
        <pt x="59" y="0" on="1"/>
        <pt x="44" y="60" on="0"/>
        <pt x="44" y="106" on="0"/>
      </contour>
      <contour>
        <pt x="223" y="756" on="1"/>
        <pt x="213" y="781" on="0"/>
        <pt x="213" y="833" on="0"/>
        <pt x="223" y="856" on="1"/>
        <pt x="247" y="869" on="0"/>
        <pt x="328" y="869" on="0"/>
        <pt x="349" y="856" on="1"/>
        <pt x="359" y="833" on="0"/>
        <pt x="359" y="781" on="0"/>
        <pt x="349" y="756" on="1"/>
        <pt x="325" y="743" on="0"/>
        <pt x="244" y="743" on="0"/>
      </contour>
    </TTGlyph>
    <TTGlyph name="a" xMin="38" yMin="-14" xMax="470" yMax="507">
      <contour>
        <pt x="470" y="56" on="1"/>
        <pt x="465" y="39" on="0"/>
        <pt x="440" y="2" on="0"/>
        <pt x="427" y="-8" on="1"/>
        <pt x="365" y="-1" on="0"/>
        <pt x="336" y="50" on="1"/>
        <pt x="270" y="-14" on="0"/>
        <pt x="116" y="-14" on="0"/>
        <pt x="38" y="76" on="0"/>
        <pt x="38" y="135" on="1"/>
        <pt x="38" y="219" on="0"/>
        <pt x="147" y="304" on="0"/>
        <pt x="232" y="304" on="1"/>
        <pt x="278" y="304" on="0"/>
        <pt x="319" y="300" on="1"/>
        <pt x="319" y="330" on="1"/>
        <pt x="319" y="409" on="0"/>
        <pt x="243" y="409" on="1"/>
        <pt x="189" y="409" on="0"/>
        <pt x="90" y="373" on="1"/>
        <pt x="61" y="404" on="0"/>
        <pt x="57" y="462" on="1"/>
        <pt x="165" y="507" on="0"/>
        <pt x="273" y="507" on="1"/>
        <pt x="348" y="507" on="0"/>
        <pt x="442" y="423" on="0"/>
        <pt x="442" y="338" on="1"/>
        <pt x="442" y="134" on="1"/>
        <pt x="442" y="79" on="0"/>
      </contour>
      <contour>
        <pt x="219" y="81" on="1"/>
        <pt x="271" y="81" on="0"/>
        <pt x="319" y="129" on="1"/>
        <pt x="319" y="218" on="1"/>
        <pt x="284" y="222" on="0"/>
        <pt x="202" y="222" on="0"/>
        <pt x="160" y="180" on="0"/>
        <pt x="160" y="116" on="0"/>
        <pt x="192" y="81" on="0"/>
      </contour>
    </TTGlyph>
    <TTGlyph name="a.smcp" xMin="10" yMin="-8" xMax="547" yMax="553">
      <contour>
        <pt x="380" y="113" on="1"/>
        <pt x="337" y="112" on="1"/>
        <pt x="209" y="112" on="1"/>
        <pt x="164" y="113" on="1"/>
        <pt x="126" y="0" on="1"/>
        <pt x="104" y="-6" on="0"/>
        <pt x="35" y="-6" on="0"/>
        <pt x="14" y="3" on="1"/>
        <pt x="10" y="10" on="1"/>
        <pt x="207" y="548" on="1"/>
        <pt x="237" y="553" on="0"/>
        <pt x="321" y="553" on="0"/>
        <pt x="352" y="548" on="1"/>
        <pt x="547" y="6" on="1"/>
        <pt x="516" y="-8" on="0"/>
        <pt x="448" y="-8" on="0"/>
        <pt x="413" y="14" on="0"/>
        <pt x="403" y="47" on="1"/>
      </contour>
      <contour>
        <pt x="198" y="211" on="1"/>
        <pt x="237" y="212" on="1"/>
        <pt x="313" y="212" on="1"/>
        <pt x="317" y="212" on="0"/>
        <pt x="341" y="211" on="0"/>
        <pt x="347" y="211" on="1"/>
        <pt x="323" y="283" on="1"/>
        <pt x="304" y="343" on="0"/>
        <pt x="276" y="448" on="1"/>
        <pt x="271" y="448" on="1"/>
        <pt x="237" y="325" on="0"/>
        <pt x="227" y="295" on="1"/>
      </contour>
    </TTGlyph>
    <TTGlyph name="aacute" xMin="38" yMin="-14" xMax="470" yMax="751">
      <contour>
        <pt x="470" y="56" on="1"/>
        <pt x="465" y="39" on="0"/>
        <pt x="440" y="2" on="0"/>
        <pt x="427" y="-8" on="1"/>
        <pt x="365" y="-1" on="0"/>
        <pt x="336" y="50" on="1"/>
        <pt x="270" y="-14" on="0"/>
        <pt x="116" y="-14" on="0"/>
        <pt x="38" y="76" on="0"/>
        <pt x="38" y="135" on="1"/>
        <pt x="38" y="219" on="0"/>
        <pt x="147" y="304" on="0"/>
        <pt x="232" y="304" on="1"/>
        <pt x="278" y="304" on="0"/>
        <pt x="319" y="300" on="1"/>
        <pt x="319" y="330" on="1"/>
        <pt x="319" y="409" on="0"/>
        <pt x="243" y="409" on="1"/>
        <pt x="189" y="409" on="0"/>
        <pt x="90" y="373" on="1"/>
        <pt x="61" y="404" on="0"/>
        <pt x="57" y="462" on="1"/>
        <pt x="165" y="507" on="0"/>
        <pt x="273" y="507" on="1"/>
        <pt x="348" y="507" on="0"/>
        <pt x="442" y="423" on="0"/>
        <pt x="442" y="338" on="1"/>
        <pt x="442" y="134" on="1"/>
        <pt x="442" y="79" on="0"/>
      </contour>
      <contour>
        <pt x="219" y="81" on="1"/>
        <pt x="271" y="81" on="0"/>
        <pt x="319" y="129" on="1"/>
        <pt x="319" y="218" on="1"/>
        <pt x="284" y="222" on="0"/>
        <pt x="202" y="222" on="0"/>
        <pt x="160" y="180" on="0"/>
        <pt x="160" y="116" on="0"/>
        <pt x="192" y="81" on="0"/>
      </contour>
      <contour>
        <pt x="165" y="588" on="1"/>
        <pt x="313" y="751" on="1"/>
        <pt x="339" y="742" on="0"/>
        <pt x="386" y="699" on="0"/>
        <pt x="394" y="674" on="1"/>
        <pt x="217" y="539" on="1"/>
        <pt x="180" y="550" on="0"/>
      </contour>
    </TTGlyph>
    <TTGlyph name="aacute.smcp" xMin="10" yMin="-8" xMax="547" yMax="803">
      <contour>
        <pt x="380" y="113" on="1"/>
        <pt x="337" y="112" on="1"/>
        <pt x="209" y="112" on="1"/>
        <pt x="164" y="113" on="1"/>
        <pt x="126" y="0" on="1"/>
        <pt x="104" y="-6" on="0"/>
        <pt x="35" y="-6" on="0"/>
        <pt x="14" y="3" on="1"/>
        <pt x="10" y="10" on="1"/>
        <pt x="207" y="548" on="1"/>
        <pt x="237" y="553" on="0"/>
        <pt x="321" y="553" on="0"/>
        <pt x="352" y="548" on="1"/>
        <pt x="547" y="6" on="1"/>
        <pt x="516" y="-8" on="0"/>
        <pt x="448" y="-8" on="0"/>
        <pt x="413" y="14" on="0"/>
        <pt x="403" y="47" on="1"/>
      </contour>
      <contour>
        <pt x="198" y="211" on="1"/>
        <pt x="237" y="212" on="1"/>
        <pt x="313" y="212" on="1"/>
        <pt x="317" y="212" on="0"/>
        <pt x="341" y="211" on="0"/>
        <pt x="347" y="211" on="1"/>
        <pt x="323" y="283" on="1"/>
        <pt x="304" y="343" on="0"/>
        <pt x="276" y="448" on="1"/>
        <pt x="271" y="448" on="1"/>
        <pt x="237" y="325" on="0"/>
        <pt x="227" y="295" on="1"/>
      </contour>
      <contour>
        <pt x="200" y="640" on="1"/>
        <pt x="348" y="803" on="1"/>
        <pt x="374" y="794" on="0"/>
        <pt x="421" y="751" on="0"/>
        <pt x="429" y="726" on="1"/>
        <pt x="252" y="591" on="1"/>
        <pt x="215" y="602" on="0"/>
      </contour>
    </TTGlyph>
    <TTGlyph name="acircumflex" xMin="38" yMin="-14" xMax="470" yMax="734">
      <component glyphName="a" x="0" y="0" flags="0x1004"/>
      <component glyphName="circumflex" x="48" y="0" flags="0x1004"/>
    </TTGlyph>
    <TTGlyph name="acircumflex.smcp" xMin="10" yMin="-8" xMax="547" yMax="786">
      <contour>
        <pt x="380" y="113" on="1"/>
        <pt x="337" y="112" on="1"/>
        <pt x="209" y="112" on="1"/>
        <pt x="164" y="113" on="1"/>
        <pt x="126" y="0" on="1"/>
        <pt x="104" y="-6" on="0"/>
        <pt x="35" y="-6" on="0"/>
        <pt x="14" y="3" on="1"/>
        <pt x="10" y="10" on="1"/>
        <pt x="207" y="548" on="1"/>
        <pt x="237" y="553" on="0"/>
        <pt x="321" y="553" on="0"/>
        <pt x="352" y="548" on="1"/>
        <pt x="547" y="6" on="1"/>
        <pt x="516" y="-8" on="0"/>
        <pt x="448" y="-8" on="0"/>
        <pt x="413" y="14" on="0"/>
        <pt x="403" y="47" on="1"/>
      </contour>
      <contour>
        <pt x="198" y="211" on="1"/>
        <pt x="237" y="212" on="1"/>
        <pt x="313" y="212" on="1"/>
        <pt x="317" y="212" on="0"/>
        <pt x="341" y="211" on="0"/>
        <pt x="347" y="211" on="1"/>
        <pt x="323" y="283" on="1"/>
        <pt x="304" y="343" on="0"/>
        <pt x="276" y="448" on="1"/>
        <pt x="271" y="448" on="1"/>
        <pt x="237" y="325" on="0"/>
        <pt x="227" y="295" on="1"/>
      </contour>
      <contour>
        <pt x="378" y="600" on="1"/>
        <pt x="285" y="690" on="1"/>
        <pt x="186" y="594" on="1"/>
        <pt x="149" y="609" on="0"/>
        <pt x="130" y="644" on="1"/>
        <pt x="236" y="778" on="1"/>
        <pt x="259" y="786" on="0"/>
        <pt x="311" y="786" on="0"/>
        <pt x="339" y="779" on="1"/>
        <pt x="434" y="653" on="1"/>
        <pt x="419" y="616" on="0"/>
      </contour>
    </TTGlyph>
    <TTGlyph name="acute" xMin="116" yMin="539" xMax="345" yMax="751">
      <contour>
        <pt x="116" y="588" on="1"/>
        <pt x="264" y="751" on="1"/>
        <pt x="290" y="742" on="0"/>
        <pt x="337" y="699" on="0"/>
        <pt x="345" y="674" on="1"/>
        <pt x="168" y="539" on="1"/>
        <pt x="131" y="550" on="0"/>
      </contour>
    </TTGlyph>
    <TTGlyph name="acute.cap" xMin="89" yMin="728" xMax="352" yMax="917">
      <contour>
        <pt x="89" y="790" on="1"/>
        <pt x="300" y="917" on="1"/>
        <pt x="317" y="904" on="0"/>
        <pt x="349" y="846" on="0"/>
        <pt x="352" y="819" on="1"/>
        <pt x="125" y="728" on="1"/>
        <pt x="111" y="736" on="0"/>
        <pt x="91" y="772" on="0"/>
      </contour>
    </TTGlyph>
    <TTGlyph name="adieresis" xMin="38" yMin="-14" xMax="470" yMax="674">
      <contour>
        <pt x="470" y="56" on="1"/>
        <pt x="465" y="39" on="0"/>
        <pt x="440" y="2" on="0"/>
        <pt x="427" y="-8" on="1"/>
        <pt x="365" y="-1" on="0"/>
        <pt x="336" y="50" on="1"/>
        <pt x="270" y="-14" on="0"/>
        <pt x="116" y="-14" on="0"/>
        <pt x="38" y="76" on="0"/>
        <pt x="38" y="135" on="1"/>
        <pt x="38" y="219" on="0"/>
        <pt x="147" y="304" on="0"/>
        <pt x="232" y="304" on="1"/>
        <pt x="278" y="304" on="0"/>
        <pt x="319" y="300" on="1"/>
        <pt x="319" y="330" on="1"/>
        <pt x="319" y="409" on="0"/>
        <pt x="243" y="409" on="1"/>
        <pt x="189" y="409" on="0"/>
        <pt x="90" y="373" on="1"/>
        <pt x="61" y="404" on="0"/>
        <pt x="57" y="462" on="1"/>
        <pt x="165" y="507" on="0"/>
        <pt x="273" y="507" on="1"/>
        <pt x="348" y="507" on="0"/>
        <pt x="442" y="423" on="0"/>
        <pt x="442" y="338" on="1"/>
        <pt x="442" y="134" on="1"/>
        <pt x="442" y="79" on="0"/>
      </contour>
      <contour>
        <pt x="219" y="81" on="1"/>
        <pt x="271" y="81" on="0"/>
        <pt x="319" y="129" on="1"/>
        <pt x="319" y="218" on="1"/>
        <pt x="284" y="222" on="0"/>
        <pt x="202" y="222" on="0"/>
        <pt x="160" y="180" on="0"/>
        <pt x="160" y="116" on="0"/>
        <pt x="192" y="81" on="0"/>
      </contour>
      <contour>
        <pt x="288" y="573" on="1"/>
        <pt x="280" y="595" on="0"/>
        <pt x="280" y="638" on="0"/>
        <pt x="288" y="660" on="1"/>
        <pt x="312" y="674" on="0"/>
        <pt x="374" y="674" on="0"/>
        <pt x="398" y="660" on="1"/>
        <pt x="406" y="641" on="0"/>
        <pt x="406" y="590" on="0"/>
        <pt x="398" y="573" on="1"/>
        <pt x="375" y="560" on="0"/>
        <pt x="311" y="560" on="0"/>
      </contour>
      <contour>
        <pt x="96" y="573" on="1"/>
        <pt x="88" y="592" on="0"/>
        <pt x="88" y="641" on="0"/>
        <pt x="96" y="660" on="1"/>
        <pt x="121" y="674" on="0"/>
        <pt x="182" y="674" on="0"/>
        <pt x="206" y="660" on="1"/>
        <pt x="214" y="638" on="0"/>
        <pt x="214" y="594" on="0"/>
        <pt x="206" y="573" on="1"/>
        <pt x="183" y="560" on="0"/>
        <pt x="119" y="560" on="0"/>
      </contour>
    </TTGlyph>
    <TTGlyph name="adieresis.smcp" xMin="10" yMin="-8" xMax="547" yMax="726">
      <contour>
        <pt x="380" y="113" on="1"/>
        <pt x="337" y="112" on="1"/>
        <pt x="209" y="112" on="1"/>
        <pt x="164" y="113" on="1"/>
        <pt x="126" y="0" on="1"/>
        <pt x="104" y="-6" on="0"/>
        <pt x="35" y="-6" on="0"/>
        <pt x="14" y="3" on="1"/>
        <pt x="10" y="10" on="1"/>
        <pt x="207" y="548" on="1"/>
        <pt x="237" y="553" on="0"/>
        <pt x="321" y="553" on="0"/>
        <pt x="352" y="548" on="1"/>
        <pt x="547" y="6" on="1"/>
        <pt x="516" y="-8" on="0"/>
        <pt x="448" y="-8" on="0"/>
        <pt x="413" y="14" on="0"/>
        <pt x="403" y="47" on="1"/>
      </contour>
      <contour>
        <pt x="198" y="211" on="1"/>
        <pt x="237" y="212" on="1"/>
        <pt x="313" y="212" on="1"/>
        <pt x="317" y="212" on="0"/>
        <pt x="341" y="211" on="0"/>
        <pt x="347" y="211" on="1"/>
        <pt x="323" y="283" on="1"/>
        <pt x="304" y="343" on="0"/>
        <pt x="276" y="448" on="1"/>
        <pt x="271" y="448" on="1"/>
        <pt x="237" y="325" on="0"/>
        <pt x="227" y="295" on="1"/>
      </contour>
      <contour>
        <pt x="323" y="625" on="1"/>
        <pt x="315" y="647" on="0"/>
        <pt x="315" y="690" on="0"/>
        <pt x="323" y="712" on="1"/>
        <pt x="348" y="726" on="0"/>
        <pt x="408" y="726" on="0"/>
        <pt x="433" y="712" on="1"/>
        <pt x="441" y="693" on="0"/>
        <pt x="441" y="642" on="0"/>
        <pt x="433" y="625" on="1"/>
        <pt x="410" y="612" on="0"/>
        <pt x="346" y="612" on="0"/>
      </contour>
      <contour>
        <pt x="131" y="625" on="1"/>
        <pt x="123" y="644" on="0"/>
        <pt x="123" y="693" on="0"/>
        <pt x="131" y="712" on="1"/>
        <pt x="156" y="726" on="0"/>
        <pt x="216" y="726" on="0"/>
        <pt x="241" y="712" on="1"/>
        <pt x="249" y="690" on="0"/>
        <pt x="249" y="646" on="0"/>
        <pt x="241" y="625" on="1"/>
        <pt x="218" y="612" on="0"/>
        <pt x="154" y="612" on="0"/>
      </contour>
    </TTGlyph>
    <TTGlyph name="ae" xMin="38" yMin="-14" xMax="731" yMax="510">
      <contour>
        <pt x="721" y="208" on="1"/>
        <pt x="443" y="208" on="1"/>
        <pt x="446" y="149" on="0"/>
        <pt x="493" y="84" on="0"/>
        <pt x="605" y="84" on="0"/>
        <pt x="682" y="119" on="1"/>
        <pt x="711" y="90" on="0"/>
        <pt x="717" y="43" on="1"/>
        <pt x="639" y="-14" on="0"/>
        <pt x="417" y="-14" on="0"/>
        <pt x="363" y="64" on="1"/>
        <pt x="287" y="-14" on="0"/>
        <pt x="187" y="-14" on="1"/>
        <pt x="116" y="-14" on="0"/>
        <pt x="38" y="76" on="0"/>
        <pt x="38" y="136" on="1"/>
        <pt x="38" y="219" on="0"/>
        <pt x="147" y="304" on="0"/>
        <pt x="232" y="304" on="1"/>
        <pt x="269" y="304" on="0"/>
        <pt x="319" y="299" on="1"/>
        <pt x="319" y="331" on="1"/>
        <pt x="319" y="409" on="0"/>
        <pt x="244" y="409" on="1"/>
        <pt x="184" y="409" on="0"/>
        <pt x="90" y="373" on="1"/>
        <pt x="61" y="404" on="0"/>
        <pt x="57" y="462" on="1"/>
        <pt x="165" y="507" on="0"/>
        <pt x="350" y="507" on="0"/>
        <pt x="393" y="452" on="1"/>
        <pt x="449" y="510" on="0"/>
        <pt x="624" y="510" on="0"/>
        <pt x="731" y="390" on="0"/>
        <pt x="731" y="297" on="1"/>
        <pt x="731" y="251" on="0"/>
      </contour>
      <contour>
        <pt x="219" y="81" on="1"/>
        <pt x="282" y="81" on="0"/>
        <pt x="331" y="139" on="1"/>
        <pt x="320" y="175" on="0"/>
        <pt x="319" y="218" on="1"/>
        <pt x="283" y="222" on="0"/>
        <pt x="202" y="222" on="0"/>
        <pt x="160" y="181" on="0"/>
        <pt x="160" y="117" on="0"/>
        <pt x="192" y="81" on="0"/>
      </contour>
      <contour>
        <pt x="529" y="420" on="1"/>
        <pt x="450" y="420" on="0"/>
        <pt x="442" y="296" on="1"/>
        <pt x="614" y="296" on="1"/>
        <pt x="614" y="307" on="1"/>
        <pt x="614" y="357" on="0"/>
        <pt x="573" y="420" on="0"/>
      </contour>
    </TTGlyph>
    <TTGlyph name="ae.smcp" xMin="6" yMin="-5" xMax="750" yMax="548">
      <contour>
        <pt x="475" y="151" on="1"/>
        <pt x="474" y="98" on="1"/>
        <pt x="512" y="100" on="0"/>
        <pt x="536" y="100" on="1"/>
        <pt x="750" y="100" on="1"/>
        <pt x="750" y="73" on="0"/>
        <pt x="747" y="58" on="1"/>
        <pt x="736" y="-1" on="0"/>
        <pt x="671" y="-1" on="1"/>
        <pt x="427" y="-1" on="1"/>
        <pt x="394" y="-1" on="0"/>
        <pt x="357" y="38" on="0"/>
        <pt x="357" y="72" on="1"/>
        <pt x="357" y="117" on="1"/>
        <pt x="343" y="116" on="0"/>
        <pt x="318" y="116" on="1"/>
        <pt x="233" y="116" on="1"/>
        <pt x="182" y="117" on="1"/>
        <pt x="123" y="0" on="1"/>
        <pt x="104" y="-5" on="0"/>
        <pt x="31" y="-5" on="0"/>
        <pt x="11" y="3" on="1"/>
        <pt x="6" y="11" on="1"/>
        <pt x="285" y="537" on="1"/>
        <pt x="307" y="548" on="0"/>
        <pt x="362" y="548" on="1"/>
        <pt x="732" y="548" on="1"/>
        <pt x="736" y="530" on="0"/>
        <pt x="736" y="474" on="0"/>
        <pt x="727" y="446" on="1"/>
        <pt x="474" y="446" on="1"/>
        <pt x="475" y="393" on="1"/>
        <pt x="475" y="325" on="1"/>
        <pt x="497" y="326" on="0"/>
        <pt x="532" y="326" on="1"/>
        <pt x="681" y="326" on="1"/>
        <pt x="687" y="307" on="0"/>
        <pt x="687" y="246" on="0"/>
        <pt x="681" y="228" on="1"/>
        <pt x="475" y="228" on="1"/>
      </contour>
      <contour>
        <pt x="317" y="211" on="1"/>
        <pt x="357" y="210" on="1"/>
        <pt x="357" y="457" on="1"/>
        <pt x="356" y="456" on="1"/>
        <pt x="352" y="456" on="1"/>
        <pt x="293" y="334" on="0"/>
        <pt x="274" y="296" on="1"/>
        <pt x="230" y="210" on="1"/>
        <pt x="268" y="211" on="1"/>
      </contour>
    </TTGlyph>
    <TTGlyph name="agrave" xMin="38" yMin="-14" xMax="470" yMax="751">
      <component glyphName="a" x="0" y="0" flags="0x1004"/>
      <component glyphName="grave" x="49" y="0" flags="0x1004"/>
    </TTGlyph>
    <TTGlyph name="agrave.smcp" xMin="10" yMin="-8" xMax="547" yMax="803">
      <contour>
        <pt x="380" y="113" on="1"/>
        <pt x="337" y="112" on="1"/>
        <pt x="209" y="112" on="1"/>
        <pt x="164" y="113" on="1"/>
        <pt x="126" y="0" on="1"/>
        <pt x="104" y="-6" on="0"/>
        <pt x="35" y="-6" on="0"/>
        <pt x="14" y="3" on="1"/>
        <pt x="10" y="10" on="1"/>
        <pt x="207" y="548" on="1"/>
        <pt x="237" y="553" on="0"/>
        <pt x="321" y="553" on="0"/>
        <pt x="352" y="548" on="1"/>
        <pt x="547" y="6" on="1"/>
        <pt x="516" y="-8" on="0"/>
        <pt x="448" y="-8" on="0"/>
        <pt x="413" y="14" on="0"/>
        <pt x="403" y="47" on="1"/>
      </contour>
      <contour>
        <pt x="198" y="211" on="1"/>
        <pt x="237" y="212" on="1"/>
        <pt x="313" y="212" on="1"/>
        <pt x="317" y="212" on="0"/>
        <pt x="341" y="211" on="0"/>
        <pt x="347" y="211" on="1"/>
        <pt x="323" y="283" on="1"/>
        <pt x="304" y="343" on="0"/>
        <pt x="276" y="448" on="1"/>
        <pt x="271" y="448" on="1"/>
        <pt x="237" y="325" on="0"/>
        <pt x="227" y="295" on="1"/>
      </contour>
      <contour>
        <pt x="224" y="803" on="1"/>
        <pt x="373" y="640" on="1"/>
        <pt x="366" y="623" on="0"/>
        <pt x="336" y="596" on="0"/>
        <pt x="320" y="591" on="1"/>
        <pt x="143" y="726" on="1"/>
        <pt x="152" y="751" on="0"/>
        <pt x="199" y="795" on="0"/>
      </contour>
    </TTGlyph>
    <TTGlyph name="ampersand" xMin="46" yMin="-14" xMax="624" yMax="697">
      <contour>
        <pt x="320" y="413" on="1"/>
        <pt x="508" y="413" on="1"/>
        <pt x="569" y="413" on="0"/>
        <pt x="608" y="431" on="1"/>
        <pt x="624" y="409" on="0"/>
        <pt x="624" y="372" on="1"/>
        <pt x="624" y="308" on="0"/>
        <pt x="541" y="308" on="1"/>
        <pt x="514" y="308" on="1"/>
        <pt x="515" y="284" on="0"/>
        <pt x="515" y="246" on="1"/>
        <pt x="515" y="155" on="1"/>
        <pt x="515" y="82" on="0"/>
        <pt x="521" y="0" on="1"/>
        <pt x="500" y="-7" on="0"/>
        <pt x="428" y="-7" on="0"/>
        <pt x="406" y="-1" on="1"/>
        <pt x="397" y="41" on="1"/>
        <pt x="329" y="-14" on="0"/>
        <pt x="148" y="-14" on="0"/>
        <pt x="46" y="95" on="0"/>
        <pt x="46" y="247" on="0"/>
        <pt x="122" y="348" on="0"/>
        <pt x="177" y="365" on="1"/>
        <pt x="131" y="381" on="0"/>
        <pt x="75" y="464" on="0"/>
        <pt x="75" y="517" on="1"/>
        <pt x="75" y="596" on="0"/>
        <pt x="190" y="697" on="0"/>
        <pt x="393" y="697" on="0"/>
        <pt x="482" y="666" on="1"/>
        <pt x="482" y="663" on="0"/>
        <pt x="482" y="660" on="1"/>
        <pt x="482" y="607" on="0"/>
        <pt x="450" y="570" on="1"/>
        <pt x="363" y="597" on="0"/>
        <pt x="257" y="597" on="0"/>
        <pt x="206" y="547" on="0"/>
        <pt x="206" y="507" on="1"/>
        <pt x="206" y="413" on="0"/>
      </contour>
      <contour>
        <pt x="392" y="245" on="1"/>
        <pt x="392" y="285" on="0"/>
        <pt x="393" y="308" on="1"/>
        <pt x="309" y="308" on="1"/>
        <pt x="243" y="308" on="0"/>
        <pt x="177" y="241" on="0"/>
        <pt x="177" y="139" on="0"/>
        <pt x="228" y="85" on="0"/>
        <pt x="271" y="85" on="1"/>
        <pt x="341" y="85" on="0"/>
        <pt x="392" y="128" on="1"/>
      </contour>
    </TTGlyph>
    <TTGlyph name="ampersand.smcp" xMin="41" yMin="-13" xMax="565" yMax="562">
      <contour>
        <pt x="296" y="338" on="1"/>
        <pt x="460" y="338" on="1"/>
        <pt x="515" y="338" on="0"/>
        <pt x="549" y="355" on="1"/>
        <pt x="565" y="334" on="0"/>
        <pt x="565" y="299" on="1"/>
        <pt x="565" y="239" on="0"/>
        <pt x="486" y="239" on="1"/>
        <pt x="469" y="239" on="1"/>
        <pt x="470" y="221" on="0"/>
        <pt x="470" y="182" on="1"/>
        <pt x="470" y="102" on="1"/>
        <pt x="470" y="83" on="0"/>
        <pt x="477" y="-1" on="1"/>
        <pt x="458" y="-9" on="0"/>
        <pt x="380" y="-9" on="0"/>
        <pt x="363" y="-4" on="1"/>
        <pt x="355" y="32" on="1"/>
        <pt x="297" y="-13" on="0"/>
        <pt x="131" y="-13" on="0"/>
        <pt x="41" y="76" on="0"/>
        <pt x="41" y="198" on="0"/>
        <pt x="108" y="279" on="0"/>
        <pt x="158" y="292" on="1"/>
        <pt x="118" y="305" on="0"/>
        <pt x="69" y="371" on="0"/>
        <pt x="69" y="414" on="1"/>
        <pt x="69" y="480" on="0"/>
        <pt x="175" y="562" on="0"/>
        <pt x="354" y="562" on="0"/>
        <pt x="441" y="535" on="1"/>
        <pt x="441" y="531" on="0"/>
        <pt x="441" y="526" on="1"/>
        <pt x="441" y="478" on="0"/>
        <pt x="410" y="443" on="1"/>
        <pt x="324" y="466" on="0"/>
        <pt x="241" y="466" on="0"/>
        <pt x="200" y="432" on="0"/>
        <pt x="200" y="404" on="1"/>
        <pt x="200" y="338" on="0"/>
      </contour>
      <contour>
        <pt x="350" y="184" on="1"/>
        <pt x="350" y="222" on="0"/>
        <pt x="351" y="239" on="1"/>
        <pt x="285" y="239" on="1"/>
        <pt x="229" y="239" on="0"/>
        <pt x="170" y="193" on="0"/>
        <pt x="170" y="118" on="0"/>
        <pt x="214" y="81" on="0"/>
        <pt x="250" y="81" on="1"/>
        <pt x="307" y="81" on="0"/>
        <pt x="350" y="113" on="1"/>
      </contour>
    </TTGlyph>
    <TTGlyph name="aogonek" xMin="38" yMin="-218" xMax="499" yMax="507">
      <contour>
        <pt x="471" y="-122" on="1"/>
        <pt x="496" y="-143" on="0"/>
        <pt x="499" y="-180" on="1"/>
        <pt x="454" y="-218" on="0"/>
        <pt x="338" y="-218" on="0"/>
        <pt x="276" y="-166" on="0"/>
        <pt x="276" y="-122" on="1"/>
        <pt x="276" y="-44" on="0"/>
        <pt x="364" y="19" on="1"/>
        <pt x="348" y="32" on="0"/>
        <pt x="337" y="51" on="1"/>
        <pt x="270" y="-14" on="0"/>
        <pt x="116" y="-14" on="0"/>
        <pt x="38" y="76" on="0"/>
        <pt x="38" y="135" on="1"/>
        <pt x="38" y="219" on="0"/>
        <pt x="147" y="304" on="0"/>
        <pt x="232" y="304" on="1"/>
        <pt x="278" y="304" on="0"/>
        <pt x="319" y="300" on="1"/>
        <pt x="319" y="330" on="1"/>
        <pt x="319" y="409" on="0"/>
        <pt x="243" y="409" on="1"/>
        <pt x="189" y="409" on="0"/>
        <pt x="90" y="373" on="1"/>
        <pt x="61" y="404" on="0"/>
        <pt x="57" y="462" on="1"/>
        <pt x="165" y="507" on="0"/>
        <pt x="273" y="507" on="1"/>
        <pt x="348" y="507" on="0"/>
        <pt x="442" y="423" on="0"/>
        <pt x="442" y="338" on="1"/>
        <pt x="442" y="134" on="1"/>
        <pt x="442" y="83" on="0"/>
        <pt x="474" y="57" on="1"/>
        <pt x="463" y="24" on="0"/>
        <pt x="424" y="-12" on="1"/>
        <pt x="370" y="-59" on="0"/>
        <pt x="370" y="-96" on="1"/>
        <pt x="370" y="-116" on="0"/>
        <pt x="396" y="-138" on="0"/>
        <pt x="443" y="-138" on="0"/>
      </contour>
      <contour>
        <pt x="219" y="81" on="1"/>
        <pt x="271" y="81" on="0"/>
        <pt x="319" y="129" on="1"/>
        <pt x="319" y="218" on="1"/>
        <pt x="284" y="222" on="0"/>
        <pt x="202" y="222" on="0"/>
        <pt x="160" y="180" on="0"/>
        <pt x="160" y="116" on="0"/>
        <pt x="192" y="81" on="0"/>
      </contour>
    </TTGlyph>
    <TTGlyph name="aogonek.smcp" xMin="10" yMin="-218" xMax="588" yMax="553">
      <contour>
        <pt x="209" y="112" on="1"/>
        <pt x="164" y="113" on="1"/>
        <pt x="126" y="0" on="1"/>
        <pt x="104" y="-6" on="0"/>
        <pt x="35" y="-6" on="0"/>
        <pt x="14" y="3" on="1"/>
        <pt x="10" y="10" on="1"/>
        <pt x="207" y="548" on="1"/>
        <pt x="237" y="553" on="0"/>
        <pt x="321" y="553" on="0"/>
        <pt x="352" y="548" on="1"/>
        <pt x="547" y="6" on="1"/>
        <pt x="459" y="-40" on="0"/>
        <pt x="459" y="-97" on="1"/>
        <pt x="459" y="-117" on="0"/>
        <pt x="485" y="-138" on="0"/>
        <pt x="532" y="-138" on="0"/>
        <pt x="560" y="-122" on="1"/>
        <pt x="585" y="-143" on="0"/>
        <pt x="588" y="-180" on="1"/>
        <pt x="543" y="-218" on="0"/>
        <pt x="427" y="-218" on="0"/>
        <pt x="365" y="-166" on="0"/>
        <pt x="365" y="-122" on="1"/>
        <pt x="365" y="-57" on="0"/>
        <pt x="434" y="0" on="1"/>
        <pt x="414" y="12" on="0"/>
        <pt x="403" y="47" on="1"/>
        <pt x="380" y="113" on="1"/>
        <pt x="337" y="112" on="1"/>
      </contour>
      <contour>
        <pt x="198" y="211" on="1"/>
        <pt x="237" y="212" on="1"/>
        <pt x="313" y="212" on="1"/>
        <pt x="317" y="212" on="0"/>
        <pt x="341" y="211" on="0"/>
        <pt x="347" y="211" on="1"/>
        <pt x="323" y="283" on="1"/>
        <pt x="304" y="343" on="0"/>
        <pt x="276" y="448" on="1"/>
        <pt x="271" y="448" on="1"/>
        <pt x="237" y="325" on="0"/>
        <pt x="227" y="295" on="1"/>
      </contour>
    </TTGlyph>
    <TTGlyph name="aring" xMin="38" yMin="-14" xMax="470" yMax="779">
      <contour>
        <pt x="470" y="56" on="1"/>
        <pt x="465" y="39" on="0"/>
        <pt x="440" y="2" on="0"/>
        <pt x="427" y="-8" on="1"/>
        <pt x="365" y="-1" on="0"/>
        <pt x="336" y="50" on="1"/>
        <pt x="270" y="-14" on="0"/>
        <pt x="116" y="-14" on="0"/>
        <pt x="38" y="76" on="0"/>
        <pt x="38" y="135" on="1"/>
        <pt x="38" y="219" on="0"/>
        <pt x="147" y="304" on="0"/>
        <pt x="232" y="304" on="1"/>
        <pt x="278" y="304" on="0"/>
        <pt x="319" y="300" on="1"/>
        <pt x="319" y="330" on="1"/>
        <pt x="319" y="409" on="0"/>
        <pt x="243" y="409" on="1"/>
        <pt x="189" y="409" on="0"/>
        <pt x="90" y="373" on="1"/>
        <pt x="61" y="404" on="0"/>
        <pt x="57" y="462" on="1"/>
        <pt x="165" y="507" on="0"/>
        <pt x="273" y="507" on="1"/>
        <pt x="348" y="507" on="0"/>
        <pt x="442" y="423" on="0"/>
        <pt x="442" y="338" on="1"/>
        <pt x="442" y="134" on="1"/>
        <pt x="442" y="79" on="0"/>
      </contour>
      <contour>
        <pt x="219" y="81" on="1"/>
        <pt x="271" y="81" on="0"/>
        <pt x="319" y="129" on="1"/>
        <pt x="319" y="218" on="1"/>
        <pt x="284" y="222" on="0"/>
        <pt x="202" y="222" on="0"/>
        <pt x="160" y="180" on="0"/>
        <pt x="160" y="116" on="0"/>
        <pt x="192" y="81" on="0"/>
      </contour>
      <contour>
        <pt x="190" y="540" on="0"/>
        <pt x="118" y="609" on="0"/>
        <pt x="118" y="710" on="0"/>
        <pt x="190" y="779" on="0"/>
        <pt x="304" y="779" on="0"/>
        <pt x="376" y="710" on="0"/>
        <pt x="376" y="609" on="0"/>
        <pt x="304" y="540" on="0"/>
      </contour>
      <contour>
        <pt x="197" y="683" on="0"/>
        <pt x="197" y="637" on="0"/>
        <pt x="225" y="607" on="0"/>
        <pt x="269" y="607" on="0"/>
        <pt x="297" y="637" on="0"/>
        <pt x="297" y="683" on="0"/>
        <pt x="269" y="713" on="0"/>
        <pt x="225" y="713" on="0"/>
      </contour>
    </TTGlyph>
    <TTGlyph name="aring.smcp" xMin="10" yMin="-8" xMax="547" yMax="831">
      <contour>
        <pt x="380" y="113" on="1"/>
        <pt x="337" y="112" on="1"/>
        <pt x="209" y="112" on="1"/>
        <pt x="164" y="113" on="1"/>
        <pt x="126" y="0" on="1"/>
        <pt x="104" y="-6" on="0"/>
        <pt x="35" y="-6" on="0"/>
        <pt x="14" y="3" on="1"/>
        <pt x="10" y="10" on="1"/>
        <pt x="207" y="548" on="1"/>
        <pt x="237" y="553" on="0"/>
        <pt x="321" y="553" on="0"/>
        <pt x="352" y="548" on="1"/>
        <pt x="547" y="6" on="1"/>
        <pt x="516" y="-8" on="0"/>
        <pt x="448" y="-8" on="0"/>
        <pt x="413" y="14" on="0"/>
        <pt x="403" y="47" on="1"/>
      </contour>
      <contour>
        <pt x="198" y="211" on="1"/>
        <pt x="237" y="212" on="1"/>
        <pt x="313" y="212" on="1"/>
        <pt x="317" y="212" on="0"/>
        <pt x="341" y="211" on="0"/>
        <pt x="347" y="211" on="1"/>
        <pt x="323" y="283" on="1"/>
        <pt x="304" y="343" on="0"/>
        <pt x="276" y="448" on="1"/>
        <pt x="271" y="448" on="1"/>
        <pt x="237" y="325" on="0"/>
        <pt x="227" y="295" on="1"/>
      </contour>
      <contour>
        <pt x="225" y="592" on="0"/>
        <pt x="153" y="661" on="0"/>
        <pt x="153" y="762" on="0"/>
        <pt x="225" y="831" on="0"/>
        <pt x="339" y="831" on="0"/>
        <pt x="411" y="762" on="0"/>
        <pt x="411" y="661" on="0"/>
        <pt x="339" y="592" on="0"/>
      </contour>
      <contour>
        <pt x="232" y="735" on="0"/>
        <pt x="232" y="689" on="0"/>
        <pt x="260" y="659" on="0"/>
        <pt x="304" y="659" on="0"/>
        <pt x="332" y="689" on="0"/>
        <pt x="332" y="735" on="0"/>
        <pt x="304" y="765" on="0"/>
        <pt x="260" y="765" on="0"/>
      </contour>
    </TTGlyph>
    <TTGlyph name="asciicircum" xMin="38" yMin="300" xMax="492" yMax="654">
      <contour>
        <pt x="492" y="306" on="1"/>
        <pt x="468" y="300" on="0"/>
        <pt x="394" y="300" on="0"/>
        <pt x="372" y="306" on="1"/>
        <pt x="303" y="460" on="1"/>
        <pt x="292" y="487" on="0"/>
        <pt x="269" y="553" on="1"/>
        <pt x="261" y="553" on="1"/>
        <pt x="238" y="487" on="0"/>
        <pt x="227" y="460" on="1"/>
        <pt x="158" y="306" on="1"/>
        <pt x="136" y="300" on="0"/>
        <pt x="118" y="300" on="1"/>
        <pt x="62" y="300" on="0"/>
        <pt x="38" y="306" on="1"/>
        <pt x="199" y="648" on="1"/>
        <pt x="223" y="654" on="0"/>
        <pt x="310" y="654" on="0"/>
        <pt x="331" y="648" on="1"/>
      </contour>
    </TTGlyph>
    <TTGlyph name="asciitilde" xMin="36" yMin="204" xMax="568" yMax="388">
      <contour>
        <pt x="286" y="367" on="1"/>
        <pt x="366" y="331" on="1"/>
        <pt x="392" y="319" on="0"/>
        <pt x="446" y="319" on="0"/>
        <pt x="473" y="349" on="1"/>
        <pt x="494" y="373" on="1"/>
        <pt x="515" y="371" on="0"/>
        <pt x="560" y="345" on="0"/>
        <pt x="568" y="325" on="1"/>
        <pt x="552" y="298" on="1"/>
        <pt x="498" y="204" on="0"/>
        <pt x="405" y="204" on="1"/>
        <pt x="363" y="204" on="0"/>
        <pt x="318" y="225" on="1"/>
        <pt x="238" y="261" on="1"/>
        <pt x="207" y="273" on="0"/>
        <pt x="189" y="273" on="1"/>
        <pt x="156" y="273" on="0"/>
        <pt x="131" y="242" on="1"/>
        <pt x="110" y="219" on="1"/>
        <pt x="89" y="221" on="0"/>
        <pt x="44" y="247" on="0"/>
        <pt x="36" y="267" on="1"/>
        <pt x="52" y="294" on="1"/>
        <pt x="107" y="388" on="0"/>
        <pt x="199" y="388" on="1"/>
        <pt x="238" y="388" on="0"/>
      </contour>
    </TTGlyph>
    <TTGlyph name="asterisk" xMin="41" yMin="324" xMax="469" yMax="738">
      <contour>
        <pt x="41" y="537" on="1"/>
        <pt x="40" y="557" on="0"/>
        <pt x="60" y="620" on="0"/>
        <pt x="74" y="636" on="1"/>
        <pt x="129" y="616" on="1"/>
        <pt x="160" y="605" on="0"/>
        <pt x="226" y="561" on="1"/>
        <pt x="206" y="633" on="0"/>
        <pt x="205" y="671" on="1"/>
        <pt x="203" y="730" on="1"/>
        <pt x="221" y="738" on="0"/>
        <pt x="288" y="738" on="0"/>
        <pt x="307" y="730" on="1"/>
        <pt x="305" y="671" on="1"/>
        <pt x="304" y="634" on="0"/>
        <pt x="284" y="562" on="1"/>
        <pt x="337" y="599" on="0"/>
        <pt x="381" y="615" on="1"/>
        <pt x="437" y="635" on="1"/>
        <pt x="449" y="620" on="0"/>
        <pt x="470" y="557" on="0"/>
        <pt x="469" y="537" on="1"/>
        <pt x="412" y="520" on="1"/>
        <pt x="375" y="509" on="0"/>
        <pt x="302" y="507" on="1"/>
        <pt x="358" y="462" on="0"/>
        <pt x="383" y="431" on="1"/>
        <pt x="418" y="384" on="1"/>
        <pt x="408" y="367" on="0"/>
        <pt x="355" y="328" on="0"/>
        <pt x="335" y="324" on="1"/>
        <pt x="302" y="372" on="1"/>
        <pt x="278" y="407" on="0"/>
        <pt x="255" y="472" on="1"/>
        <pt x="228" y="401" on="0"/>
        <pt x="207" y="373" on="1"/>
        <pt x="175" y="324" on="1"/>
        <pt x="155" y="329" on="0"/>
        <pt x="101" y="367" on="0"/>
        <pt x="91" y="385" on="1"/>
        <pt x="127" y="431" on="1"/>
        <pt x="149" y="460" on="0"/>
        <pt x="208" y="507" on="1"/>
        <pt x="139" y="509" on="0"/>
        <pt x="98" y="521" on="1"/>
      </contour>
    </TTGlyph>
    <TTGlyph name="at" xMin="46" yMin="-194" xMax="923" yMax="681">
      <contour>
        <pt x="676" y="412" on="1"/>
        <pt x="675" y="160" on="1"/>
        <pt x="675" y="127" on="0"/>
        <pt x="693" y="98" on="0"/>
        <pt x="714" y="98" on="1"/>
        <pt x="751" y="98" on="0"/>
        <pt x="801" y="192" on="0"/>
        <pt x="801" y="296" on="1"/>
        <pt x="801" y="430" on="0"/>
        <pt x="635" y="589" on="0"/>
        <pt x="350" y="589" on="0"/>
        <pt x="170" y="384" on="0"/>
        <pt x="170" y="67" on="0"/>
        <pt x="326" y="-99" on="0"/>
        <pt x="461" y="-99" on="1"/>
        <pt x="565" y="-99" on="0"/>
        <pt x="661" y="-62" on="1"/>
        <pt x="693" y="-96" on="0"/>
        <pt x="693" y="-147" on="1"/>
        <pt x="579" y="-194" on="0"/>
        <pt x="452" y="-194" on="1"/>
        <pt x="268" y="-194" on="0"/>
        <pt x="46" y="20" on="0"/>
        <pt x="46" y="422" on="0"/>
        <pt x="300" y="681" on="0"/>
        <pt x="685" y="681" on="0"/>
        <pt x="923" y="470" on="0"/>
        <pt x="923" y="292" on="1"/>
        <pt x="923" y="155" on="0"/>
        <pt x="797" y="6" on="0"/>
        <pt x="626" y="6" on="0"/>
        <pt x="584" y="66" on="1"/>
        <pt x="520" y="2" on="0"/>
        <pt x="370" y="2" on="0"/>
        <pt x="285" y="124" on="0"/>
        <pt x="285" y="340" on="0"/>
        <pt x="396" y="483" on="0"/>
        <pt x="494" y="483" on="1"/>
        <pt x="546" y="483" on="0"/>
        <pt x="645" y="442" on="0"/>
      </contour>
      <contour>
        <pt x="474" y="97" on="1"/>
        <pt x="517" y="97" on="0"/>
        <pt x="559" y="146" on="1"/>
        <pt x="559" y="370" on="1"/>
        <pt x="532" y="395" on="0"/>
        <pt x="448" y="395" on="0"/>
        <pt x="405" y="304" on="0"/>
        <pt x="405" y="231" on="1"/>
        <pt x="405" y="97" on="0"/>
      </contour>
    </TTGlyph>
    <TTGlyph name="atilde" xMin="38" yMin="-14" xMax="470" yMax="704">
      <component glyphName="a" x="0" y="0" flags="0x1004"/>
      <component glyphName="tilde" x="48" y="0" flags="0x1004"/>
    </TTGlyph>
    <TTGlyph name="atilde.smcp" xMin="10" yMin="-8" xMax="547" yMax="756">
      <contour>
        <pt x="380" y="113" on="1"/>
        <pt x="337" y="112" on="1"/>
        <pt x="209" y="112" on="1"/>
        <pt x="164" y="113" on="1"/>
        <pt x="126" y="0" on="1"/>
        <pt x="104" y="-6" on="0"/>
        <pt x="35" y="-6" on="0"/>
        <pt x="14" y="3" on="1"/>
        <pt x="10" y="10" on="1"/>
        <pt x="207" y="548" on="1"/>
        <pt x="237" y="553" on="0"/>
        <pt x="321" y="553" on="0"/>
        <pt x="352" y="548" on="1"/>
        <pt x="547" y="6" on="1"/>
        <pt x="516" y="-8" on="0"/>
        <pt x="448" y="-8" on="0"/>
        <pt x="413" y="14" on="0"/>
        <pt x="403" y="47" on="1"/>
      </contour>
      <contour>
        <pt x="198" y="211" on="1"/>
        <pt x="237" y="212" on="1"/>
        <pt x="313" y="212" on="1"/>
        <pt x="317" y="212" on="0"/>
        <pt x="341" y="211" on="0"/>
        <pt x="347" y="211" on="1"/>
        <pt x="323" y="283" on="1"/>
        <pt x="304" y="343" on="0"/>
        <pt x="276" y="448" on="1"/>
        <pt x="271" y="448" on="1"/>
        <pt x="237" y="325" on="0"/>
        <pt x="227" y="295" on="1"/>
      </contour>
      <contour>
        <pt x="289" y="624" on="1"/>
        <pt x="239" y="649" on="1"/>
        <pt x="223" y="658" on="0"/>
        <pt x="189" y="658" on="0"/>
        <pt x="170" y="633" on="1"/>
        <pt x="160" y="619" on="1"/>
        <pt x="142" y="620" on="0"/>
        <pt x="107" y="641" on="0"/>
        <pt x="101" y="657" on="1"/>
        <pt x="109" y="677" on="1"/>
        <pt x="125" y="713" on="0"/>
        <pt x="181" y="756" on="0"/>
        <pt x="243" y="756" on="0"/>
        <pt x="275" y="740" on="1"/>
        <pt x="325" y="714" on="1"/>
        <pt x="343" y="705" on="0"/>
        <pt x="375" y="705" on="0"/>
        <pt x="394" y="730" on="1"/>
        <pt x="404" y="744" on="1"/>
        <pt x="422" y="743" on="0"/>
        <pt x="456" y="722" on="0"/>
        <pt x="463" y="706" on="1"/>
        <pt x="455" y="686" on="1"/>
        <pt x="439" y="649" on="0"/>
        <pt x="382" y="607" on="0"/>
        <pt x="319" y="607" on="0"/>
      </contour>
    </TTGlyph>
    <TTGlyph name="b" xMin="71" yMin="-8" xMax="493" yMax="736">
      <contour>
        <pt x="402" y="505" on="0"/>
        <pt x="492" y="368" on="0"/>
        <pt x="492" y="129" on="0"/>
        <pt x="363" y="-8" on="0"/>
        <pt x="157" y="-8" on="0"/>
        <pt x="71" y="25" on="1"/>
        <pt x="71" y="729" on="1"/>
        <pt x="78" y="736" on="1"/>
        <pt x="124" y="736" on="1"/>
        <pt x="161" y="736" on="0"/>
        <pt x="192" y="701" on="0"/>
        <pt x="192" y="659" on="1"/>
        <pt x="192" y="460" on="1"/>
        <pt x="250" y="505" on="0"/>
        <pt x="318" y="505" on="1"/>
      </contour>
      <contour>
        <pt x="285" y="404" on="1"/>
        <pt x="233" y="404" on="0"/>
        <pt x="192" y="357" on="1"/>
        <pt x="192" y="91" on="1"/>
        <pt x="224" y="82" on="0"/>
        <pt x="260" y="82" on="1"/>
        <pt x="310" y="82" on="0"/>
        <pt x="366" y="171" on="0"/>
        <pt x="366" y="253" on="1"/>
        <pt x="366" y="402" on="0"/>
      </contour>
    </TTGlyph>
    <TTGlyph name="b.smcp" xMin="79" yMin="-4" xMax="515" yMax="552">
      <contour>
        <pt x="292" y="-4" on="1"/>
        <pt x="85" y="-1" on="1"/>
        <pt x="79" y="4" on="1"/>
        <pt x="79" y="543" on="1"/>
        <pt x="85" y="548" on="1"/>
        <pt x="197" y="552" on="0"/>
        <pt x="280" y="552" on="1"/>
        <pt x="485" y="552" on="0"/>
        <pt x="485" y="407" on="1"/>
        <pt x="485" y="370" on="0"/>
        <pt x="442" y="308" on="0"/>
        <pt x="407" y="295" on="1"/>
        <pt x="452" y="282" on="0"/>
        <pt x="515" y="204" on="0"/>
        <pt x="515" y="157" on="1"/>
        <pt x="515" y="-4" on="0"/>
      </contour>
      <contour>
        <pt x="284" y="243" on="1"/>
        <pt x="202" y="243" on="1"/>
        <pt x="202" y="85" on="1"/>
        <pt x="234" y="86" on="0"/>
        <pt x="345" y="86" on="0"/>
        <pt x="388" y="131" on="0"/>
        <pt x="388" y="195" on="0"/>
        <pt x="339" y="243" on="0"/>
      </contour>
      <contour>
        <pt x="202" y="464" on="1"/>
        <pt x="202" y="332" on="1"/>
        <pt x="274" y="332" on="1"/>
        <pt x="361" y="332" on="0"/>
        <pt x="361" y="463" on="0"/>
        <pt x="276" y="463" on="1"/>
        <pt x="226" y="463" on="0"/>
      </contour>
    </TTGlyph>
    <TTGlyph name="backslash" xMin="7" yMin="-114" xMax="429" yMax="764">
      <contour>
        <pt x="322" y="-114" on="1"/>
        <pt x="7" y="724" on="1"/>
        <pt x="52" y="757" on="0"/>
        <pt x="114" y="764" on="1"/>
        <pt x="429" y="-74" on="1"/>
        <pt x="386" y="-107" on="0"/>
      </contour>
    </TTGlyph>
    <TTGlyph name="bar" xMin="73" yMin="-146" xMax="188" yMax="779">
      <contour>
        <pt x="73" y="-141" on="1"/>
        <pt x="73" y="774" on="1"/>
        <pt x="94" y="779" on="0"/>
        <pt x="166" y="779" on="0"/>
        <pt x="188" y="774" on="1"/>
        <pt x="188" y="-141" on="1"/>
        <pt x="165" y="-146" on="0"/>
        <pt x="94" y="-146" on="0"/>
      </contour>
    </TTGlyph>
    <TTGlyph name="braceleft" xMin="37" yMin="-173" xMax="358" yMax="825">
      <contour>
        <pt x="43" y="366" on="1"/>
        <pt x="80" y="376" on="0"/>
        <pt x="126" y="439" on="0"/>
        <pt x="126" y="481" on="1"/>
        <pt x="126" y="647" on="1"/>
        <pt x="126" y="719" on="0"/>
        <pt x="208" y="805" on="0"/>
        <pt x="276" y="816" on="1"/>
        <pt x="333" y="825" on="1"/>
        <pt x="346" y="812" on="0"/>
        <pt x="357" y="769" on="0"/>
        <pt x="357" y="749" on="0"/>
        <pt x="356" y="743" on="1"/>
        <pt x="302" y="725" on="1"/>
        <pt x="279" y="718" on="0"/>
        <pt x="251" y="677" on="0"/>
        <pt x="251" y="646" on="1"/>
        <pt x="251" y="483" on="1"/>
        <pt x="251" y="433" on="0"/>
        <pt x="204" y="348" on="0"/>
        <pt x="166" y="330" on="1"/>
        <pt x="166" y="322" on="1"/>
        <pt x="204" y="305" on="0"/>
        <pt x="251" y="220" on="0"/>
        <pt x="251" y="170" on="1"/>
        <pt x="251" y="6" on="1"/>
        <pt x="251" y="-25" on="0"/>
        <pt x="279" y="-66" on="0"/>
        <pt x="302" y="-73" on="1"/>
        <pt x="356" y="-91" on="1"/>
        <pt x="357" y="-97" on="0"/>
        <pt x="357" y="-117" on="0"/>
        <pt x="346" y="-160" on="0"/>
        <pt x="333" y="-173" on="1"/>
        <pt x="276" y="-164" on="1"/>
        <pt x="208" y="-153" on="0"/>
        <pt x="126" y="-67" on="0"/>
        <pt x="126" y="5" on="1"/>
        <pt x="126" y="172" on="1"/>
        <pt x="126" y="214" on="0"/>
        <pt x="79" y="277" on="0"/>
        <pt x="43" y="286" on="1"/>
        <pt x="37" y="301" on="0"/>
        <pt x="37" y="352" on="0"/>
      </contour>
    </TTGlyph>
    <TTGlyph name="braceright" xMin="9" yMin="-173" xMax="329" yMax="825">
      <contour>
        <pt x="323" y="366" on="1"/>
        <pt x="329" y="352" on="0"/>
        <pt x="329" y="301" on="0"/>
        <pt x="323" y="286" on="1"/>
        <pt x="287" y="277" on="0"/>
        <pt x="240" y="213" on="0"/>
        <pt x="240" y="172" on="1"/>
        <pt x="240" y="5" on="1"/>
        <pt x="240" y="-67" on="0"/>
        <pt x="159" y="-153" on="0"/>
        <pt x="91" y="-164" on="1"/>
        <pt x="34" y="-173" on="1"/>
        <pt x="21" y="-160" on="0"/>
        <pt x="10" y="-117" on="0"/>
        <pt x="10" y="-97" on="0"/>
        <pt x="11" y="-91" on="1"/>
        <pt x="65" y="-73" on="1"/>
        <pt x="115" y="-58" on="0"/>
        <pt x="115" y="6" on="1"/>
        <pt x="115" y="170" on="1"/>
        <pt x="115" y="219" on="0"/>
        <pt x="163" y="305" on="0"/>
        <pt x="201" y="322" on="1"/>
        <pt x="201" y="330" on="1"/>
        <pt x="162" y="348" on="0"/>
        <pt x="115" y="434" on="0"/>
        <pt x="115" y="483" on="1"/>
        <pt x="115" y="646" on="1"/>
        <pt x="115" y="710" on="0"/>
        <pt x="65" y="725" on="1"/>
        <pt x="11" y="743" on="1"/>
        <pt x="10" y="749" on="0"/>
        <pt x="10" y="769" on="0"/>
        <pt x="21" y="812" on="0"/>
        <pt x="34" y="825" on="1"/>
        <pt x="91" y="816" on="1"/>
        <pt x="159" y="805" on="0"/>
        <pt x="240" y="719" on="0"/>
        <pt x="240" y="647" on="1"/>
        <pt x="240" y="481" on="1"/>
        <pt x="240" y="439" on="0"/>
        <pt x="287" y="376" on="0"/>
      </contour>
    </TTGlyph>
    <TTGlyph name="bracketleft" xMin="99" yMin="-155" xMax="332" yMax="820">
      <contour>
        <pt x="327" y="-147" on="1"/>
        <pt x="107" y="-155" on="1"/>
        <pt x="99" y="-148" on="1"/>
        <pt x="99" y="813" on="1"/>
        <pt x="107" y="820" on="1"/>
        <pt x="327" y="812" on="1"/>
        <pt x="332" y="801" on="0"/>
        <pt x="332" y="752" on="0"/>
        <pt x="322" y="725" on="1"/>
        <pt x="221" y="722" on="1"/>
        <pt x="221" y="-57" on="1"/>
        <pt x="322" y="-60" on="1"/>
        <pt x="332" y="-87" on="0"/>
        <pt x="332" y="-136" on="0"/>
      </contour>
    </TTGlyph>
    <TTGlyph name="bracketright" xMin="32" yMin="-155" xMax="265" yMax="820">
      <contour>
        <pt x="257" y="-155" on="1"/>
        <pt x="36" y="-147" on="1"/>
        <pt x="32" y="-135" on="0"/>
        <pt x="32" y="-85" on="0"/>
        <pt x="41" y="-60" on="1"/>
        <pt x="142" y="-57" on="1"/>
        <pt x="142" y="722" on="1"/>
        <pt x="41" y="725" on="1"/>
        <pt x="32" y="750" on="0"/>
        <pt x="32" y="800" on="0"/>
        <pt x="36" y="812" on="1"/>
        <pt x="257" y="820" on="1"/>
        <pt x="265" y="813" on="1"/>
        <pt x="265" y="-148" on="1"/>
      </contour>
    </TTGlyph>
    <TTGlyph name="brokenbar" xMin="70" yMin="-146" xMax="185" yMax="779">
      <contour>
        <pt x="70" y="-141" on="1"/>
        <pt x="70" y="246" on="1"/>
        <pt x="92" y="251" on="0"/>
        <pt x="161" y="251" on="0"/>
        <pt x="185" y="246" on="1"/>
        <pt x="185" y="-141" on="1"/>
        <pt x="161" y="-146" on="0"/>
        <pt x="93" y="-146" on="0"/>
      </contour>
      <contour>
        <pt x="70" y="387" on="1"/>
        <pt x="70" y="774" on="1"/>
        <pt x="92" y="779" on="0"/>
        <pt x="161" y="779" on="0"/>
        <pt x="185" y="774" on="1"/>
        <pt x="185" y="387" on="1"/>
        <pt x="161" y="382" on="0"/>
        <pt x="93" y="382" on="0"/>
      </contour>
    </TTGlyph>
    <TTGlyph name="bullet" xMin="104" yMin="154" xMax="351" yMax="387">
      <contour>
        <pt x="120" y="179" on="1"/>
        <pt x="104" y="214" on="0"/>
        <pt x="104" y="324" on="0"/>
        <pt x="120" y="362" on="1"/>
        <pt x="162" y="387" on="0"/>
        <pt x="295" y="387" on="0"/>
        <pt x="335" y="362" on="1"/>
        <pt x="351" y="324" on="0"/>
        <pt x="351" y="214" on="0"/>
        <pt x="335" y="179" on="1"/>
        <pt x="300" y="154" on="0"/>
        <pt x="157" y="154" on="0"/>
      </contour>
    </TTGlyph>
    <TTGlyph name="c" xMin="39" yMin="-14" xMax="440" yMax="510">
      <contour>
        <pt x="327" y="293" on="1"/>
        <pt x="327" y="299" on="0"/>
        <pt x="327" y="305" on="1"/>
        <pt x="327" y="355" on="0"/>
        <pt x="296" y="416" on="0"/>
        <pt x="251" y="416" on="1"/>
        <pt x="166" y="416" on="0"/>
        <pt x="166" y="85" on="0"/>
        <pt x="269" y="85" on="1"/>
        <pt x="321" y="85" on="0"/>
        <pt x="386" y="133" on="1"/>
        <pt x="402" y="123" on="0"/>
        <pt x="430" y="81" on="0"/>
        <pt x="435" y="61" on="1"/>
        <pt x="360" y="-14" on="0"/>
        <pt x="146" y="-14" on="0"/>
        <pt x="39" y="130" on="0"/>
        <pt x="39" y="378" on="0"/>
        <pt x="165" y="510" on="0"/>
        <pt x="339" y="510" on="0"/>
        <pt x="440" y="417" on="0"/>
        <pt x="440" y="288" on="0"/>
        <pt x="378" y="288" on="1"/>
        <pt x="355" y="288" on="0"/>
      </contour>
    </TTGlyph>
    <TTGlyph name="c.smcp" xMin="37" yMin="-14" xMax="512" yMax="562">
      <contour>
        <pt x="394" y="320" on="1"/>
        <pt x="393" y="387" on="0"/>
        <pt x="346" y="462" on="0"/>
        <pt x="288" y="462" on="1"/>
        <pt x="166" y="462" on="0"/>
        <pt x="166" y="271" on="1"/>
        <pt x="166" y="179" on="0"/>
        <pt x="238" y="91" on="0"/>
        <pt x="368" y="91" on="0"/>
        <pt x="446" y="149" on="1"/>
        <pt x="466" y="139" on="0"/>
        <pt x="500" y="90" on="0"/>
        <pt x="505" y="69" on="1"/>
        <pt x="411" y="-14" on="0"/>
        <pt x="278" y="-14" on="1"/>
        <pt x="213" y="-14" on="0"/>
        <pt x="115" y="35" on="0"/>
        <pt x="88" y="77" on="1"/>
        <pt x="37" y="159" on="0"/>
        <pt x="37" y="272" on="1"/>
        <pt x="37" y="416" on="0"/>
        <pt x="183" y="562" on="0"/>
        <pt x="397" y="562" on="0"/>
        <pt x="512" y="455" on="0"/>
        <pt x="512" y="315" on="0"/>
        <pt x="438" y="315" on="1"/>
        <pt x="419" y="315" on="0"/>
      </contour>
    </TTGlyph>
    <TTGlyph name="cacute" xMin="39" yMin="-14" xMax="440" yMax="751">
      <component glyphName="c" x="0" y="0" flags="0x1004"/>
      <component glyphName="acute" x="54" y="0" flags="0x1004"/>
    </TTGlyph>
    <TTGlyph name="cacute.smcp" xMin="37" yMin="-14" xMax="512" yMax="803">
      <contour>
        <pt x="394" y="320" on="1"/>
        <pt x="393" y="387" on="0"/>
        <pt x="346" y="462" on="0"/>
        <pt x="288" y="462" on="1"/>
        <pt x="166" y="462" on="0"/>
        <pt x="166" y="271" on="1"/>
        <pt x="166" y="179" on="0"/>
        <pt x="238" y="91" on="0"/>
        <pt x="368" y="91" on="0"/>
        <pt x="446" y="149" on="1"/>
        <pt x="466" y="139" on="0"/>
        <pt x="500" y="90" on="0"/>
        <pt x="505" y="69" on="1"/>
        <pt x="411" y="-14" on="0"/>
        <pt x="278" y="-14" on="1"/>
        <pt x="213" y="-14" on="0"/>
        <pt x="115" y="35" on="0"/>
        <pt x="88" y="77" on="1"/>
        <pt x="37" y="159" on="0"/>
        <pt x="37" y="272" on="1"/>
        <pt x="37" y="416" on="0"/>
        <pt x="183" y="562" on="0"/>
        <pt x="397" y="562" on="0"/>
        <pt x="512" y="455" on="0"/>
        <pt x="512" y="315" on="0"/>
        <pt x="438" y="315" on="1"/>
        <pt x="419" y="315" on="0"/>
      </contour>
      <contour>
        <pt x="210" y="640" on="1"/>
        <pt x="358" y="803" on="1"/>
        <pt x="384" y="794" on="0"/>
        <pt x="431" y="751" on="0"/>
        <pt x="439" y="726" on="1"/>
        <pt x="262" y="591" on="1"/>
        <pt x="225" y="602" on="0"/>
      </contour>
    </TTGlyph>
    <TTGlyph name="caron" xMin="48" yMin="551" xMax="353" yMax="744">
      <contour>
        <pt x="104" y="736" on="1"/>
        <pt x="197" y="647" on="1"/>
        <pt x="297" y="744" on="1"/>
        <pt x="332" y="731" on="0"/>
        <pt x="353" y="694" on="1"/>
        <pt x="246" y="559" on="1"/>
        <pt x="224" y="551" on="0"/>
        <pt x="210" y="551" on="1"/>
        <pt x="168" y="551" on="0"/>
        <pt x="143" y="558" on="1"/>
        <pt x="48" y="684" on="1"/>
        <pt x="56" y="702" on="0"/>
        <pt x="89" y="731" on="0"/>
      </contour>
    </TTGlyph>
    <TTGlyph name="caron.alt" xMin="197" yMin="555" xMax="317" yMax="792">
      <contour>
        <pt x="268" y="560" on="1"/>
        <pt x="255" y="556" on="0"/>
        <pt x="215" y="556" on="0"/>
        <pt x="197" y="565" on="1"/>
        <pt x="208" y="787" on="1"/>
        <pt x="222" y="791" on="0"/>
        <pt x="237" y="791" on="1"/>
        <pt x="290" y="791" on="0"/>
        <pt x="317" y="771" on="1"/>
      </contour>
    </TTGlyph>
    <TTGlyph name="caron.cap" xMin="30" yMin="737" xMax="366" yMax="912">
      <contour>
        <pt x="81" y="903" on="1"/>
        <pt x="196" y="828" on="1"/>
        <pt x="313" y="912" on="1"/>
        <pt x="328" y="907" on="0"/>
        <pt x="362" y="877" on="0"/>
        <pt x="366" y="860" on="1"/>
        <pt x="249" y="743" on="1"/>
        <pt x="224" y="737" on="0"/>
        <pt x="170" y="737" on="0"/>
        <pt x="142" y="742" on="1"/>
        <pt x="30" y="850" on="1"/>
        <pt x="35" y="868" on="0"/>
        <pt x="66" y="897" on="0"/>
      </contour>
    </TTGlyph>
    <TTGlyph name="ccaron" xMin="39" yMin="-14" xMax="440" yMax="744">
      <contour>
        <pt x="327" y="293" on="1"/>
        <pt x="327" y="299" on="0"/>
        <pt x="327" y="305" on="1"/>
        <pt x="327" y="355" on="0"/>
        <pt x="296" y="416" on="0"/>
        <pt x="251" y="416" on="1"/>
        <pt x="166" y="416" on="0"/>
        <pt x="166" y="85" on="0"/>
        <pt x="269" y="85" on="1"/>
        <pt x="321" y="85" on="0"/>
        <pt x="386" y="133" on="1"/>
        <pt x="402" y="123" on="0"/>
        <pt x="430" y="81" on="0"/>
        <pt x="435" y="61" on="1"/>
        <pt x="360" y="-14" on="0"/>
        <pt x="146" y="-14" on="0"/>
        <pt x="39" y="130" on="0"/>
        <pt x="39" y="378" on="0"/>
        <pt x="165" y="510" on="0"/>
        <pt x="339" y="510" on="0"/>
        <pt x="440" y="417" on="0"/>
        <pt x="440" y="288" on="0"/>
        <pt x="378" y="288" on="1"/>
        <pt x="355" y="288" on="0"/>
      </contour>
      <contour>
        <pt x="157" y="736" on="1"/>
        <pt x="250" y="647" on="1"/>
        <pt x="350" y="744" on="1"/>
        <pt x="385" y="731" on="0"/>
        <pt x="406" y="694" on="1"/>
        <pt x="299" y="559" on="1"/>
        <pt x="277" y="551" on="0"/>
        <pt x="263" y="551" on="1"/>
        <pt x="221" y="551" on="0"/>
        <pt x="196" y="558" on="1"/>
        <pt x="101" y="684" on="1"/>
        <pt x="109" y="702" on="0"/>
        <pt x="142" y="731" on="0"/>
      </contour>
    </TTGlyph>
    <TTGlyph name="ccaron.smcp" xMin="37" yMin="-14" xMax="512" yMax="796">
      <contour>
        <pt x="394" y="320" on="1"/>
        <pt x="393" y="387" on="0"/>
        <pt x="346" y="462" on="0"/>
        <pt x="288" y="462" on="1"/>
        <pt x="166" y="462" on="0"/>
        <pt x="166" y="271" on="1"/>
        <pt x="166" y="179" on="0"/>
        <pt x="238" y="91" on="0"/>
        <pt x="368" y="91" on="0"/>
        <pt x="446" y="149" on="1"/>
        <pt x="466" y="139" on="0"/>
        <pt x="500" y="90" on="0"/>
        <pt x="505" y="69" on="1"/>
        <pt x="411" y="-14" on="0"/>
        <pt x="278" y="-14" on="1"/>
        <pt x="213" y="-14" on="0"/>
        <pt x="115" y="35" on="0"/>
        <pt x="88" y="77" on="1"/>
        <pt x="37" y="159" on="0"/>
        <pt x="37" y="272" on="1"/>
        <pt x="37" y="416" on="0"/>
        <pt x="183" y="562" on="0"/>
        <pt x="397" y="562" on="0"/>
        <pt x="512" y="455" on="0"/>
        <pt x="512" y="315" on="0"/>
        <pt x="438" y="315" on="1"/>
        <pt x="419" y="315" on="0"/>
      </contour>
      <contour>
        <pt x="197" y="788" on="1"/>
        <pt x="290" y="699" on="1"/>
        <pt x="390" y="796" on="1"/>
        <pt x="425" y="783" on="0"/>
        <pt x="446" y="746" on="1"/>
        <pt x="339" y="611" on="1"/>
        <pt x="317" y="603" on="0"/>
        <pt x="303" y="603" on="1"/>
        <pt x="261" y="603" on="0"/>
        <pt x="236" y="610" on="1"/>
        <pt x="141" y="736" on="1"/>
        <pt x="149" y="754" on="0"/>
        <pt x="182" y="783" on="0"/>
      </contour>
    </TTGlyph>
    <TTGlyph name="ccedilla" xMin="39" yMin="-227" xMax="440" yMax="510">
      <contour>
        <pt x="191" y="-75" on="1"/>
        <pt x="201" y="-37" on="0"/>
        <pt x="212" y="-11" on="1"/>
        <pt x="127" y="2" on="0"/>
        <pt x="39" y="141" on="0"/>
        <pt x="39" y="246" on="1"/>
        <pt x="39" y="378" on="0"/>
        <pt x="165" y="510" on="0"/>
        <pt x="339" y="510" on="0"/>
        <pt x="440" y="417" on="0"/>
        <pt x="440" y="288" on="0"/>
        <pt x="378" y="288" on="1"/>
        <pt x="355" y="288" on="0"/>
        <pt x="327" y="293" on="1"/>
        <pt x="327" y="299" on="0"/>
        <pt x="327" y="305" on="1"/>
        <pt x="327" y="355" on="0"/>
        <pt x="296" y="416" on="0"/>
        <pt x="251" y="416" on="1"/>
        <pt x="166" y="416" on="0"/>
        <pt x="166" y="85" on="0"/>
        <pt x="269" y="85" on="1"/>
        <pt x="321" y="85" on="0"/>
        <pt x="386" y="133" on="1"/>
        <pt x="402" y="123" on="0"/>
        <pt x="430" y="81" on="0"/>
        <pt x="435" y="61" on="1"/>
        <pt x="374" y="0" on="0"/>
        <pt x="282" y="-12" on="1"/>
        <pt x="275" y="-24" on="0"/>
        <pt x="272" y="-35" on="1"/>
        <pt x="315" y="-37" on="0"/>
        <pt x="368" y="-86" on="0"/>
        <pt x="368" y="-169" on="0"/>
        <pt x="297" y="-227" on="0"/>
        <pt x="190" y="-227" on="0"/>
        <pt x="159" y="-205" on="1"/>
        <pt x="161" y="-172" on="0"/>
        <pt x="182" y="-147" on="1"/>
        <pt x="203" y="-161" on="0"/>
        <pt x="230" y="-161" on="1"/>
        <pt x="272" y="-161" on="0"/>
        <pt x="272" y="-126" on="1"/>
        <pt x="272" y="-111" on="0"/>
        <pt x="251" y="-91" on="0"/>
        <pt x="223" y="-91" on="0"/>
        <pt x="211" y="-95" on="1"/>
        <pt x="196" y="-90" on="0"/>
      </contour>
    </TTGlyph>
    <TTGlyph name="ccedilla.smcp" xMin="37" yMin="-227" xMax="512" yMax="562">
      <contour>
        <pt x="230" y="-75" on="1"/>
        <pt x="241" y="-37" on="0"/>
        <pt x="250" y="-13" on="1"/>
        <pt x="139" y="-3" on="0"/>
        <pt x="37" y="159" on="0"/>
        <pt x="37" y="272" on="1"/>
        <pt x="37" y="416" on="0"/>
        <pt x="183" y="562" on="0"/>
        <pt x="397" y="562" on="0"/>
        <pt x="512" y="455" on="0"/>
        <pt x="512" y="315" on="0"/>
        <pt x="438" y="315" on="1"/>
        <pt x="419" y="315" on="0"/>
        <pt x="394" y="320" on="1"/>
        <pt x="393" y="387" on="0"/>
        <pt x="346" y="462" on="0"/>
        <pt x="288" y="462" on="1"/>
        <pt x="166" y="462" on="0"/>
        <pt x="166" y="271" on="1"/>
        <pt x="166" y="179" on="0"/>
        <pt x="238" y="91" on="0"/>
        <pt x="368" y="91" on="0"/>
        <pt x="446" y="149" on="1"/>
        <pt x="466" y="139" on="0"/>
        <pt x="500" y="90" on="0"/>
        <pt x="505" y="69" on="1"/>
        <pt x="429" y="2" on="0"/>
        <pt x="320" y="-11" on="1"/>
        <pt x="311" y="-35" on="1"/>
        <pt x="354" y="-37" on="0"/>
        <pt x="407" y="-86" on="0"/>
        <pt x="407" y="-169" on="0"/>
        <pt x="336" y="-227" on="0"/>
        <pt x="229" y="-227" on="0"/>
        <pt x="198" y="-205" on="1"/>
        <pt x="200" y="-172" on="0"/>
        <pt x="221" y="-147" on="1"/>
        <pt x="242" y="-161" on="0"/>
        <pt x="269" y="-161" on="1"/>
        <pt x="311" y="-161" on="0"/>
        <pt x="311" y="-126" on="1"/>
        <pt x="311" y="-111" on="0"/>
        <pt x="290" y="-91" on="0"/>
        <pt x="262" y="-91" on="0"/>
        <pt x="250" y="-95" on="1"/>
        <pt x="235" y="-90" on="0"/>
      </contour>
    </TTGlyph>
    <TTGlyph name="cedilla" xMin="109" yMin="-227" xMax="318" yMax="0">
      <contour>
        <pt x="141" y="-75" on="1"/>
        <pt x="150" y="-38" on="0"/>
        <pt x="167" y="0" on="1"/>
        <pt x="238" y="0" on="1"/>
        <pt x="229" y="-17" on="0"/>
        <pt x="222" y="-35" on="1"/>
        <pt x="265" y="-37" on="0"/>
        <pt x="318" y="-86" on="0"/>
        <pt x="318" y="-169" on="0"/>
        <pt x="246" y="-227" on="0"/>
        <pt x="140" y="-227" on="0"/>
        <pt x="109" y="-205" on="1"/>
        <pt x="111" y="-170" on="0"/>
        <pt x="131" y="-147" on="1"/>
        <pt x="152" y="-161" on="0"/>
        <pt x="180" y="-161" on="1"/>
        <pt x="221" y="-161" on="0"/>
        <pt x="221" y="-126" on="1"/>
        <pt x="221" y="-110" on="0"/>
        <pt x="201" y="-91" on="0"/>
        <pt x="173" y="-91" on="0"/>
        <pt x="161" y="-95" on="1"/>
        <pt x="147" y="-90" on="0"/>
      </contour>
    </TTGlyph>
    <TTGlyph name="cent" xMin="36" yMin="-35" xMax="434" yMax="685">
      <contour>
        <pt x="197" y="-32" on="1"/>
        <pt x="197" y="68" on="1"/>
        <pt x="112" y="85" on="0"/>
        <pt x="36" y="228" on="0"/>
        <pt x="36" y="436" on="0"/>
        <pt x="128" y="565" on="0"/>
        <pt x="200" y="581" on="1"/>
        <pt x="200" y="681" on="1"/>
        <pt x="216" y="685" on="0"/>
        <pt x="278" y="685" on="0"/>
        <pt x="294" y="681" on="1"/>
        <pt x="294" y="583" on="1"/>
        <pt x="359" y="571" on="0"/>
        <pt x="434" y="486" on="0"/>
        <pt x="434" y="436" on="1"/>
        <pt x="434" y="366" on="0"/>
        <pt x="368" y="366" on="1"/>
        <pt x="343" y="366" on="0"/>
        <pt x="322" y="372" on="1"/>
        <pt x="322" y="375" on="0"/>
        <pt x="322" y="378" on="1"/>
        <pt x="322" y="494" on="0"/>
        <pt x="245" y="494" on="1"/>
        <pt x="163" y="494" on="0"/>
        <pt x="163" y="163" on="0"/>
        <pt x="266" y="163" on="1"/>
        <pt x="319" y="163" on="0"/>
        <pt x="380" y="211" on="1"/>
        <pt x="396" y="201" on="0"/>
        <pt x="426" y="161" on="0"/>
        <pt x="430" y="142" on="1"/>
        <pt x="377" y="83" on="0"/>
        <pt x="291" y="67" on="1"/>
        <pt x="291" y="-32" on="1"/>
        <pt x="273" y="-35" on="0"/>
        <pt x="215" y="-35" on="0"/>
      </contour>
    </TTGlyph>
    <TTGlyph name="cent.smcp" xMin="31" yMin="-34" xMax="392" yMax="584">
      <contour>
        <pt x="174" y="-30" on="1"/>
        <pt x="174" y="49" on="1"/>
        <pt x="99" y="65" on="0"/>
        <pt x="31" y="191" on="0"/>
        <pt x="31" y="370" on="0"/>
        <pt x="113" y="484" on="0"/>
        <pt x="177" y="499" on="1"/>
        <pt x="177" y="581" on="1"/>
        <pt x="195" y="584" on="0"/>
        <pt x="248" y="584" on="0"/>
        <pt x="266" y="581" on="1"/>
        <pt x="266" y="501" on="1"/>
        <pt x="325" y="491" on="0"/>
        <pt x="392" y="417" on="0"/>
        <pt x="392" y="366" on="1"/>
        <pt x="392" y="299" on="0"/>
        <pt x="327" y="299" on="1"/>
        <pt x="302" y="299" on="0"/>
        <pt x="283" y="305" on="1"/>
        <pt x="283" y="308" on="0"/>
        <pt x="283" y="311" on="1"/>
        <pt x="283" y="411" on="0"/>
        <pt x="220" y="411" on="1"/>
        <pt x="150" y="411" on="0"/>
        <pt x="150" y="269" on="1"/>
        <pt x="150" y="140" on="0"/>
        <pt x="240" y="140" on="1"/>
        <pt x="291" y="140" on="0"/>
        <pt x="342" y="174" on="1"/>
        <pt x="379" y="150" on="0"/>
        <pt x="389" y="107" on="1"/>
        <pt x="342" y="60" on="0"/>
        <pt x="264" y="47" on="1"/>
        <pt x="264" y="-30" on="1"/>
        <pt x="248" y="-34" on="0"/>
        <pt x="190" y="-34" on="0"/>
      </contour>
    </TTGlyph>
    <TTGlyph name="circumflex" xMin="47" yMin="542" xMax="351" yMax="734">
      <contour>
        <pt x="295" y="548" on="1"/>
        <pt x="202" y="638" on="1"/>
        <pt x="103" y="542" on="1"/>
        <pt x="66" y="557" on="0"/>
        <pt x="47" y="592" on="1"/>
        <pt x="153" y="726" on="1"/>
        <pt x="176" y="734" on="0"/>
        <pt x="228" y="734" on="0"/>
        <pt x="256" y="727" on="1"/>
        <pt x="351" y="601" on="1"/>
        <pt x="336" y="564" on="0"/>
      </contour>
    </TTGlyph>
    <TTGlyph name="circumflex.cap" xMin="29" yMin="727" xMax="364" yMax="902">
      <contour>
        <pt x="312" y="736" on="1"/>
        <pt x="198" y="811" on="1"/>
        <pt x="81" y="727" on="1"/>
        <pt x="66" y="732" on="0"/>
        <pt x="33" y="764" on="0"/>
        <pt x="29" y="780" on="1"/>
        <pt x="144" y="896" on="1"/>
        <pt x="170" y="902" on="0"/>
        <pt x="223" y="902" on="0"/>
        <pt x="251" y="897" on="1"/>
        <pt x="364" y="789" on="1"/>
        <pt x="358" y="771" on="0"/>
        <pt x="327" y="742" on="0"/>
      </contour>
    </TTGlyph>
    <TTGlyph name="colon" xMin="61" yMin="-9" xMax="217" yMax="450">
      <contour>
        <pt x="71" y="6" on="1"/>
        <pt x="61" y="26" on="0"/>
        <pt x="61" y="93" on="0"/>
        <pt x="71" y="114" on="1"/>
        <pt x="98" y="129" on="0"/>
        <pt x="182" y="129" on="0"/>
        <pt x="207" y="114" on="1"/>
        <pt x="217" y="93" on="0"/>
        <pt x="217" y="26" on="0"/>
        <pt x="207" y="6" on="1"/>
        <pt x="184" y="-9" on="0"/>
        <pt x="95" y="-9" on="0"/>
      </contour>
      <contour>
        <pt x="71" y="327" on="1"/>
        <pt x="61" y="347" on="0"/>
        <pt x="61" y="414" on="0"/>
        <pt x="71" y="435" on="1"/>
        <pt x="98" y="450" on="0"/>
        <pt x="182" y="450" on="0"/>
        <pt x="207" y="435" on="1"/>
        <pt x="217" y="414" on="0"/>
        <pt x="217" y="347" on="0"/>
        <pt x="207" y="327" on="1"/>
        <pt x="184" y="312" on="0"/>
        <pt x="95" y="312" on="0"/>
      </contour>
    </TTGlyph>
    <TTGlyph name="comma" xMin="28" yMin="-169" xMax="220" yMax="128">
      <contour>
        <pt x="208" y="113" on="1"/>
        <pt x="220" y="81" on="0"/>
        <pt x="220" y="42" on="1"/>
        <pt x="220" y="-27" on="0"/>
        <pt x="137" y="-144" on="0"/>
        <pt x="60" y="-169" on="1"/>
        <pt x="44" y="-161" on="0"/>
        <pt x="29" y="-130" on="0"/>
        <pt x="29" y="-112" on="0"/>
        <pt x="29" y="-109" on="1"/>
        <pt x="65" y="-94" on="0"/>
        <pt x="112" y="-41" on="0"/>
        <pt x="116" y="-8" on="1"/>
        <pt x="89" y="-4" on="0"/>
        <pt x="74" y="6" on="1"/>
        <pt x="64" y="28" on="0"/>
        <pt x="64" y="96" on="0"/>
        <pt x="74" y="113" on="1"/>
        <pt x="102" y="128" on="0"/>
        <pt x="185" y="128" on="0"/>
      </contour>
    </TTGlyph>
    <TTGlyph name="commaaccent" xMin="97" yMin="-274" xMax="271" yMax="-51">
      <contour>
        <pt x="147" y="-73" on="1"/>
        <pt x="176" y="-52" on="0"/>
        <pt x="242" y="-52" on="0"/>
        <pt x="261" y="-59" on="1"/>
        <pt x="271" y="-79" on="0"/>
        <pt x="271" y="-114" on="1"/>
        <pt x="271" y="-168" on="0"/>
        <pt x="199" y="-253" on="0"/>
        <pt x="136" y="-274" on="1"/>
        <pt x="104" y="-264" on="0"/>
        <pt x="97" y="-223" on="1"/>
        <pt x="160" y="-184" on="0"/>
        <pt x="160" y="-125" on="1"/>
        <pt x="160" y="-97" on="0"/>
      </contour>
    </TTGlyph>
    <TTGlyph name="commaaccent.cap" xMin="97" yMin="-274" xMax="271" yMax="-51">
      <contour>
        <pt x="147" y="-73" on="1"/>
        <pt x="176" y="-52" on="0"/>
        <pt x="242" y="-52" on="0"/>
        <pt x="261" y="-59" on="1"/>
        <pt x="271" y="-79" on="0"/>
        <pt x="271" y="-114" on="1"/>
        <pt x="271" y="-168" on="0"/>
        <pt x="199" y="-253" on="0"/>
        <pt x="136" y="-274" on="1"/>
        <pt x="104" y="-264" on="0"/>
        <pt x="97" y="-223" on="1"/>
        <pt x="160" y="-184" on="0"/>
        <pt x="160" y="-125" on="1"/>
        <pt x="160" y="-97" on="0"/>
      </contour>
    </TTGlyph>
    <TTGlyph name="copyright" xMin="37" yMin="-20" xMax="760" yMax="703">
      <contour>
        <pt x="37" y="188" on="0"/>
        <pt x="37" y="494" on="0"/>
        <pt x="245" y="703" on="0"/>
        <pt x="551" y="703" on="0"/>
        <pt x="760" y="494" on="0"/>
        <pt x="760" y="188" on="0"/>
        <pt x="551" y="-20" on="0"/>
        <pt x="245" y="-20" on="0"/>
      </contour>
      <contour>
        <pt x="135" y="457" on="0"/>
        <pt x="135" y="225" on="0"/>
        <pt x="284" y="65" on="0"/>
        <pt x="512" y="65" on="0"/>
        <pt x="662" y="225" on="0"/>
        <pt x="662" y="457" on="0"/>
        <pt x="512" y="618" on="0"/>
        <pt x="285" y="618" on="0"/>
      </contour>
      <contour>
        <pt x="459" y="374" on="1"/>
        <pt x="459" y="377" on="0"/>
        <pt x="459" y="379" on="1"/>
        <pt x="459" y="465" on="0"/>
        <pt x="397" y="465" on="1"/>
        <pt x="327" y="465" on="0"/>
        <pt x="327" y="342" on="1"/>
        <pt x="327" y="284" on="0"/>
        <pt x="372" y="223" on="0"/>
        <pt x="451" y="223" on="0"/>
        <pt x="506" y="260" on="1"/>
        <pt x="536" y="243" on="0"/>
        <pt x="544" y="204" on="1"/>
        <pt x="520" y="178" on="0"/>
        <pt x="438" y="145" on="0"/>
        <pt x="399" y="145" on="1"/>
        <pt x="311" y="145" on="0"/>
        <pt x="226" y="256" on="0"/>
        <pt x="226" y="440" on="0"/>
        <pt x="330" y="539" on="0"/>
        <pt x="467" y="539" on="0"/>
        <pt x="549" y="467" on="0"/>
        <pt x="549" y="421" on="1"/>
        <pt x="549" y="368" on="0"/>
        <pt x="496" y="368" on="1"/>
        <pt x="472" y="368" on="0"/>
      </contour>
    </TTGlyph>
    <TTGlyph name="currency" xMin="28" yMin="72" xMax="553" yMax="597">
      <contour>
        <pt x="99" y="215" on="1"/>
        <pt x="66" y="267" on="0"/>
        <pt x="66" y="400" on="0"/>
        <pt x="98" y="452" on="1"/>
        <pt x="28" y="529" on="1"/>
        <pt x="48" y="566" on="0"/>
        <pt x="93" y="595" on="1"/>
        <pt x="172" y="523" on="1"/>
        <pt x="225" y="552" on="0"/>
        <pt x="354" y="552" on="0"/>
        <pt x="407" y="524" on="1"/>
        <pt x="487" y="597" on="1"/>
        <pt x="527" y="573" on="0"/>
        <pt x="553" y="532" on="1"/>
        <pt x="481" y="452" on="1"/>
        <pt x="514" y="400" on="0"/>
        <pt x="514" y="267" on="0"/>
        <pt x="481" y="214" on="1"/>
        <pt x="551" y="137" on="1"/>
        <pt x="530" y="99" on="0"/>
        <pt x="486" y="72" on="1"/>
        <pt x="406" y="144" on="1"/>
        <pt x="356" y="117" on="0"/>
        <pt x="224" y="117" on="0"/>
        <pt x="174" y="144" on="1"/>
        <pt x="93" y="72" on="1"/>
        <pt x="54" y="96" on="0"/>
        <pt x="28" y="137" on="1"/>
      </contour>
      <contour>
        <pt x="241" y="459" on="0"/>
        <pt x="189" y="388" on="0"/>
        <pt x="189" y="281" on="0"/>
        <pt x="241" y="209" on="0"/>
        <pt x="339" y="209" on="0"/>
        <pt x="391" y="280" on="0"/>
        <pt x="391" y="388" on="0"/>
        <pt x="339" y="459" on="0"/>
      </contour>
    </TTGlyph>
    <TTGlyph name="currency.smcp" xMin="14" yMin="42" xMax="459" yMax="490">
      <contour>
        <pt x="71" y="172" on="1"/>
        <pt x="47" y="215" on="0"/>
        <pt x="47" y="320" on="0"/>
        <pt x="71" y="361" on="1"/>
        <pt x="14" y="425" on="1"/>
        <pt x="35" y="464" on="0"/>
        <pt x="78" y="488" on="1"/>
        <pt x="144" y="429" on="1"/>
        <pt x="184" y="449" on="0"/>
        <pt x="286" y="449" on="0"/>
        <pt x="326" y="429" on="1"/>
        <pt x="394" y="490" on="1"/>
        <pt x="431" y="469" on="0"/>
        <pt x="459" y="427" on="1"/>
        <pt x="400" y="360" on="1"/>
        <pt x="424" y="318" on="0"/>
        <pt x="424" y="214" on="0"/>
        <pt x="399" y="170" on="1"/>
        <pt x="457" y="107" on="1"/>
        <pt x="436" y="69" on="0"/>
        <pt x="392" y="42" on="1"/>
        <pt x="324" y="103" on="1"/>
        <pt x="285" y="85" on="0"/>
        <pt x="187" y="85" on="0"/>
        <pt x="146" y="104" on="1"/>
        <pt x="78" y="44" on="1"/>
        <pt x="44" y="63" on="0"/>
        <pt x="14" y="107" on="1"/>
      </contour>
      <contour>
        <pt x="200" y="363" on="0"/>
        <pt x="163" y="309" on="0"/>
        <pt x="163" y="226" on="0"/>
        <pt x="200" y="172" on="0"/>
        <pt x="271" y="172" on="0"/>
        <pt x="309" y="225" on="0"/>
        <pt x="309" y="309" on="0"/>
        <pt x="271" y="363" on="0"/>
      </contour>
    </TTGlyph>
    <TTGlyph name="d" xMin="39" yMin="-14" xMax="489" yMax="736">
      <contour>
        <pt x="129" y="-14" on="0"/>
        <pt x="39" y="125" on="0"/>
        <pt x="39" y="367" on="0"/>
        <pt x="154" y="505" on="0"/>
        <pt x="235" y="505" on="1"/>
        <pt x="286" y="505" on="0"/>
        <pt x="340" y="477" on="1"/>
        <pt x="340" y="729" on="1"/>
        <pt x="346" y="736" on="1"/>
        <pt x="394" y="736" on="1"/>
        <pt x="431" y="736" on="0"/>
        <pt x="461" y="701" on="0"/>
        <pt x="461" y="659" on="1"/>
        <pt x="461" y="142" on="1"/>
        <pt x="461" y="80" on="0"/>
        <pt x="489" y="56" on="1"/>
        <pt x="484" y="39" on="0"/>
        <pt x="459" y="2" on="0"/>
        <pt x="446" y="-8" on="1"/>
        <pt x="383" y="1" on="0"/>
        <pt x="357" y="52" on="1"/>
        <pt x="298" y="-14" on="0"/>
      </contour>
      <contour>
        <pt x="245" y="88" on="1"/>
        <pt x="300" y="88" on="0"/>
        <pt x="340" y="142" on="1"/>
        <pt x="340" y="378" on="1"/>
        <pt x="289" y="409" on="0"/>
        <pt x="213" y="409" on="0"/>
        <pt x="166" y="322" on="0"/>
        <pt x="166" y="164" on="0"/>
        <pt x="210" y="88" on="0"/>
      </contour>
    </TTGlyph>
    <TTGlyph name="d.smcp" xMin="79" yMin="-4" xMax="554" yMax="552">
      <contour>
        <pt x="513" y="469" on="0"/>
        <pt x="554" y="353" on="0"/>
        <pt x="554" y="192" on="0"/>
        <pt x="514" y="77" on="0"/>
        <pt x="455" y="36" on="1"/>
        <pt x="400" y="-4" on="0"/>
        <pt x="200" y="-4" on="0"/>
        <pt x="85" y="-1" on="1"/>
        <pt x="79" y="5" on="1"/>
        <pt x="79" y="543" on="1"/>
        <pt x="85" y="548" on="1"/>
        <pt x="241" y="552" on="0"/>
        <pt x="333" y="552" on="0"/>
        <pt x="427" y="530" on="0"/>
        <pt x="455" y="510" on="1"/>
      </contour>
      <contour>
        <pt x="204" y="93" on="1"/>
        <pt x="291" y="94" on="1"/>
        <pt x="425" y="94" on="0"/>
        <pt x="425" y="454" on="0"/>
        <pt x="291" y="454" on="1"/>
        <pt x="235" y="454" on="0"/>
        <pt x="204" y="455" on="1"/>
      </contour>
    </TTGlyph>
</ttFont>
